SplineFontDB: 3.0
FontName: TlwgTypist-Bold
FullName: Tlwg Typist Bold
FamilyName: Tlwg Typist
Weight: Bold
Copyright: Tlwg Typist, based on Poonlap Veerathanabutr's Tlwg Typewriter.\n\nCopyright (C) 2005-2014 Theppitak Karoonboonyanan.\n\nTlwg Typewriter, Free Thai Pseudo Monospace outline font.\n\nCopyright (C) 2003, 2004 Poonlap Veerathanabutr <poonlap@linux.thai.net>
UComments: "2003-11-20: Created. +AAoA-PfaEdit 1.0 (http://pfaedit.sf.net).+AAoACgAA-TLWG is Thai Linux Working Group http://linux.thai.net+AAoACgAA-Imported ISO-8859-1 from FreeMono.sfd.+AAoA-http://www.nongnu.org/freefont/+AAoACgAA-2003-11-22: first release+AAoACgAA-2003-11-25: Fixed vowel and tone marks' level." 
Version: 002.004
ItalicAngle: 0
UnderlinePosition: -100
UnderlineWidth: 50
Ascent: 800
Descent: 200
LayerCount: 2
Layer: 0 0 "Back"  1
Layer: 1 0 "Fore"  0
FSType: 0
OS2Version: 0
OS2_WeightWidthSlopeOnly: 0
OS2_UseTypoMetrics: 0
CreationTime: 1153664010
ModificationTime: 1430369998
PfmFamily: 49
TTFWeight: 700
TTFWidth: 5
LineGap: 90
VLineGap: 0
Panose: 2 0 6 3 0 0 0 0 0 0
OS2TypoAscent: 0
OS2TypoAOffset: 1
OS2TypoDescent: 0
OS2TypoDOffset: 1
OS2TypoLinegap: 90
OS2WinAscent: 0
OS2WinAOffset: 1
OS2WinDescent: 0
OS2WinDOffset: 1
HheadAscent: 0
HheadAOffset: 1
HheadDescent: 0
HheadDOffset: 1
OS2Vendor: 'PfEd'
Lookup: 6 0 0 "'ccmp' Thai Conditional Descender Removal"  {"'ccmp' Thai Conditional Descender Removal"  } ['ccmp' ('DFLT' <'dflt' > 'thai' <'KUY ' 'THA ' 'dflt' > ) ]
Lookup: 1 0 0 "'ccmp' Pali-Sanskrit Descender Removal"  {"'ccmp' Pali-Sanskrit Descender Removal" ("descless" ) } ['ccmp' ('thai' <'PAL ' 'SAN ' > ) ]
Lookup: 6 0 0 "'ccmp' Thai General Composition"  {"'ccmp' Thai Below Vowel Tone Reordering"  "'ccmp' Thai General Composition"  } ['ccmp' ('DFLT' <'dflt' > 'thai' <'KUY ' 'PAL ' 'SAN ' 'THA ' 'dflt' > ) ]
Lookup: 1 0 0 "Thai Descender Removal Single Substitution"  {"Thai Descender Removal Single Substitution" ("descless" ) } []

StartChar: micro
Encoding: 181 181 0
Width: 600
Flags: W
HStem: -16 100<204.178 350.564> 0 100<510 562.708> 337 100<21.0315 95 317.264 410>
VStem: 13 182<346.032 427.968> 95 100<-144.969 -7 93.0204 337> 309 201<346.355 427.968> 410 100<126.053 337>
LayerCount: 2
Fore
SplineSet
195 -7 m 1xaa
 195 -87 l 2
 195 -130 180 -153 145 -153 c 0
 111 -153 95 -130 95 -87 c 2
 95 337 l 1xaa
 79 337 l 2
 37 337 13 352 13 387 c 0xb0
 13 422 36 437 79 437 c 2
 195 437 l 1
 195 144 l 2
 195 101 214 84 260 84 c 0
 304 84 346 99 410 138 c 1
 410 337 l 1xaa
 375 337 l 2
 333 337 309 353 309 387 c 0xa4
 309 422 332 437 375 437 c 2
 510 437 l 1
 510 100 l 1
 549 100 571 82 571 50 c 0
 571 16 547 0 505 0 c 2
 410 0 l 1x62
 410 22 l 1
 356 -4 305 -16 253 -16 c 0
 232 -16 215 -13 195 -7 c 1xaa
EndSplineSet
Validated: 1
EndChar

StartChar: uni0E31
Encoding: 3633 3633 1
Width: 0
Flags: W
HStem: 484 89<-269.015 -170.5> 614 82<-269.446 -239.275>
VStem: -352 82<574.009 613.465>
AnchorPoint: "AboveMark" -130 712 basemark 0
AnchorPoint: "AboveBase" -100 512 mark 0
LayerCount: 2
Back
SplineSet
-254 615 m 0
 -270 615 -283 601 -283 583 c 0
 -283 564 -270 548 -254 548 c 0
 -238 548 -225 564 -225 583 c 0
 -225 601 -238 615 -254 615 c 0
-254 671 m 16
 -203 671 -169 625 -169 583 c 0
 -169 576 -170 572 -171 566 c 1
 -115 572 -73 638 -49 665 c 9
 3 605 l 17
 -44 536 -137 484 -210 484 c 0
 -282 484 -339 509 -339 583 c 0
 -339 632 -301 671 -254 671 c 16
EndSplineSet
Fore
SplineSet
-254 614 m 0
 -264 614 -270 605 -270 595 c 0
 -270 581 -262 573 -254 573 c 0
 -243 573 -238 584 -238 594 c 0
 -238 604 -243 614 -254 614 c 0
-156 595 m 1
 -157 594 l 1
 -114 608 -82 659 -58 685 c 1
 -49 696 l 1
 19 618 l 1
 13 610 l 1
 -35 539 -131 484 -210 484 c 0
 -331 484 -352 550 -352 595 c 0
 -352 651 -308 696 -254 696 c 0
 -195 696 -156 643 -156 595 c 1
EndSplineSet
Validated: 1
EndChar

StartChar: uni0E34
Encoding: 3636 3636 2
Width: 0
Flags: W
HStem: 620 76<-353.025 -235.626>
AnchorPoint: "AboveMark" -140 712 basemark 0
AnchorPoint: "AboveBase" -100 512 mark 0
LayerCount: 2
Back
SplineSet
-109 500 m 1
 -201 522 -283 552 -425 552 c 0
 -466 552 -495 550 -495 550 c 1
 -495 550 -433 671 -333 671 c 0
 -135 671 -109 500 -109 500 c 1
-406 594 m 1
 -400 594 -394 595 -387 595 c 0
 -332 595 -242 572 -189 563 c 1
 -210 589 -251 621 -333 621 c 0
 -362 621 -388 606 -406 594 c 1
EndSplineSet
Fore
SplineSet
-425 552 m 0
 -453 552 -480 550 -494 550 c 1
 -506 568 l 1
 -503 574 -439 696 -333 696 c 0
 -128 696 -99 526 -97 514 c 1
 -112 500 l 1
 -205 522 -285 552 -425 552 c 0
-354 618 m 1
 -315 614 -270 604 -232 596 c 1
 -260 614 -295 620 -333 620 c 0
 -340 620 -347 619 -354 618 c 1
EndSplineSet
Validated: 1
EndChar

StartChar: uni0E35
Encoding: 3637 3637 3
Width: 0
Flags: W
HStem: 620 76<-349.673 -228.637>
VStem: -184 96<655 722>
AnchorPoint: "AboveMark" -143 712 basemark 0
AnchorPoint: "AboveBase" -100 512 mark 0
LayerCount: 2
Back
SplineSet
-406 594 m 1
 -400 594 -394 595 -387 595 c 0
 -354 595 -309 590 -261 576 c 0
 -228 571 -196 564 -174 559 c 1
 -197 586 -243 621 -333 621 c 0
 -362 621 -388 606 -406 594 c 1
-95 500 m 1
 -290.935 541.053 -309.682 552 -425 552 c 0
 -466 552 -495 550 -495 550 c 1
 -495 550 -433 671 -333 671 c 0
 -256 671 -206 647 -172 617 c 1
 -172 697 l 1
 -101 697 l 1
 -101 523 l 1
 -96 509 -95 500 -95 500 c 1
EndSplineSet
Fore
SplineSet
-425 552 m 0
 -453 552 -480 550 -494 550 c 1
 -506 568 l 1
 -503 574 -439 696 -333 696 c 0
 -282 696 -230 685 -184 655 c 1
 -184 722 l 1
 -88 722 l 1
 -88 537 l 1
 -84 523 -83 514 -83 513 c 2
 -98 500 l 1
 -294 541 -311 552 -425 552 c 0
-352 618 m 1
 -325 616 -292 610 -258 600 c 1
 -245 598 -232 596 -220 594 c 1
 -245 608 -281 620 -333 620 c 0
 -340 620 -346 620 -352 618 c 1
EndSplineSet
Validated: 1
EndChar

StartChar: uni0E36
Encoding: 3638 3638 4
Width: 0
Flags: W
HStem: 620 76<-348.696 -228.348> 640 66<-151.661 -112.116>
VStem: -112 66<606.611 639.347>
AnchorPoint: "AboveMark" -129 712 basemark 0
AnchorPoint: "AboveBase" -100 512 mark 0
LayerCount: 2
Back
SplineSet
-406 594 m 1xd0
 -400 594 -394 595 -387 595 c 0
 -354 595 -309 590 -261 576 c 0
 -228 571 -196 564 -174 559 c 1
 -197 586 -243 621 -333 621 c 0
 -362 621 -388 606 -406 594 c 1xd0
-109 500 m 1
 -284 540 -305 552 -425 552 c 0
 -466 552 -495 550 -495 550 c 1
 -495 550 -433 671 -333 671 c 0xd0
 -270 671 -226 655 -193 634 c 1
 -186 661 -160 682 -129 682 c 0xb0
 -90 682 -58 651 -58 612 c 0
 -58 576 -87 547 -126 545 c 1
 -112 520 -109 500 -109 500 c 1
-130 641 m 0xb0
 -154 641 -175 626 -175 612 c 0
 -175 594 -154 582 -130 582 c 0
 -112 582 -100 594 -100 612 c 0
 -100 626 -112 641 -130 641 c 0xb0
EndSplineSet
Fore
SplineSet
-152 623 m 0x60
 -152 613 -144 606 -132 606 c 0
 -122 606 -112 611 -112 624 c 0
 -112 631 -119 640 -130 640 c 0
 -144 640 -152 633 -152 623 c 0x60
-425 552 m 0
 -453 552 -480 550 -494 550 c 1
 -506 568 l 1
 -503 574 -439 696 -333 696 c 0xa0
 -276 696 -233 682 -199 664 c 1
 -187 689 -160 706 -129 706 c 0
 -83 706 -46 670 -46 624 c 0
 -46 587 -71 557 -107 547 c 1
 -99 528 -97 515 -97 514 c 2
 -112 500 l 1
 -288 540 -306 552 -425 552 c 0
-350 618 m 1
 -323 615 -291 609 -258 600 c 1
 -245 598 -232 596 -220 594 c 1
 -245 608 -281 620 -333 620 c 0
 -339 620 -345 619 -350 618 c 1
EndSplineSet
Validated: 1
EndChar

StartChar: uni0E37
Encoding: 3639 3639 5
Width: 0
Flags: W
HStem: 620 76<-349.673 -252.902>
VStem: -186 86<639 708>
AnchorPoint: "AboveMark" -189 712 basemark 0
AnchorPoint: "AboveBase" -100 512 mark 0
LayerCount: 2
Back
SplineSet
-406 594 m 1
 -400 594 -394 595 -387 595 c 0
 -354 595 -309 590 -261 576 c 0
 -227 571 -193 564 -170 559 c 1
 -194 586 -241 621 -333 621 c 0
 -362 621 -388 606 -406 594 c 1
-108 500 m 1
 -284 540 -304 552 -425 552 c 0
 -466 552 -495 550 -495 550 c 1
 -495 550 -433 671 -333 671 c 0
 -297 671 -267 665 -242 654 c 1
 -242 695 l 1
 -180 695 l 1
 -180 630 l 1
 -178 627 -176 623 -174 619 c 1
 -174 695 l 1
 -112 695 l 1
 -112 513 l 1
 -110 505 -108 500 -108 500 c 1
EndSplineSet
Fore
SplineSet
-425 552 m 0
 -453 552 -480 550 -494 550 c 1
 -506 568 l 1
 -503 574 -439 696 -333 696 c 0
 -303 696 -301 694 -278 690 c 1
 -278 708 l 1
 -192 708 l 1
 -192 646 l 1
 -190 643 -188 641 -186 639 c 1
 -186 708 l 1
 -100 708 l 1
 -100 527 l 1
 -98 522 -97 518 -96 517 c 1
 -111 500 l 1
 -288 540 -305 552 -425 552 c 0
-352 618 m 1
 -325 616 -292 610 -258 600 c 1
 -244 598 -230 596 -217 593 c 1
 -251 613 -292 620 -333 620 c 0
 -340 620 -346 620 -352 618 c 1
EndSplineSet
Validated: 1
EndChar

StartChar: uni0E47
Encoding: 3655 3655 6
Width: 0
Flags: W
HStem: 480 63<-176.265 -150.411> 564 62<-176.576 -150.565> 636 70<-268.51 -165.69> 654 74<-303.305 -180.882>
VStem: -412 100<581.805 645.833> -150 60<543.484 563.215>
AnchorPoint: "AboveMark" -253 742 basemark 0
AnchorPoint: "AboveBase" -100 512 mark 0
LayerCount: 2
Back
SplineSet
-190 547 m 0x2080
 -190 535 -177 524 -164 524 c 0
 -150 524 -137 535 -137 547 c 0x6080
 -137 560 -150 571 -164 571 c 0x1080
 -177 571 -190 560 -190 547 c 0x2080
-218 568 m 1
 -212 591 -190 607 -164 607 c 0x11
 -130 607 -102 581 -102 547 c 0
 -102 514 -128 486 -160 486 c 0
 -211 486 -242 547 -261 547 c 0x6180
 -276 547 -289 518 -276 470 c 1x8180
 -345 470 -400 527 -400 590 c 0
 -400 657 -337 692 -270 692 c 0x06
 -237 692 -217 670 -184 670 c 0x0a
 -149 670 -151 680 -151 714 c 1x82
 -76 705 l 1
 -76 641 -95 625 -175 625 c 0x0a
 -219 625 -242 642 -270 642 c 0
 -303 642 -325 619 -325 590 c 0x05
 -325 570 -318 554 -294 549 c 1
 -301 570 -288 597 -261 597 c 0
 -247 597 -233 584 -218 568 c 1
EndSplineSet
Fore
SplineSet
-183 706 m 0xec
 -165 706 -164 708 -164 723 c 2
 -164 752 l 1
 -64 740 l 1
 -64 729 l 2
 -64 654 -92 636 -175 636 c 0xec
 -222 636 -244 654 -270 654 c 0
 -295 654 -312 626 -312 602 c 0
 -312 592 -310 585 -306 581 c 1
 -301 600 -285 616 -261 616 c 0
 -246 616 -233 606 -222 596 c 1
 -210 614 -188 626 -164 626 c 0
 -124 626 -90 594 -90 553 c 0
 -90 514 -120 480 -160 480 c 1
 -218 482 -246 536 -261 541 c 1
 -264 539 -268 528 -268 513 c 0
 -268 500 -267 489 -264 479 c 2
 -259 464 l 1
 -276 464 l 2
 -352 464 -412 532 -412 602 c 0
 -412 678 -341 728 -270 728 c 0xdc
 -232 728 -217 706 -183 706 c 0xec
-150 553 m 0
 -150 558 -155 564 -164 564 c 0
 -171 564 -177 559 -177 554 c 0
 -177 547 -169 543 -164 543 c 0
 -156 543 -150 548 -150 553 c 0
EndSplineSet
Validated: 1
Substitution2: "Thai Mark High Variant" uni0E47.high
Substitution2: "Thai Phinthu Maitaikhu Reordering" uni0E3A
EndChar

StartChar: uni0E48
Encoding: 3656 3656 7
Width: 0
Flags: W
HStem: 714 202<-182 -86>
VStem: -182 96<714 916>
AnchorPoint: "AboveMark" -140 930 basemark 0
AnchorPoint: "AboveMark" -140 712 mark 0
LayerCount: 2
Back
SplineSet
-169 892 m 1
 -98 892 l 1
 -98 679 l 1
 -169 679 l 1
 -169 892 l 1
EndSplineSet
Fore
SplineSet
-182 916 m 1
 -86 916 l 1
 -86 714 l 1
 -182 714 l 1
 -182 916 l 1
EndSplineSet
Validated: 1
MultipleSubs2: "Thai Tone Nikhahit Attachment" uni0E4D uni0E48
Substitution2: "Thai Tone Low Variant" uni0E48.low
Substitution2: "Thai Sara U Mai Ek Reordering" uni0E38
Substitution2: "Thai Sara UU Mai Ek Reordering" uni0E39
Substitution2: "Thai Phinthu Mai Ek Reordering" uni0E3A
EndChar

StartChar: uni0E49
Encoding: 3657 3657 8
Width: 0
Flags: W
HStem: 844 56<-249.512 -234.488>
VStem: -310 60<815.272 843.591> -234 60<815.368 843.591>
AnchorPoint: "AboveMark" -140 930 basemark 0
AnchorPoint: "AboveMark" -140 712 mark 0
LayerCount: 2
Back
SplineSet
-263 819 m 0
 -263 804 -253 791 -242 791 c 0
 -231 791 -221 804 -221 819 c 0
 -221 832 -231 844 -242 844 c 0
 -253 844 -263 832 -263 819 c 0
-298 819 m 0
 -298 850 -273 875 -242 875 c 0
 -211 875 -186 850 -186 819 c 0
 -186 810 -188 801 -194 794 c 0
 -198 780 -206 764 -222 746 c 1
 -138 761 -93 806 -78 869 c 1
 0 867 l 1
 -38 742 -150 696 -310 696 c 1
 -310 740 l 1
 -295 750 -284 759 -274 768 c 1
 -288 775 -298 795 -298 819 c 0
EndSplineSet
Fore
SplineSet
-242 815 m 0
 -237 815 -234 823 -234 831 c 0
 -234 837 -236 844 -243 844 c 0
 -248 844 -250 838 -250 832 c 0
 -250 824 -246 815 -242 815 c 0
-242 900 m 0
 -204 900 -174 869 -174 831 c 0
 -174 820 -181 799 -193 778 c 1
 -134 796 -102 834 -90 884 c 1
 -88 894 l 1
 17 891 l 1
 12 875 l 1
 -28 743 -146 696 -310 696 c 2
 -322 696 l 1
 -322 759 l 1
 -312 765 -304 771 -293 780 c 1
 -305 793 -310 813 -310 831 c 0
 -310 869 -280 900 -242 900 c 0
EndSplineSet
Validated: 1
MultipleSubs2: "Thai Tone Nikhahit Attachment" uni0E4D uni0E49
Substitution2: "Thai Tone Low Variant" uni0E49.low
Substitution2: "Thai Sara U Mai Tho Reordering" uni0E38
Substitution2: "Thai Sara UU Mai Tho Reordering" uni0E39
Substitution2: "Thai Phinthu Mai Tho Reordering" uni0E3A
EndChar

StartChar: uni0E4B
Encoding: 3659 3659 9
Width: 0
Flags: W
HStem: 774 86<-238 -188 -92 -42>
VStem: -188 96<724 774 860 914>
AnchorPoint: "AboveMark" -140 930 basemark 0
AnchorPoint: "AboveMark" -140 712 mark 0
LayerCount: 2
Back
SplineSet
-176 751 m 1
 -226 751 l 1
 -226 812 l 1
 -176 812 l 1
 -176 866 l 1
 -105 866 l 1
 -105 812 l 1
 -55 812 l 1
 -55 751 l 1
 -105 751 l 1
 -105 700 l 1
 -176 700 l 1
 -176 751 l 1
EndSplineSet
Fore
SplineSet
-188 774 m 1
 -238 774 l 1
 -238 860 l 1
 -188 860 l 1
 -188 914 l 1
 -92 914 l 1
 -92 860 l 1
 -42 860 l 1
 -42 774 l 1
 -92 774 l 1
 -92 724 l 1
 -188 724 l 1
 -188 774 l 1
EndSplineSet
Validated: 1
MultipleSubs2: "Thai Tone Nikhahit Attachment" uni0E4D uni0E4B
Substitution2: "Thai Tone Low Variant" uni0E4B.low
Substitution2: "Thai Sara U Mai Chattawa Reordering" uni0E38
Substitution2: "Thai Sara UU Mai Chattawa Reordering" uni0E39
Substitution2: "Thai Phinthu Mai Chattawa Reordering" uni0E3A
EndChar

StartChar: uni0E4C
Encoding: 3660 3660 10
Width: 0
Flags: W
HStem: 686 219
VStem: -224 60<746.607 769.446> -148 60<746.608 769.882> -98 88<861.408 893>
AnchorPoint: "AboveMark" -154 930 basemark 0
AnchorPoint: "AboveMark" -154 712 mark 0
LayerCount: 2
Back
SplineSet
-177 746 m 0
 -177 733 -167 721 -156 721 c 0
 -145 721 -135 733 -135 746 c 0
 -135 759 -145 770 -156 770 c 0
 -167 770 -177 759 -177 746 c 0
-115 783 m 1
 -106 773 -100 761 -100 746 c 0
 -100 713 -125 686 -156 686 c 0
 -187 686 -212 713 -212 746 c 0
 -212 761 -205 773 -195 785 c 0
 -171 821 -85 830 -85 879 c 1
 -22 870 l 1
 -22 820 -72 794 -115 783 c 1
EndSplineSet
Fore
SplineSet
-164 758 m 0xe0
 -164 750 -160 746 -156 746 c 0
 -150 746 -148 752 -148 757 c 0
 -148 763 -151 770 -156 770 c 0
 -158 770 -164 766 -164 758 c 0xe0
-224 758 m 0
 -224 839 -98 843 -98 891 c 2
 -98 905 l 1
 -10 893 l 1
 -10 882 l 2xd0
 -10 830 -55 801 -95 788 c 1
 -88 775 -88 761 -88 758 c 0
 -88 719 -117 686 -156 686 c 0
 -195 686 -224 719 -224 758 c 0
EndSplineSet
Validated: 1
MultipleSubs2: "Thai Tone Nikhahit Attachment" uni0E4D uni0E4C
Substitution2: "Thai Tone Low Variant" uni0E4C.low
Substitution2: "Thai Sara U Thanthakhat Reordering" uni0E38
Substitution2: "Thai Sara UU Thanthakhat Reordering" uni0E39
Substitution2: "Thai Phinthu Thanthakhat Reordering" uni0E3A
EndChar

StartChar: exclam
Encoding: 33 33 12
Width: 600
Flags: W
HStem: -15 132<242.406 358.047> 618 20G<277.5 324>
VStem: 225 150<3.02535 98.9747 269.766 617.854>
LayerCount: 2
Fore
SplineSet
379 525 m 2
 350 228 l 2
 347 197 329 179 301 179 c 0
 273 179 254 198 251 228 c 2
 222 525 l 2
 221 537 220 551 220 558 c 0
 220 604 254 638 301 638 c 0
 347 638 381 604 381 558 c 0
 381 552 380 538 379 525 c 2
309 -15 m 2
 292 -15 l 2
 255 -15 225 15 225 51 c 0
 225 87 255 117 292 117 c 2
 309 117 l 2
 346 117 375 88 375 51 c 0
 375 14 346 -15 309 -15 c 2
EndSplineSet
Validated: 1
EndChar

StartChar: quotedbl
Encoding: 34 34 13
Width: 600
Flags: W
HStem: 312 290<172.604 229.717 372.604 429.717>
VStem: 170 63<313.094 399.5> 370 63<313.094 399.5>
LayerCount: 2
Fore
SplineSet
136 602 m 1
 264 602 l 1
 233 348 l 2
 229 322 221 312 201 312 c 0
 182 312 173 322 170 347 c 2
 136 602 l 1
336 602 m 1
 464 602 l 1
 433 348 l 2
 429 322 421 312 401 312 c 0
 382 312 373 322 370 347 c 2
 336 602 l 1
EndSplineSet
Validated: 1
EndChar

StartChar: numbersign
Encoding: 35 35 14
Width: 600
Flags: W
HStem: 139 99<70.0315 154 261 326 432 510.46> 344 100<89.8394 168 276 340 447 530.677>
DStem2: 143 -22 242 -29 0.0714632 0.997443<-17.8362 161.374 267.768 366.851 474.313 660.767> 326 139 414 -29 0.0699502 0.99755<-183.134 0 106.172 205.477 312.717 499.171>
LayerCount: 2
Fore
SplineSet
447 444 m 1
 472 444 l 2
 515 444 538 429 538 394 c 0
 538 359 515 344 472 344 c 2
 440 344 l 1
 432 238 l 1
 451 238 l 2
 495 238 518 223 518 188 c 0
 518 154 494 139 452 139 c 2
 425 139 l 1
 414 -29 l 2
 411 -79 383 -92 362 -92 c 0
 336 -92 313 -69 313 -44 c 0
 313 -37 314 -30 315 -22 c 2
 315 -22 322 86 326 139 c 1
 254 139 l 1
 242 -29 l 2
 239 -70 228 -92 192 -92 c 0
 163 -92 142 -70 142 -40 c 0
 142 -36 142 -29 143 -22 c 2
 154 139 l 1
 128 139 l 2
 86 139 62 154 62 189 c 0
 62 223 85 238 128 238 c 2
 161 238 l 1
 168 344 l 1
 149 344 l 2
 105 344 82 359 82 394 c 0
 82 429 104 444 149 444 c 2
 175 444 l 1
 187 612 l 2
 190 653 203 675 238 675 c 0
 263 675 289 652 289 630 c 0
 289 629 289 628 289 627 c 2
 289 627 280 504 276 444 c 1
 347 444 l 1
 359 612 l 2
 362 653 375 675 410 675 c 0
 435 675 460 652 460 630 c 0
 460 629 460 628 460 627 c 2
 447 444 l 1
340 344 m 1
 269 344 l 1
 261 238 l 1
 333 238 l 1
 340 344 l 1
EndSplineSet
Validated: 1
EndChar

StartChar: dollar
Encoding: 36 36 15
Width: 600
Flags: W
HStem: -123 247<261.622 340.972> 34 195<92.7047 172.255> 417 164<418.513 486.295> 495 189<261.809 341.919>
VStem: 83 101<152.094 220.181> 107 104<397.964 473.692> 252 99<-115.642 31.2717 587.624 676.677> 394 102<425.524 480.853> 413 104<155.147 243.341>
DStem2: 286 377 259 280 0.980068 -0.198662<-75.626 145.819>
LayerCount: 2
Fore
SplineSet
446 581 m 0x2680
 482 581 496 554 496 515 c 2
 496 483 l 2
 496 439 481 417 446 417 c 0
 419 417 400 432 394 459 c 1x27
 391 478 351 495 310 495 c 0
 250 495 211 470 211 433 c 0
 211 406 235 387 286 377 c 2
 351 363 l 2
 397 353 517 330 517 199 c 0
 517 112 455 47 351 27 c 1
 351 -56 l 2
 351 -100 336 -123 302 -123 c 0x9680
 267 -123 252 -100 252 -56 c 2
 252 27 l 1
 210 36 205 38 173 52 c 1
 157 38 148 34 134 34 c 0
 99 34 83 57 83 101 c 2
 83 162 l 2
 83 206 98 229 133 229 c 0
 178 229 183 184 184 180 c 0x4a80
 192 149 245 124 300 124 c 0
 365 124 413 157 413 200 c 0
 413 235 389 254 333 265 c 2
 259 280 l 2
 160 300 107 354 107 435 c 0
 107 513 166 577 252 592 c 1
 252 618 l 2
 252 661 267 684 302 684 c 0x9680
 336 684 351 661 351 618 c 2
 351 592 l 1
 376 587 394 584 418 574 c 1
 429 579 437 581 446 581 c 0x2680
EndSplineSet
Validated: 1
EndChar

StartChar: percent
Encoding: 37 37 16
Width: 600
Flags: W
HStem: -15 65<317.383 419.461> 199 65<317.314 420.638> 338 65<177.539 279.617> 552 65<177.314 280.638>
VStem: 89 65<426.607 528.686> 229 65<73.6073 175.686> 303 65<426.09 529.208> 443 65<73.09 176.208>
DStem2: 110 272 129 213 0.950763 0.309917<-20.2934 400.737>
LayerCount: 2
Fore
SplineSet
228 617 m 0
 307 617 368 555 368 476 c 0
 368 401 305 338 229 338 c 0
 152 338 89 401 89 478 c 0
 89 554 152 617 228 617 c 0
228 552 m 0
 188 552 154 518 154 478 c 0
 154 437 188 403 228 403 c 0
 269 403 303 437 303 477 c 0
 303 519 270 552 228 552 c 0
491 331 m 2
 129 213 l 2
 122 211 113 209 109 209 c 0
 94 209 80 224 80 241 c 0
 80 257 88 265 110 272 c 2
 472 390 l 2
 484 394 486 394 492 394 c 0
 507 394 521 379 521 362 c 0
 521 346 513 338 491 331 c 2
368 264 m 0
 447 264 508 202 508 123 c 0
 508 48 445 -15 368 -15 c 0
 292 -15 229 48 229 125 c 0
 229 201 292 264 368 264 c 0
368 199 m 0
 328 199 294 165 294 125 c 0
 294 84 328 50 369 50 c 0
 409 50 443 84 443 124 c 0
 443 166 410 199 368 199 c 0
EndSplineSet
Validated: 1
EndChar

StartChar: ampersand
Encoding: 38 38 17
Width: 600
Flags: W
HStem: -14 100<189.021 311.432> 0 100<434 499.969> 450 100<247.277 338.197>
VStem: 75 100<100.542 198.22> 137 100<352.639 439.836>
LayerCount: 2
Fore
SplineSet
365 198 m 1xa8
 388 280 l 1
 441 280 l 2
 485 280 507 265 507 229 c 0
 507 203 488 182 464 180 c 1
 453 139 446 121 434 100 c 1
 442 100 l 2
 485 100 508 85 508 50 c 0
 508 15 484 0 442 0 c 2
 381 0 l 1x68
 370 15 l 1
 340 -6 310 -14 257 -14 c 0
 147 -14 75 48 75 144 c 0xb0
 75 211 109 267 171 303 c 1
 144 349 137 368 137 399 c 0
 137 480 208 550 289 550 c 0
 313 550 333 545 359 533 c 1
 371 537 380 540 387 540 c 0
 412 540 435 515 435 490 c 0
 435 467 426 456 394 438 c 2
 353 416 l 1
 324 442 310 450 290 450 c 0
 261 450 237 428 237 400 c 0
 237 389 246 370 265 343 c 2
 365 198 l 1xa8
312 100 m 1
 228 220 l 1
 193 204 175 177 175 144 c 0
 175 105 202 86 257 86 c 0xb0
 282 86 293 89 312 100 c 1
EndSplineSet
Validated: 1
EndChar

StartChar: quotesingle
Encoding: 39 39 18
Width: 600
Flags: W
HStem: 312 290<272.604 329.717>
VStem: 270 63<313.094 399.5>
LayerCount: 2
Fore
SplineSet
236 602 m 1
 364 602 l 1
 333 348 l 2
 329 322 321 312 301 312 c 0
 282 312 273 322 270 347 c 2
 236 602 l 1
EndSplineSet
Validated: 1
EndChar

StartChar: parenleft
Encoding: 40 40 19
Width: 600
Flags: W
HStem: 612 20G<426 451.5>
VStem: 264 111<99.9444 381.01>
LayerCount: 2
Fore
SplineSet
437 632 m 0
 466 632 488 610 488 583 c 0
 488 571 486 565 476 549 c 0
 406 437 375 341 375 240 c 0
 375 138 407 42 476 -70 c 0
 486 -86 488 -92 488 -104 c 0
 488 -131 466 -153 437 -153 c 0
 413 -153 400 -142 371 -95 c 0
 300 18 264 133 264 243 c 0
 264 350 307 478 380 587 c 0
 403 623 415 632 437 632 c 0
EndSplineSet
Validated: 1
EndChar

StartChar: parenright
Encoding: 41 41 20
Width: 600
Flags: W
HStem: 612 20G<153.5 180>
VStem: 230 111<97.9564 379.056>
LayerCount: 2
Fore
SplineSet
168 632 m 0
 192 632 205 621 234 574 c 0
 305 461 341 346 341 236 c 0
 341 129 298 1 225 -109 c 0
 202 -144 190 -153 168 -153 c 0
 139 -153 117 -131 117 -104 c 0
 117 -92 119 -86 129 -70 c 0
 199 42 230 138 230 239 c 0
 230 341 198 437 129 549 c 0
 119 565 117 571 117 583 c 0
 117 610 139 632 168 632 c 0
EndSplineSet
Validated: 1
EndChar

StartChar: asterisk
Encoding: 42 42 21
Width: 600
Flags: W
HStem: 602 20G<282.5 317.5>
VStem: 250 100<467 614.677>
DStem2: 219 372 248 242 0.585491 0.810679<-133.494 0> 381 372 300 314 0.585491 -0.810679<0 133.494>
LayerCount: 2
Fore
SplineSet
219 372 m 1
 133 400 l 2
 96 411 83 425 83 452 c 0
 83 479 105 502 130 502 c 0
 140 502 143 501 164 495 c 2
 250 467 l 1
 250 556 l 2
 250 599 265 622 300 622 c 0
 335 622 350 599 350 556 c 2
 350 467 l 1
 436 495 l 2
 457 501 460 502 469 502 c 0
 494 502 517 478 517 452 c 0
 517 426 503 411 467 400 c 2
 381 372 l 1
 433 301 l 2
 448 280 452 271 452 258 c 0
 452 231 429 208 402 208 c 0
 381 208 373 214 352 242 c 2
 300 314 l 1
 248 242 l 2
 228 214 218 208 198 208 c 0
 171 208 148 231 148 258 c 0
 148 271 152 279 167 301 c 2
 219 372 l 1
EndSplineSet
Validated: 1
EndChar

StartChar: plus
Encoding: 43 43 22
Width: 600
Flags: W
HStem: 0 21G<282.5 317.5> 230 100<49.323 250 350 550.642>
VStem: 250 100<7.32297 230 330 551.969>
LayerCount: 2
Fore
SplineSet
350 230 m 1
 350 66 l 2
 350 23 335 0 300 0 c 0
 265 0 250 23 250 66 c 2
 250 230 l 1
 108 230 l 2
 65 230 42 245 42 280 c 0
 42 315 65 330 108 330 c 2
 250 330 l 1
 250 494 l 2
 250 537 266 560 300 560 c 0
 335 560 350 538 350 494 c 2
 350 330 l 1
 491 330 l 2
 535 330 558 315 558 280 c 0
 558 245 535 230 491 230 c 2
 350 230 l 1
EndSplineSet
Validated: 1
EndChar

StartChar: comma
Encoding: 44 44 23
Width: 600
Flags: W
HStem: -158 292
VStem: 147 204
LayerCount: 2
Fore
SplineSet
219 134 m 1
 351 134 l 1
 210 -134 l 2
 202 -150 190 -158 178 -158 c 0
 161 -158 147 -145 147 -130 c 0
 147 -124 147 -122 150 -111 c 2
 219 134 l 1
EndSplineSet
Validated: 1
EndChar

StartChar: hyphen
Encoding: 45 45 24
Width: 600
Flags: W
HStem: 229 100<50.0315 550.201>
LayerCount: 2
Fore
SplineSet
492 229 m 2
 108 229 l 2
 65 229 42 244 42 279 c 0
 42 313 65 329 108 329 c 2
 492 329 l 2
 536 329 558 314 558 279 c 0
 558 244 535 229 492 229 c 2
EndSplineSet
Validated: 1
EndChar

StartChar: period
Encoding: 46 46 25
Width: 600
Flags: W
HStem: -15 132<242.303 358.047>
VStem: 225 150<3.02535 98.9747>
LayerCount: 2
Fore
SplineSet
309 -15 m 2
 291 -15 l 2
 255 -15 225 15 225 51 c 0
 225 87 255 117 291 117 c 2
 309 117 l 2
 346 117 375 88 375 51 c 0
 375 14 346 -15 309 -15 c 2
EndSplineSet
Validated: 1
EndChar

StartChar: slash
Encoding: 47 47 26
Width: 600
Flags: W
DStem2: 95 -27 185 -69 0.42631 0.904577<-39.0647 789.124>
LayerCount: 2
Fore
SplineSet
505 610 m 2
 185 -69 l 2
 170 -103 157 -113 133 -113 c 0
 107 -113 83 -90 83 -65 c 0
 83 -55 86 -45 95 -27 c 2
 416 651 l 2
 431 685 444 695 467 695 c 0
 494 695 517 672 517 647 c 0
 517 636 515 630 505 610 c 2
EndSplineSet
Validated: 1
EndChar

StartChar: zero
Encoding: 48 48 27
Width: 600
Flags: W
HStem: -15 100<240.262 359.582> 538 100<240.418 359.738>
VStem: 83 100<154.376 469.484> 417 100<153.516 468.624>
LayerCount: 2
Fore
SplineSet
300 638 m 0
 450 638 517 501 517 359 c 2
 517 264 l 2
 517 120 449 -15 300 -15 c 0
 150 -15 83 122 83 264 c 2
 83 359 l 2
 83 503 151 638 300 638 c 0
183 366 m 2
 183 257 l 2
 183 153 229 85 300 85 c 0
 371 85 417 153 417 257 c 2
 417 366 l 2
 417 470 371 538 300 538 c 0
 229 538 183 470 183 366 c 2
EndSplineSet
Validated: 1
EndChar

StartChar: one
Encoding: 49 49 28
Width: 600
Flags: W
HStem: 0 100<91.5239 250 350 508.736> 618 20G<272.909 350>
VStem: 250 100<100 509>
LayerCount: 2
Fore
SplineSet
149 0 m 2
 92 0 83 30 83 50 c 0
 83 85 105 100 149 100 c 2
 250 100 l 1
 250 509 l 1
 163 486 l 2
 144 481 141 480 131 480 c 0
 105 480 85 503 85 532 c 0
 85 561 98 573 138 583 c 2
 350 638 l 1
 350 100 l 1
 451 100 l 2
 494 100 517 85 517 50 c 0
 517 16 493 0 451 0 c 2
 149 0 l 2
EndSplineSet
Validated: 1
EndChar

StartChar: two
Encoding: 50 50 29
Width: 600
Flags: W
HStem: 0 154<416.965 498.968> 0 100<207 411.856> 538 100<213.418 361.934>
VStem: 403 100<100 142.813 396.902 499.568>
LayerCount: 2
Fore
SplineSet
503 444 m 0x70
 503 354 462 320 207 100 c 1
 408 100 l 1x70
 411 136 427 154 458 154 c 0xb0
 493 154 508 131 508 88 c 2
 508 0 l 1
 54 0 l 1
 54 105 l 1
 363 361 403 401 403 448 c 0
 403 499 353 538 288 538 c 0
 248 538 213 523 191 497 c 0
 165 466 175 422 124 422 c 0
 97 422 74 444 74 470 c 0
 74 521 140 638 290 638 c 0
 412 638 503 555 503 444 c 0x70
EndSplineSet
Validated: 1
EndChar

StartChar: three
Encoding: 51 51 30
Width: 600
Flags: W
HStem: -15 100<151.141 386.076> 287 96<232.543 369.826> 477 21G<130.5 170> 538 100<209.27 377.374>
VStem: 407 100<412.303 510.378> 429 100<124.373 237.139>
LayerCount: 2
Fore
SplineSet
116 120 m 0xf4
 156 120 135 85 268 85 c 0
 361 85 429 106 429 183 c 0xf4
 429 244 359 287 276 287 c 0
 243 287 224 306 224 333 c 0
 224 362 246 383 276 383 c 0
 358 383 407 408 407 462 c 0
 407 509 364 538 295 538 c 0
 180 538 196 477 144 477 c 0
 117 477 95 500 95 527 c 0
 95 585 194 638 301 638 c 0
 452 638 507 534 507 464 c 0xf8
 507 409 481 372 416 333 c 1
 492 296 529 246 529 182 c 0
 529 49 421 -15 271 -15 c 0
 148 -15 66 19 66 70 c 0
 66 98 88 120 116 120 c 0xf4
EndSplineSet
Validated: 1
EndChar

StartChar: four
Encoding: 52 52 31
Width: 600
Flags: W
HStem: 0 100<251.434 347 447 499.708> 138 100<197 347 447 499.708> 602 20G<303.98 447>
VStem: 243 265<10.0415 90.6895> 347 100<100 138 238 480>
DStem2: 75 221 197 238 0.515124 0.857116<77.4161 362.107>
LayerCount: 2
Fore
SplineSet
309 0 m 2xf0
 252 0 243 30 243 50 c 0xf0
 243 85 266 100 309 100 c 2
 347 100 l 1
 347 138 l 1
 75 138 l 1
 75 221 l 1
 316 622 l 1
 447 622 l 1
 447 238 l 1xe8
 486 238 508 220 508 188 c 0xf0
 508 156 487 139 447 138 c 1
 447 100 l 1xe8
 486 100 508 82 508 50 c 0
 508 16 485 0 441 0 c 2
 309 0 l 2xf0
347 238 m 1xe8
 347 480 l 1
 197 238 l 1
 347 238 l 1xe8
EndSplineSet
Validated: 1
EndChar

StartChar: five
Encoding: 53 53 32
Width: 600
Flags: W
HStem: -15 100<166.823 381.89> 282 340<129.237 216.969> 324 100<223.918 383.239> 522 100<219 479.677>
VStem: 119 100<407 522> 429 100<129.041 276.245>
LayerCount: 2
Fore
SplineSet
317 324 m 0xbc
 247 324 194 282 169 282 c 0xcc
 140 282 119 306 119 338 c 2
 119 622 l 1
 421 622 l 2
 464 622 487 607 487 572 c 0
 487 537 464 522 421 522 c 2
 219 522 l 1
 219 407 l 1
 255 418 289 424 318 424 c 0
 439 424 529 330 529 202 c 0
 529 58 431 -15 278 -15 c 0
 158 -15 66 28 66 84 c 0
 66 111 89 133 116 133 c 0
 164 133 141 85 277 85 c 0
 381 85 429 122 429 201 c 0
 429 275 384 324 317 324 c 0xbc
EndSplineSet
Validated: 1
EndChar

StartChar: six
Encoding: 54 54 33
Width: 600
Flags: W
HStem: -15 100<268.276 399.857> 294 100<275.691 396.629> 535 103<342.403 500.83>
VStem: 435 100<120.516 254.556>
LayerCount: 2
Fore
SplineSet
535 189 m 0
 535 69 462 -15 331 -15 c 0
 174 -15 105 118 105 285 c 0
 105 475 252 638 423 638 c 0
 493 638 540 612 540 573 c 0
 540 545 517 522 489 522 c 0
 476 522 446 535 429 535 c 0
 323 535 231 447 208 324 c 1
 256 375 294 394 345 394 c 0
 450 394 535 302 535 189 c 0
218 209 m 1
 233 122 269 85 334 85 c 0
 397 85 435 125 435 190 c 0
 435 248 392 294 338 294 c 0
 295 294 245 258 218 209 c 1
EndSplineSet
Validated: 1
EndChar

StartChar: seven
Encoding: 55 55 34
Width: 600
Flags: W
HStem: -1 21G<283.5 310> 468 154<84.032 166.035> 522 100<171.144 403>
DStem2: 253 81 349 48 0.317425 0.948283<-34.0637 465.807>
LayerCount: 2
Fore
SplineSet
403 522 m 1xa0
 175 522 l 1xa0
 172 486 156 468 125 468 c 0xc0
 90 468 75 491 75 534 c 2
 75 622 l 1
 508 622 l 1
 508 523 l 1
 349 48 l 2
 336 12 323 -1 297 -1 c 0
 270 -1 246 21 246 47 c 0
 246 56 248 64 253 81 c 2
 403 522 l 1xa0
EndSplineSet
Validated: 1
EndChar

StartChar: eight
Encoding: 56 56 35
Width: 600
Flags: W
HStem: -15 100<221.651 378.906> 263 101<226.052 372.819> 538 100<226.844 372.956>
VStem: 83 100<121.499 225.27> 92 100<396.545 505.695> 408 100<396.675 504.007> 417 100<121.386 225.157>
LayerCount: 2
Fore
SplineSet
420 319 m 1xec
 484 279 517 227 517 165 c 0
 517 58 429 -15 299 -15 c 0
 171 -15 83 58 83 165 c 0xf2
 83 227 116 279 180 319 c 1
 120 359 92 402 92 455 c 0
 92 557 184 638 300 638 c 0
 415 638 508 557 508 457 c 0
 508 402 480 359 420 319 c 1xec
300 538 m 0
 236 538 192 502 192 451 c 0
 192 400 237 364 300 364 c 0
 363 364 408 400 408 450 c 0xec
 408 502 364 538 300 538 c 0
300 263 m 0
 236 263 183 223 183 173 c 0
 183 122 232 85 300 85 c 0
 368 85 417 122 417 172 c 0xf2
 417 223 366 263 300 263 c 0
EndSplineSet
Validated: 1
EndChar

StartChar: nine
Encoding: 57 57 36
Width: 600
Flags: W
HStem: -15 103<145.17 303.597> 229 100<249.655 370.372> 538 100<246.328 377.724>
VStem: 111 100<368.444 502.29>
LayerCount: 2
Fore
SplineSet
111 434 m 0
 111 553 185 638 315 638 c 0
 472 638 541 505 541 338 c 0
 541 148 394 -15 223 -15 c 0
 153 -15 106 11 106 50 c 0
 106 78 129 101 157 101 c 0
 170 101 200 88 217 88 c 0
 323 88 415 176 438 299 c 1
 390 248 352 229 302 229 c 0
 196 229 111 321 111 434 c 0
428 414 m 1
 413 501 377 538 312 538 c 0
 249 538 211 498 211 433 c 0
 211 375 254 329 308 329 c 0
 351 329 401 365 428 414 c 1
EndSplineSet
Validated: 1
EndChar

StartChar: colon
Encoding: 58 58 37
Width: 600
Flags: W
HStem: -15 132<242.303 358.047> 304 133<242.303 358.047>
VStem: 225 150<3.02535 98.9747 322.025 418.861>
LayerCount: 2
Fore
SplineSet
309 -15 m 2
 291 -15 l 2
 255 -15 225 15 225 51 c 0
 225 87 255 117 291 117 c 2
 309 117 l 2
 346 117 375 88 375 51 c 0
 375 14 346 -15 309 -15 c 2
309 304 m 2
 291 304 l 2
 255 304 225 334 225 370 c 0
 225 407 255 437 291 437 c 2
 309 437 l 2
 346 437 375 408 375 370 c 0
 375 333 346 304 309 304 c 2
EndSplineSet
Validated: 1
EndChar

StartChar: semicolon
Encoding: 59 59 38
Width: 600
Flags: W
HStem: 304 133<218.083 333.917>
VStem: 201 150<322 418.875>
LayerCount: 2
Fore
SplineSet
219 134 m 1
 351 134 l 1
 210 -134 l 2
 202 -150 190 -158 178 -158 c 0
 161 -158 147 -145 147 -130 c 0
 147 -124 147 -122 150 -111 c 2
 219 134 l 1
276 437 m 0
 322 437 351 411 351 370 c 0
 351 330 321 304 276 304 c 0
 231 304 201 331 201 371 c 0
 201 410 231 437 276 437 c 0
EndSplineSet
Validated: 1
EndChar

StartChar: less
Encoding: 60 60 39
Width: 600
Flags: W
DStem2: 251 279 42 280 0.89276 -0.450532<0 325.115> 42 280 251 279 0.896916 0.442201<187.013 509.969>
LayerCount: 2
Fore
SplineSet
502 501 m 0
 527 501 544 473 544 455 c 0
 544 436 535 424 512 412 c 2
 251 279 l 1
 512 143 l 2
 535 131 544 119 544 100 c 0
 544 84 528 54 502 54 c 0
 494 54 483 57 472 63 c 2
 42 280 l 1
 472 492 l 2
 484 498 494 501 502 501 c 0
EndSplineSet
Validated: 1
EndChar

StartChar: equal
Encoding: 61 61 40
Width: 600
Flags: W
HStem: 138 100<50.4967 550.677> 322 100<50.4967 550.677>
LayerCount: 2
Fore
SplineSet
108 422 m 2
 492 422 l 2
 535 422 558 407 558 372 c 0
 558 337 535 322 492 322 c 2
 108 322 l 2
 67 322 42 338 42 372 c 0
 42 407 65 422 108 422 c 2
108 238 m 2
 492 238 l 2
 535 238 558 223 558 188 c 0
 558 153 535 138 492 138 c 2
 108 138 l 2
 67 138 42 154 42 188 c 0
 42 223 65 238 108 238 c 2
EndSplineSet
Validated: 1
EndChar

StartChar: greater
Encoding: 62 62 41
Width: 600
Flags: W
DStem2: 128 491 88 412 0.89276 -0.450532<-30.4999 294.615> 349 275 558 274 0.896916 0.442201<-322.997 0>
LayerCount: 2
Fore
SplineSet
98 53 m 0
 73 53 56 81 56 100 c 0
 56 118 65 130 88 142 c 2
 349 275 l 1
 88 412 l 2
 65 423 56 435 56 453 c 0
 56 474 75 500 98 500 c 0
 106 500 117 497 128 491 c 2
 558 274 l 1
 128 62 l 2
 116 56 105 53 98 53 c 0
EndSplineSet
Validated: 1
EndChar

StartChar: question
Encoding: 63 63 42
Width: 600
Flags: W
HStem: -15 132<244.406 360.047> 498 100<208.908 384.245>
VStem: 104 100<402.031 483.352> 227 150<3.02535 98.9747> 417 100<368.687 465.411>
LayerCount: 2
Fore
SplineSet
104 460 m 2
 104 539 l 1
 200 585 244 598 308 598 c 0
 432 598 517 521 517 409 c 0
 517 328 474 281 353 228 c 1
 349 192 332 174 303 174 c 0
 268 174 253 197 253 240 c 2
 253 296 l 1
 381 345 417 371 417 414 c 0
 417 464 373 498 309 498 c 0
 271 498 237 490 204 474 c 1
 204 460 l 2
 204 417 188 394 154 394 c 0
 119 394 104 417 104 460 c 2
311 -15 m 2
 294 -15 l 2
 257 -15 227 15 227 51 c 0
 227 87 257 117 294 117 c 2
 311 117 l 2
 348 117 377 88 377 51 c 0
 377 14 348 -15 311 -15 c 2
EndSplineSet
Validated: 1
EndChar

StartChar: at
Encoding: 64 64 43
Width: 600
Flags: W
HStem: -152 78<235.925 393.164> 72 81<320.218 407> 316 81<338.964 407> 541 79<237.209 366.745>
VStem: 76 79<31.0778 435.057> 218 79<176.75 277.214> 407 79<153.017 316 394.783 496.881>
LayerCount: 2
Fore
SplineSet
305 -74 m 0
 409 -74 406 -25 439 -25 c 0
 461 -25 479 -43 479 -66 c 0
 479 -113 397 -152 302 -152 c 0
 152 -152 76 -8 76 154 c 2
 76 323 l 2
 76 495 171 620 301 620 c 0
 409 620 486 540 486 429 c 2
 486 148 l 1
 502 141 509 130 509 113 c 0
 509 85 491 72 454 72 c 2
 407 72 l 1
 407 75 l 1
 392 73 383 72 374 72 c 0
 289 72 218 143 218 226 c 0
 218 319 295 389 407 397 c 1
 407 429 l 2
 407 495 364 541 302 541 c 0
 218 541 155 445 155 317 c 2
 155 161 l 2
 155 48 194 -74 305 -74 c 0
407 155 m 1
 407 316 l 1
 341 310 297 274 297 225 c 0
 297 184 333 153 381 153 c 0
 388 153 393 153 407 155 c 1
EndSplineSet
Validated: 1
EndChar

StartChar: A
Encoding: 65 65 44
Width: 600
Flags: W
HStem: 0 100<-12.9279 46 155 235.969 358.524 439 553 613.389> 158 100<218 375> 483 100<78.8394 201>
VStem: -21 265<9.70469 90.968> 350 271<9.767 90.6322>
DStem2: 46 100 155 100 0.375143 0.926967<40.8906 103.283 210.985 413.175> 354 583 297 450 0.380942 -0.924599<101.258 308.494 416.573 478.961>
LayerCount: 2
Fore
SplineSet
416 0 m 2
 359 0 350 30 350 50 c 0
 350 85 372 100 416 100 c 2
 439 100 l 1
 416 158 l 1
 178 158 l 1
 155 100 l 1
 178 100 l 2
 221 100 244 85 244 50 c 0
 244 15 220 0 178 0 c 2
 45 0 l 2
 1 0 -21 17 -21 50 c 0
 -21 85 2 100 46 100 c 1
 201 483 l 1
 138 483 l 2
 95 483 71 498 71 533 c 0
 71 568 93 583 138 583 c 2
 354 583 l 1
 553 100 l 1
 597 100 621 86 621 50 c 0
 621 15 597 0 555 0 c 2
 416 0 l 2
375 258 m 1
 297 450 l 1
 218 258 l 1
 375 258 l 1
EndSplineSet
Validated: 1
EndChar

StartChar: B
Encoding: 66 66 45
Width: 600
Flags: W
HStem: 0 100<21.4338 94 194 454.562> 242 100<194 394.494> 483 100<21.0315 94 194 405.827>
VStem: 94 100<100 242 342 483> 428 100<372.854 461.086> 471 100<116.808 202.541>
LayerCount: 2
Fore
SplineSet
79 0 m 2xf4
 22 0 13 30 13 50 c 0
 13 85 36 100 79 100 c 2
 94 100 l 1
 94 483 l 1
 79 483 l 2
 36 483 13 499 13 533 c 0
 13 568 37 583 79 583 c 2
 332 583 l 2
 445 583 528 513 528 418 c 0xf8
 528 372 509 339 465 305 c 1
 537 269 571 223 571 160 c 0
 571 64 492 0 374 0 c 2
 79 0 l 2xf4
194 342 m 1
 307 342 l 2
 379 342 428 373 428 419 c 0
 428 459 390 483 327 483 c 2
 194 483 l 1
 194 342 l 1
471 154 m 0xf4
 471 187 440 242 329 242 c 2
 194 242 l 1
 194 100 l 1
 369 100 l 2
 437 100 471 118 471 154 c 0xf4
EndSplineSet
Validated: 1
EndChar

StartChar: C
Encoding: 67 67 46
Width: 600
Flags: W
HStem: -14 100<222.866 436.647> 367 216<459.427 539.968> 497 100<222.847 400.623>
VStem: 33 100<168.419 400.438> 450 99<374.541 456.205>
LayerCount: 2
Fore
SplineSet
447 563 m 1xb8
 457 559 l 1
 470 577 482 583 499 583 c 0
 534 583 549 560 549 517 c 2
 549 433 l 2
 549 390 534 367 499 367 c 0xd8
 466 367 457 385 450 420 c 0
 440 469 370 497 309 497 c 0
 207 497 133 420 133 315 c 2
 133 251 l 2
 133 151 210 86 330 86 c 0
 438 86 461 126 478 143 c 0
 489 154 501 159 514 159 c 0
 541 159 564 136 564 109 c 0
 564 60 475 -14 327 -14 c 0
 157 -14 33 97 33 249 c 2
 33 315 l 2
 33 475 151 597 305 597 c 0
 357 597 392 589 447 563 c 1xb8
EndSplineSet
Validated: 1
EndChar

StartChar: D
Encoding: 68 68 47
Width: 600
Flags: W
HStem: 0 100<21.5401 74 174 379.903> 483 100<21.2919 74 174 370.025>
VStem: 74 100<100 483> 450 100<171.261 395.503>
LayerCount: 2
Fore
SplineSet
74 100 m 1
 74 483 l 1
 35 483 13 501 13 533 c 0
 13 568 35 583 80 583 c 2
 292 583 l 2
 438 583 550 462 550 305 c 2
 550 258 l 2
 550 103 442 0 284 0 c 2
 80 0 l 2
 38 0 13 16 13 50 c 0
 13 82 36 100 74 100 c 1
450 307 m 2
 450 368 417 483 284 483 c 2
 174 483 l 1
 174 100 l 1
 285 100 l 2
 391 100 450 158 450 261 c 2
 450 307 l 2
EndSplineSet
Validated: 1
EndChar

StartChar: E
Encoding: 69 69 48
Width: 600
Flags: W
HStem: 0 219<459.032 540.968> 0 100<21.4967 94 194 450> 170 246<288.032 367.7> 243 99<194 279> 366 217<437.032 518.968> 483 100<20.7988 94 194 428>
VStem: 94 100<100 243 342 483> 279 99<177.323 243 342 407.695> 428 100<373.358 483> 450 100<100 211.161>
LayerCount: 2
Fore
SplineSet
328 416 m 0x2380
 363 416 378 389 378 349 c 2
 378 236 l 2
 378 193 363 170 329 170 c 0x2380
 294 170 279 193 279 236 c 2
 279 243 l 1
 194 243 l 1
 194 100 l 1
 450 100 l 1x5340
 450 152 l 2
 450 197 465 219 500 219 c 0x8340
 535 219 550 196 550 152 c 2
 550 0 l 1x4340
 79 0 l 2
 38 0 13 16 13 50 c 0
 13 84 36 100 79 100 c 2
 94 100 l 1
 94 483 l 1
 79 483 l 2
 36 483 13 498 13 533 c 0
 13 568 35 583 79 583 c 2
 528 583 l 1x4780
 528 433 l 2
 528 389 513 366 478 366 c 0x0b80
 443 366 428 389 428 433 c 2
 428 483 l 1
 194 483 l 1
 194 342 l 1
 279 342 l 1x1780
 279 349 l 2
 279 392 294 416 328 416 c 0x2380
EndSplineSet
Validated: 1
EndChar

StartChar: F
Encoding: 70 70 49
Width: 600
Flags: W
HStem: 0 100<21.4967 94 194 351.736> 169 246<288.032 369.052> 243 99<194 279> 366 217<459.355 540.968> 483 100<20.7988 94 194 450>
VStem: 94 100<100 243 342 483> 279 99<176.575 243 342 407.677> 450 100<374.031 483>
LayerCount: 2
Fore
SplineSet
360 50 m 0xa7
 360 16 336 0 294 0 c 2
 79 0 l 2
 38 0 13 16 13 50 c 0
 13 85 36 100 79 100 c 2
 94 100 l 1
 94 483 l 1
 79 483 l 2
 36 483 13 498 13 533 c 0
 13 568 35 583 79 583 c 2
 550 583 l 1xaf
 550 432 l 2
 550 389 535 366 500 366 c 0x97
 466 366 450 389 450 432 c 2
 450 483 l 1
 194 483 l 1
 194 342 l 1
 279 342 l 1xaf
 279 349 l 2
 279 392 294 415 329 415 c 0
 363 415 378 392 378 349 c 2
 378 236 l 2
 378 193 363 169 329 169 c 0xc7
 294 169 279 193 279 236 c 2
 279 243 l 1
 194 243 l 1
 194 100 l 1
 294 100 l 2
 338 100 360 85 360 50 c 0xa7
EndSplineSet
Validated: 1
EndChar

StartChar: G
Encoding: 71 71 50
Width: 600
Flags: W
HStem: -14 100<214.078 442.803> 180 100<292.264 450> 387 210<468.211 540.968> 497 100<223.789 420.391>
VStem: 33 100<164.424 406.66> 450 100<102.38 180 396.281 469.936>
LayerCount: 2
Fore
SplineSet
318 497 m 0xdc
 170 497 133 383 133 317 c 2
 133 253 l 2
 133 133 206 86 325 86 c 0
 373 86 412 94 450 111 c 1
 450 180 l 1
 350 180 l 2
 308 180 284 196 284 230 c 0
 284 265 307 280 350 280 c 2
 525 280 l 2
 569 280 592 265 592 230 c 0
 592 205 578 188 550 180 c 1
 550 48 l 1
 461 1 409 -14 331 -14 c 0
 153 -14 33 73 33 246 c 2
 33 317 l 2
 33 441 121 597 317 597 c 0xdc
 371 597 420 586 462 565 c 1
 474 589 484 597 503 597 c 0
 532 597 550 583 550 531 c 2
 550 453 l 2
 550 409 535 387 500 387 c 0xec
 457 387 454 429 451 440 c 0
 441 475 391 497 318 497 c 0xdc
EndSplineSet
Validated: 1
EndChar

StartChar: H
Encoding: 72 72 51
Width: 600
Flags: W
HStem: 0 100<30.323 95 195 267.969 336.031 409 509 573.201> 241 100<195 409> 483 100<51.3995 95 195 268.201 335.323 409 509 552.476>
VStem: 23 253<9.03198 90.968> 43 233<492.492 573.968> 95 100<100 241 341 483> 328 253<9.35498 90.968> 328 233<492.492 573.968> 409 100<100 241 341 483>
LayerCount: 2
Fore
SplineSet
409 241 m 1xe080
 195 241 l 1
 195 100 l 1xe480
 210 100 l 2
 253 100 276 85 276 50 c 0
 276 15 252 0 210 0 c 2
 89 0 l 2
 46 0 23 15 23 50 c 0xf0
 23 85 46 100 89 100 c 2
 95 100 l 1
 95 483 l 1xe4
 62 486 43 504 43 533 c 0
 43 568 66 583 109 583 c 2
 210 583 l 2
 254 583 276 568 276 533 c 0xe8
 276 498 253 483 210 483 c 2
 195 483 l 1
 195 341 l 1
 409 341 l 1
 409 483 l 1xe480
 394 483 l 2
 351 483 328 498 328 533 c 0
 328 568 351 583 394 583 c 2
 495 583 l 2
 539 583 561 568 561 533 c 0xe1
 561 504 542 486 509 483 c 1
 509 100 l 1xe080
 515 100 l 2
 559 100 581 85 581 50 c 0
 581 15 557 0 515 0 c 2
 394 0 l 2
 351 0 328 16 328 50 c 0xe2
 328 85 351 100 394 100 c 2
 409 100 l 1
 409 241 l 1xe080
EndSplineSet
Validated: 1
EndChar

StartChar: I
Encoding: 73 73 52
Width: 600
Flags: W
HStem: 0 100<91.5239 250 350 509.201> 483 100<90.7988 250 350 509.201>
VStem: 250 100<100 483>
LayerCount: 2
Fore
SplineSet
149 0 m 2
 92 0 83 30 83 50 c 0
 83 85 105 100 149 100 c 2
 250 100 l 1
 250 483 l 1
 149 483 l 2
 106 483 83 498 83 533 c 0
 83 568 105 583 149 583 c 2
 451 583 l 2
 495 583 517 568 517 533 c 0
 517 498 494 483 451 483 c 2
 350 483 l 1
 350 100 l 1
 451 100 l 2
 495 100 517 85 517 50 c 0
 517 17 495 0 451 0 c 2
 149 0 l 2
EndSplineSet
Validated: 1
EndChar

StartChar: J
Encoding: 74 74 53
Width: 600
Flags: W
HStem: -14 100<176.735 350.108> 483 100<212.799 390 490 605.201>
VStem: 54 100<107.624 272.642> 390 100<128.441 483>
LayerCount: 2
Fore
SplineSet
490 483 m 1
 490 187 l 2
 490 66 390 -14 269 -14 c 0
 212 -14 145 6 54 51 c 1
 54 213 l 2
 54 257 69 280 104 280 c 0
 139 280 154 257 154 213 c 2
 154 117 l 1
 203 95 237 86 271 86 c 0
 341 86 390 120 390 198 c 2
 390 483 l 1
 271 483 l 2
 228 483 205 498 205 533 c 0
 205 568 227 583 271 583 c 2
 547 583 l 2
 591 583 613 568 613 533 c 0
 613 498 590 483 547 483 c 2
 490 483 l 1
EndSplineSet
Validated: 1
EndChar

StartChar: K
Encoding: 75 75 54
Width: 600
Flags: W
HStem: 0 100<21.4338 94 194 286.736 495.192 593.736> 483 100<20.7988 94 194 287.201 511 565.201>
VStem: 94 100<100 208 334 483> 341 232<492.002 573.295>
DStem2: 194 334 335 330 0.755374 0.655293<0 5.46403 103.887 234.717>
LayerCount: 2
Fore
SplineSet
295 50 m 0
 295 16 271 0 229 0 c 2
 79 0 l 2
 22 0 13 30 13 50 c 0
 13 85 36 100 79 100 c 2
 94 100 l 1
 94 483 l 1
 79 483 l 2
 36 483 13 498 13 533 c 0
 13 568 35 583 79 583 c 2
 229 583 l 2
 273 583 295 568 295 533 c 0
 295 498 272 483 229 483 c 2
 194 483 l 1
 194 334 l 1
 372 487 l 1
 351 495 341 509 341 532 c 0
 341 569 368 583 407 583 c 2
 507 583 l 2
 551 583 573 568 573 533 c 0
 573 500 552 483 511 483 c 1
 335 330 l 1
 396 298 458 215 504 100 c 1
 536 100 l 2
 579 100 602 85 602 50 c 0
 602 16 578 0 536 0 c 2
 426 0 l 1
 379 143 315 240 254 259 c 1
 194 208 l 1
 194 100 l 1
 229 100 l 2
 272 100 295 85 295 50 c 0
EndSplineSet
Validated: 1
EndChar

StartChar: L
Encoding: 76 76 55
Width: 600
Flags: W
HStem: 0 259<480.032 561.968> 0 100<41.5239 156 256 471> 483 100<40.7988 156 256 371.677>
VStem: 156 100<100 483> 471 100<100 251.642>
LayerCount: 2
Fore
SplineSet
99 0 m 2x78
 42 0 33 30 33 50 c 0
 33 85 55 100 99 100 c 2
 156 100 l 1
 156 483 l 1
 99 483 l 2
 56 483 33 498 33 533 c 0
 33 568 55 583 99 583 c 2
 313 583 l 2
 356 583 379 568 379 533 c 0
 379 498 356 483 313 483 c 2
 256 483 l 1
 256 100 l 1
 471 100 l 1x78
 471 192 l 2
 471 236 486 259 521 259 c 0xb8
 556 259 571 236 571 192 c 2
 571 0 l 1
 99 0 l 2x78
EndSplineSet
Validated: 1
EndChar

StartChar: M
Encoding: 77 77 56
Width: 600
Flags: W
HStem: 0 100<-10.7081 42 142 234.736 369.524 462 562 614.708> 483 100<-1.60051 42 562 605.476>
VStem: -19 262<9.70469 90.6895> 42 100<100 389> 361 262<10.0415 90.6895> 462 100<100 389>
DStem2: 303 286 142 389 0.42138 -0.906884<-161.251 0> 303 286 351 138 0.413803 0.910366<0 159.562>
LayerCount: 2
Fore
SplineSet
427 0 m 2xc8
 370 0 361 30 361 50 c 0xc8
 361 85 383 100 427 100 c 2
 462 100 l 1
 462 389 l 1
 351 138 l 1
 260 138 l 1
 142 389 l 1
 142 100 l 1xd4
 177 100 l 2
 221 100 243 85 243 50 c 0
 243 16 219 0 177 0 c 2
 48 0 l 2
 6 0 -19 15 -19 50 c 0xe0
 -19 82 3 100 42 100 c 1
 42 483 l 1
 9 486 -10 504 -10 534 c 0
 -10 565 14 583 52 583 c 2
 165 583 l 1
 303 286 l 1
 438 583 l 1
 548 583 l 2
 592 583 614 568 614 533 c 0
 614 504 595 486 562 483 c 1
 562 100 l 1xd4
 601 100 623 82 623 50 c 0
 623 16 599 0 557 0 c 2
 427 0 l 2xc8
EndSplineSet
Validated: 1
EndChar

StartChar: N
Encoding: 78 78 57
Width: 600
Flags: W
HStem: 0 100<20.2919 73 173 265.736> 483 100<-0.201172 73 337.799 431 531 583.956>
VStem: 12 262<9.70469 90.6895> 73 100<100 394> 330 262<492.032 573.968> 431 100<191 483>
DStem2: 173 583 173 394 0.549305 -0.835622<157.933 469.284>
LayerCount: 2
Fore
SplineSet
173 394 m 1xd4
 173 100 l 1xd4
 208 100 l 2
 252 100 274 85 274 50 c 0
 274 16 250 0 208 0 c 2
 79 0 l 2
 37 0 12 15 12 50 c 0xe0
 12 82 34 100 73 100 c 1
 73 483 l 1
 58 483 l 2
 15 483 -8 498 -8 533 c 0
 -8 568 14 583 58 583 c 2
 173 583 l 1
 431 191 l 1
 431 483 l 1xd4
 396 483 l 2
 353 483 330 498 330 533 c 0
 330 568 352 583 396 583 c 2
 526 583 l 2
 569 583 592 568 592 533 c 0xc8
 592 501 571 483 531 483 c 1
 531 0 l 1
 432 0 l 1
 173 394 l 1xd4
EndSplineSet
Validated: 1
EndChar

StartChar: O
Encoding: 79 79 58
Width: 600
Flags: W
HStem: -14 100<223.211 376.218> 497 100<223.211 377.173>
VStem: 21 100<194.003 385.854> 479 100<195.749 386.892>
LayerCount: 2
Fore
SplineSet
300 597 m 0
 421 597 579 497 579 287 c 0
 579 123 452 -14 300 -14 c 0
 146 -14 21 123 21 292 c 0
 21 460 146 597 300 597 c 0
300 497 m 0
 202 497 121 404 121 292 c 0
 121 179 202 86 300 86 c 0
 397 86 479 179 479 289 c 0
 479 404 399 497 300 497 c 0
EndSplineSet
Validated: 1
EndChar

StartChar: P
Encoding: 80 80 59
Width: 600
Flags: W
HStem: 0 100<21.4338 94 194 350.736> 200 100<194 387.25> 483 100<21.0315 94 194 389.477>
VStem: 94 100<100 200 300 483> 423 106<332.952 449.25>
LayerCount: 2
Fore
SplineSet
359 50 m 0
 359 16 335 0 293 0 c 2
 79 0 l 2
 22 0 13 30 13 50 c 0
 13 85 36 100 79 100 c 2
 94 100 l 1
 94 483 l 1
 79 483 l 2
 36 483 13 499 13 533 c 0
 13 568 35 583 79 583 c 2
 312 583 l 2
 439 583 529 505 529 394 c 0
 529 266 430 200 292 200 c 2
 194 200 l 1
 194 100 l 1
 293 100 l 2
 336 100 359 85 359 50 c 0
194 483 m 1
 194 300 l 1
 312 300 l 2
 381 300 423 335 423 391 c 0
 423 448 381 483 312 483 c 2
 194 483 l 1
EndSplineSet
Validated: 1
EndChar

StartChar: Q
Encoding: 81 81 60
Width: 600
Flags: W
HStem: -145 100<362.048 496.309> -117 92<268.437 402.526> -33 20G<511 540.5> -7 92<269.956 376.276> 497 100<223.211 376.83>
VStem: 21 100<195.965 385.691> 479 100<193.992 385.74>
LayerCount: 2
Fore
SplineSet
319 -117 m 0x5e
 274 -117 177 -143 165 -143 c 0
 139 -143 117 -119 117 -91 c 0
 117 -76 121 -68 137 -53 c 2
 199 7 l 1
 85 72 21 141 21 292 c 0
 21 460 146 597 300 597 c 0
 453 597 579 460 579 294 c 0
 579 141 470 -7 289 -7 c 0
 287 -7 279 -7 271 -6 c 1
 267 -30 l 1
 291 -26 303 -25 318 -25 c 0x5e
 376 -25 411 -45 443 -45 c 0
 482 -45 496 -13 526 -13 c 0
 555 -13 577 -35 577 -63 c 0
 577 -111 485 -145 444 -145 c 0xbe
 389 -145 376 -117 319 -117 c 0x5e
300 497 m 0
 202 497 121 404 121 291 c 0
 121 179 202 85 300 85 c 0
 397 85 479 178 479 288 c 0
 479 404 399 497 300 497 c 0
EndSplineSet
Validated: 1
EndChar

StartChar: R
Encoding: 82 82 61
Width: 600
Flags: W
HStem: 0 100<21.4338 94 194 286.736 526.379 610.736> 222 100<194 321.012> 483 100<20.7988 94 194 381.047>
VStem: 13 282<10.0415 90.968> 94 100<100 222 322 483> 416 106<362.689 452.635>
LayerCount: 2
Fore
SplineSet
295 50 m 0xf4
 295 16 271 0 229 0 c 2
 79 0 l 2
 22 0 13 30 13 50 c 0xf4
 13 85 36 100 79 100 c 2
 94 100 l 1
 94 483 l 1xec
 79 483 l 2
 36 483 13 498 13 533 c 0xf4
 13 568 35 583 79 583 c 2
 302 583 l 2
 432 583 522 510 522 405 c 0
 522 342 487 294 414 254 c 1
 461 213 498 167 540 100 c 1
 553 100 l 2
 596 100 619 86 619 50 c 0
 619 16 595 0 553 0 c 2
 474 0 l 1
 424 97 332 207 290 222 c 1
 194 222 l 1
 194 100 l 1xec
 229 100 l 2
 273 100 295 85 295 50 c 0xf4
194 322 m 1xec
 270 322 l 2
 354 322 416 358 416 408 c 0
 416 451 370 483 306 483 c 2
 194 483 l 1
 194 322 l 1xec
EndSplineSet
Validated: 1
EndChar

StartChar: S
Encoding: 83 83 62
Width: 600
Flags: W
HStem: -14 100<207.044 393.852> 1 198<71.032 150.673> 376 221<434.606 508.052> 497 100<220.8 384.026>
VStem: 62 101<121.364 190.228> 82 104<376.997 465.38> 418 99<384.072 464.681> 434 104<121.623 204.612>
LayerCount: 2
Fore
SplineSet
517 531 m 2x26
 517 443 l 2
 517 399 502 376 468 376 c 0
 422 376 421 417 418 430 c 0x26
 409 470 361 497 299 497 c 0
 236 497 186 464 186 421 c 0
 186 364 257 352 311 342 c 0
 421 322 538 288 538 160 c 0
 538 56 446 -14 309 -14 c 0x95
 255 -14 202 -1 153 25 c 1
 136 5 129 1 113 1 c 0
 78 1 62 22 62 67 c 2
 62 133 l 2
 62 176 77 199 112 199 c 0
 156 199 161 159 163 151 c 0x49
 173 115 236 86 302 86 c 0
 376 86 434 119 434 162 c 0
 434 218 366 228 291 242 c 0
 185 262 82 296 82 420 c 0
 82 521 175 597 299 597 c 0x95
 350 597 394 586 429 564 c 1
 439 589 448 597 468 597 c 0
 504 597 517 575 517 531 c 2x26
EndSplineSet
Validated: 1
EndChar

StartChar: T
Encoding: 84 84 63
Width: 600
Flags: W
HStem: 0 100<126.757 249 349 472.736> 324 259<51.032 132.968 467.032 548.968> 483 100<142 249 349 458>
VStem: 42 100<331.323 483> 249 100<100 483> 458 100<331.799 483>
LayerCount: 2
Fore
SplineSet
481 50 m 0xbc
 481 16 457 0 415 0 c 2
 184 0 l 2
 128 0 118 30 118 50 c 0
 118 85 140 100 184 100 c 2
 249 100 l 1
 249 483 l 1
 142 483 l 1xbc
 142 390 l 2
 142 347 127 324 92 324 c 0xdc
 57 324 42 347 42 390 c 2
 42 583 l 1
 558 583 l 1xbc
 558 390 l 2
 558 346 543 324 508 324 c 0xdc
 473 324 458 348 458 390 c 2
 458 483 l 1
 349 483 l 1
 349 100 l 1
 415 100 l 2
 458 100 481 85 481 50 c 0xbc
EndSplineSet
Validated: 1
EndChar

StartChar: U
Encoding: 85 85 64
Width: 600
Flags: W
HStem: -14 100<224.39 375.41> 483 100<18.0436 71 171 264.201 335.799 429 529 581.956>
VStem: 10 262<492.074 573.968> 71 100<139.724 483> 328 262<492.032 573.968> 429 100<139.017 483>
LayerCount: 2
Fore
SplineSet
300 -14 m 0xc4
 185 -14 71 69 71 205 c 2
 71 483 l 1xd4
 31 484 10 501 10 533 c 0
 10 568 33 583 76 583 c 2
 206 583 l 2
 250 583 272 569 272 533 c 0xe0
 272 498 249 483 206 483 c 2
 171 483 l 1
 171 196 l 2
 171 135 229 86 300 86 c 0
 371 86 429 135 429 196 c 2
 429 483 l 1xd4
 394 483 l 2
 351 483 328 498 328 533 c 0
 328 568 350 583 394 583 c 2
 524 583 l 2
 568 583 590 568 590 533 c 0xc8
 590 501 569 483 529 483 c 1
 529 205 l 2
 529 67 414 -14 300 -14 c 0xc4
EndSplineSet
Validated: 1
EndChar

StartChar: V
Encoding: 86 86 65
Width: 600
Flags: W
HStem: 0 21G<240.636 356.489> 483 100<-12.9553 47 159 236.677 364.799 447 553 612.955>
VStem: -21 265<492.032 573.968> 357 264<492.032 573.968>
DStem2: 159 483 47 483 0.385836 -0.922567<0 368.311> 303 144 348 0 0.390697 0.920519<0 368.316>
LayerCount: 2
Fore
SplineSet
303 144 m 1
 447 483 l 1
 423 483 l 2
 380 483 357 498 357 533 c 0
 357 568 379 583 423 583 c 2
 555 583 l 2
 598 583 621 568 621 533 c 0
 621 496 595 483 553 483 c 1
 348 0 l 1
 249 0 l 1
 47 483 l 1
 5 483 -21 496 -21 533 c 0
 -21 568 1 583 45 583 c 2
 178 583 l 2
 221 583 244 568 244 533 c 0
 244 498 221 483 178 483 c 2
 159 483 l 1
 303 144 l 1
EndSplineSet
Validated: 1
EndChar

StartChar: W
Encoding: 87 87 66
Width: 600
Flags: W
HStem: 0 21G<95.4327 215.57 386.285 505.484> 417 20G<244.274 361.726> 483 100<-2.21222 36 139 246.642 354.799 466 563 601.476>
VStem: -10 264<492.032 573.968> 347 263<492.032 573.968>
DStem2: 139 483 36 483 0.12732 -0.991862<0 274.37> 431 211 503 0 0.123276 0.992372<0 274.24>
LayerCount: 2
Fore
SplineSet
300 277 m 1
 209 0 l 1
 98 0 l 1
 36 483 l 1
 6 487 -10 503 -10 531 c 0
 -10 567 11 583 56 583 c 2
 187 583 l 2
 231 583 254 568 254 533 c 0
 254 498 231 483 187 483 c 2
 139 483 l 1
 175 211 l 1
 251 437 l 1
 355 437 l 1
 431 211 l 1
 466 483 l 1
 413 483 l 2
 370 483 347 498 347 533 c 0
 347 568 369 583 413 583 c 2
 544 583 l 2
 588 583 610 568 610 533 c 0
 610 506 593 488 563 483 c 1
 503 0 l 1
 393 0 l 1
 300 277 l 1
EndSplineSet
Validated: 1
EndChar

StartChar: X
Encoding: 88 88 67
Width: 600
Flags: W
HStem: 0 100<18.199 69 199 245.46 355.174 402 531 581.736> 483 100<27.6251 77 521 569.476>
VStem: 10 243<9.35498 90.7681> 19 224<493.647 572.597> 347 243<9.70469 90.7681> 355 223<493.808 572.958>
DStem2: 69 100 199 100 0.644871 0.764291<83.8332 241.325 359.145 502.426> 205 484 77 483 0.647187 -0.762331<0 144.577 263.385 420.231>
LayerCount: 2
Fore
SplineSet
19 533 m 0xd0
 19 568 48 583 85 583 c 2
 176 583 l 2
 220 583 243 568 243 533 c 0
 243 511 234 498 205 484 c 1
 300 375 l 1
 393 484 l 1
 365 498 355 511 355 533 c 0
 355 567 380 583 422 583 c 2
 512 583 l 2
 556 583 578 568 578 533 c 0xd4
 578 502 556 483 521 483 c 1
 364 297 l 1
 531 100 l 1
 569 100 590 81 590 50 c 0
 590 15 566 0 524 0 c 2
 413 0 l 2
 369 0 347 17 347 50 c 0
 347 80 367 100 402 100 c 1
 301 220 l 1
 199 100 l 1
 233 100 253 80 253 50 c 0
 253 15 229 0 187 0 c 2
 76 0 l 2
 33 0 10 16 10 50 c 0xe8
 10 81 32 100 69 100 c 1
 235 298 l 1
 77 483 l 1
 40 483 19 503 19 533 c 0xd0
EndSplineSet
Validated: 1
EndChar

StartChar: Y
Encoding: 89 89 68
Width: 600
Flags: W
HStem: 0 100<125.839 250 350 474.642> 483 100<29.6793 85 514 570.026>
VStem: 21 222<493.062 572.948> 250 100<100 245> 354 225<493.258 573.968>
DStem2: 205 484 85 483 0.569749 -0.821819<0 165.894> 300 348 350 245 0.56741 0.823436<0 165.324>
LayerCount: 2
Fore
SplineSet
21 533 m 0
 21 569 49 583 88 583 c 2
 177 583 l 2
 221 583 243 568 243 533 c 0
 243 510 231 495 205 484 c 1
 300 348 l 1
 394 484 l 1
 367 494 354 510 354 533 c 0
 354 568 377 583 421 583 c 2
 513 583 l 2
 557 583 579 568 579 533 c 0
 579 501 555 483 514 483 c 1
 350 245 l 1
 350 100 l 1
 415 100 l 2
 459 100 482 85 482 50 c 0
 482 15 459 0 415 0 c 2
 185 0 l 2
 143 0 118 15 118 50 c 0
 118 85 140 100 185 100 c 2
 250 100 l 1
 250 245 l 1
 85 483 l 1
 44 483 21 501 21 533 c 0
EndSplineSet
Validated: 1
EndChar

StartChar: Z
Encoding: 90 90 69
Width: 600
Flags: W
HStem: 0 238<436.032 517.968> 0 100<201 427> 347 236<105.355 186.968> 483 100<196 375>
VStem: 96 100<355.031 483> 427 100<100 230.201>
DStem2: 73 100 201 100 0.617462 0.786601<79.0351 487.742>
LayerCount: 2
Fore
SplineSet
201 100 m 1x5c
 427 100 l 1x5c
 427 172 l 2
 427 215 442 238 477 238 c 0x8c
 512 238 527 216 527 172 c 2
 527 0 l 1
 73 0 l 1
 73 100 l 1
 375 483 l 1
 196 483 l 1x5c
 196 413 l 2
 196 369 181 347 146 347 c 0x2c
 112 347 96 370 96 413 c 2
 96 583 l 1
 504 583 l 1
 504 486 l 1
 201 100 l 1x5c
EndSplineSet
Validated: 1
EndChar

StartChar: bracketleft
Encoding: 91 91 70
Width: 600
Flags: W
HStem: -148 100<350 466.969> 527 100<350 466.201>
VStem: 250 225<-138.645 -57.032 536.705 617.968> 250 100<-48 527>
LayerCount: 2
Fore
SplineSet
350 527 m 1xd0
 350 -48 l 1xd0
 409 -48 l 2
 452 -48 475 -63 475 -98 c 0xe0
 475 -132 452 -148 409 -148 c 2
 250 -148 l 1
 250 627 l 1
 408 627 l 2
 452 627 474 612 474 577 c 0
 474 542 451 527 408 527 c 2
 350 527 l 1xd0
EndSplineSet
Validated: 1
EndChar

StartChar: backslash
Encoding: 92 92 71
Width: 600
Flags: W
DStem2: 184 651 95 610 0.42631 -0.904577<-38.9752 789.214>
LayerCount: 2
Fore
SplineSet
184 651 m 2
 505 -27 l 2
 514 -45 517 -55 517 -65 c 0
 517 -90 493 -113 467 -113 c 0
 443 -113 431 -103 415 -69 c 2
 95 610 l 2
 85 630 83 636 83 647 c 0
 83 672 106 695 133 695 c 0
 156 695 169 685 184 651 c 2
EndSplineSet
Validated: 1
EndChar

StartChar: bracketright
Encoding: 93 93 72
Width: 600
Flags: W
HStem: -148 100<133.799 250> 527 100<133.031 250>
VStem: 126 224<-138.968 -57.032 535.384 618.307> 250 100<-48 527>
LayerCount: 2
Fore
SplineSet
250 -48 m 1xd0
 250 527 l 1
 191 527 l 2
 148 527 125 542 125 577 c 0
 125 611 148 627 191 627 c 2
 350 627 l 1
 350 -148 l 1xd0
 192 -148 l 2
 148 -148 126 -133 126 -98 c 0xe0
 126 -63 149 -48 192 -48 c 2
 250 -48 l 1xd0
EndSplineSet
Validated: 1
EndChar

StartChar: asciicircum
Encoding: 94 94 73
Width: 600
Flags: W
HStem: 325 327
DStem2: 105 419 182 356 0.63986 0.768492<-47.3522 181.77> 299 652 299 494 0.643731 -0.765252<120.91 351.772>
LayerCount: 2
Fore
SplineSet
299 494 m 1
 182 356 l 2
 160 330 153 325 133 325 c 0
 106 325 83 348 83 375 c 0
 83 390 87 398 105 419 c 2
 299 652 l 1
 495 419 l 2
 513 398 517 390 517 375 c 0
 517 348 494 325 467 325 c 0
 448 325 439 330 418 355 c 2
 299 494 l 1
EndSplineSet
Validated: 1
EndChar

StartChar: underscore
Encoding: 95 95 74
Width: 600
Flags: W
HStem: -125 50<-12 612>
LayerCount: 2
Fore
SplineSet
612 -75 m 1
 612 -125 l 1
 -12 -125 l 1
 -12 -75 l 1
 612 -75 l 1
EndSplineSet
Validated: 1
EndChar

StartChar: grave
Encoding: 96 96 75
Width: 600
Flags: W
HStem: 496 200
VStem: 125 225
DStem2: 194 680 281 512 0.764911 -0.644136<-34.3908 209.187>
LayerCount: 2
Fore
SplineSet
194 680 m 2
 327 569 l 2
 343 556 350 545 350 532 c 0
 350 513 333 496 313 496 c 0
 303 496 296 500 281 512 c 2
 148 624 l 2
 132 638 125 647 125 660 c 0
 125 680 141 696 162 696 c 0
 173 696 178 693 194 680 c 2
EndSplineSet
Validated: 1
EndChar

StartChar: a
Encoding: 97 97 76
Width: 600
Flags: W
HStem: -16 100<155.744 330.994> 0 100<489 563.201> 196 92<189.807 386.606> 350 100<152.763 376.546>
VStem: 42 106<95.2491 160.582> 388 101<123.047 188.615 278 335.061>
LayerCount: 2
Fore
SplineSet
295 350 m 0xbc
 225 350 170 327 139 327 c 0
 111 327 90 349 90 378 c 0
 90 399 100 413 120 420 c 0
 168 437 242 450 292 450 c 0
 415 450 489 395 489 302 c 2
 489 100 l 1
 505 100 l 2
 549 100 571 85 571 50 c 0
 571 15 548 0 505 0 c 2
 388 0 l 1x7c
 388 23 l 1
 340 -2 281 -16 222 -16 c 0
 123 -16 42 45 42 119 c 0
 42 197 123 288 284 288 c 0
 316 288 347 285 388 278 c 1
 388 301 l 2
 388 335 359 350 295 350 c 0xbc
389 135 m 1
 389 185 l 1
 349 192 312 196 278 196 c 0
 210 196 148 161 148 123 c 0
 148 101 181 84 224 84 c 0xbc
 278 84 334 101 389 135 c 1
EndSplineSet
Validated: 1
EndChar

StartChar: b
Encoding: 98 98 77
Width: 600
Flags: W
HStem: -14 100<237.569 405.885> 0 100<-0.677029 74> 351 100<235.733 404.743> 524 100<-0.677029 74>
VStem: -8 182<9.03198 35 533.032 614.968> 74 100<148.298 288.463 401 524> 471 100<149.34 287.042>
LayerCount: 2
Fore
SplineSet
571 218 m 0x76
 571 107 493 -14 325 -14 c 0
 266 -14 226 -1 174 35 c 1xba
 174 0 l 1x76
 58 0 l 2
 15 0 -8 15 -8 50 c 0x7a
 -8 85 15 100 58 100 c 2
 74 100 l 1
 74 524 l 1x76
 58 524 l 2
 15 524 -8 539 -8 574 c 0x7a
 -8 609 15 624 58 624 c 2
 174 624 l 1
 174 401 l 1
 217 435 264 451 324 451 c 0
 493 451 571 331 571 218 c 0x76
323 351 m 0
 204 351 174 263 174 220 c 0xb6
 174 141 235 86 323 86 c 0
 410 86 471 142 471 219 c 0
 471 261 441 351 323 351 c 0
EndSplineSet
Validated: 1
EndChar

StartChar: c
Encoding: 99 99 78
Width: 600
Flags: W
HStem: -16 100<216.056 454.411> 16 124<475.604 534.011> 241 209<457.424 530.968> 350 100<223.089 410.157>
VStem: 54 100<136.663 283.176> 439 101<248.628 324.156>
LayerCount: 2
Fore
SplineSet
310 350 m 0x1c
 215 350 154 292 154 207 c 0
 154 125 213 84 330 84 c 0x9c
 445 84 467 113 485 128 c 0
 494 136 503 140 515 140 c 0
 542 140 565 117 565 89 c 0
 565 63 542 37 501 16 c 0x4c
 460 -4 396 -16 323 -16 c 0
 89 -16 54 133 54 207 c 0
 54 350 159 450 310 450 c 0x9c
 367 450 415 440 454 420 c 1
 460 441 471 450 492 450 c 0
 525 450 540 430 540 384 c 2
 540 307 l 2
 540 264 525 241 490 241 c 0x2c
 458 241 446 256 439 289 c 0
 435 307 429 316 416 325 c 0
 390 341 354 350 310 350 c 0x1c
EndSplineSet
Validated: 1
EndChar

StartChar: d
Encoding: 100 100 79
Width: 600
Flags: W
HStem: -14 100<199.392 369.066> 0 100<531 605.201> 351 100<194.5 369.105> 525 99<356.323 431>
VStem: 33 100<148.871 287.525> 349 182<534.032 615.052> 431 100<148.96 288.729 401 525>
LayerCount: 2
Fore
SplineSet
33 219 m 0xba
 33 330 110 451 281 451 c 0
 341 451 388 435 431 401 c 1
 431 525 l 1xba
 415 525 l 2
 372 525 349 540 349 575 c 0xbc
 349 609 372 624 415 624 c 2
 531 624 l 1
 531 100 l 1
 547 100 l 2
 591 100 613 85 613 50 c 0
 613 15 590 0 547 0 c 2
 431 0 l 1x7a
 431 35 l 1
 378 -1 339 -14 280 -14 c 0
 110 -14 33 108 33 219 c 0xba
431 217 m 0
 431 265 401 351 281 351 c 0
 163 351 133 263 133 219 c 0
 133 144 192 86 282 86 c 0
 401 86 431 175 431 217 c 0
EndSplineSet
Validated: 1
EndChar

StartChar: e
Encoding: 101 101 80
Width: 600
Flags: W
HStem: -16 100<201.085 444.792> 172 88<145 439> 350 100<204.278 382.214>
LayerCount: 2
Fore
SplineSet
306 84 m 0
 399 84 463 117 502 117 c 0
 529 117 550 95 550 67 c 0
 550 47 539 33 515 22 c 0
 470 2 368 -16 297 -16 c 0
 142 -16 33 80 33 216 c 0
 33 348 145 450 291 450 c 0
 440 450 550 349 550 211 c 2
 550 172 l 1
 142 172 l 1
 165 112 218 84 306 84 c 0
145 260 m 1
 439 260 l 1
 423 315 365 350 292 350 c 0
 219 350 160 314 145 260 c 1
EndSplineSet
Validated: 1
EndChar

StartChar: f
Encoding: 102 102 81
Width: 600
Flags: W
HStem: 0 100<82.7988 199 299 495.736> 337 100<94.5703 199 299 507.969> 523 100<309.734 534.133>
VStem: 199 100<100 337 437 510.675>
LayerCount: 2
Fore
SplineSet
524 509 m 0
 510 509 439 523 383 523 c 0
 326 523 299 507 299 474 c 2
 299 437 l 1
 450 437 l 2
 493 437 516 422 516 387 c 0
 516 353 493 337 450 337 c 2
 299 337 l 1
 299 100 l 1
 438 100 l 2
 482 100 504 85 504 50 c 0
 504 16 480 0 438 0 c 2
 141 0 l 2
 99 0 75 15 75 50 c 0
 75 85 97 100 141 100 c 2
 199 100 l 1
 199 337 l 1
 152 337 l 2
 111 337 86 353 86 387 c 0
 86 422 108 437 153 437 c 2
 199 437 l 1
 199 474 l 2
 199 566 273 623 392 623 c 0
 434 623 497 616 529 607 c 0
 556 600 571 583 571 560 c 0
 571 531 550 509 524 509 c 0
EndSplineSet
Validated: 1
EndChar

StartChar: g
Encoding: 103 103 82
Width: 600
Flags: W
HStem: -205 100<149.264 381.619> -14 100<197.088 345.817> 337 100<510 584.201> 351 100<197.088 346.9>
VStem: 33 100<147.323 289.54> 410 100<-76.4346 35 149.227 289.664>
LayerCount: 2
Fore
SplineSet
410 401 m 1xdc
 410 437 l 1
 526 437 l 2
 570 437 592 422 592 387 c 0
 592 352 569 337 526 337 c 2
 510 337 l 1xec
 510 -20 l 2
 510 -126 428 -205 319 -205 c 2
 207 -205 l 2
 165 -205 141 -189 141 -155 c 0
 141 -120 163 -105 207 -105 c 2
 316 -105 l 2
 373 -105 410 -72 410 -20 c 2
 410 35 l 1
 364 1 321 -14 269 -14 c 0
 135 -14 33 86 33 218 c 0
 33 351 135 451 269 451 c 0
 323 451 371 434 410 401 c 1xdc
271 351 m 0xdc
 195 351 133 292 133 219 c 0
 133 145 195 86 271 86 c 0
 347 86 410 145 410 217 c 0
 410 292 349 351 271 351 c 0xdc
EndSplineSet
Validated: 1
EndChar

StartChar: h
Encoding: 104 104 83
Width: 600
Flags: W
HStem: 0 100<31.0315 95 195 259.996 343.575 409 509 573.031> 350 100<247.984 391.95> 524 100<20.323 95>
VStem: 13 182<533.032 614.968> 23 245<9.35498 90.6479> 95 100<100 301.67 389 524> 336 245<9.03198 90.6479> 409 100<100 331.829>
LayerCount: 2
Fore
SplineSet
195 624 m 1xe4
 195 389 l 1
 235 430 280 450 332 450 c 0
 438 450 509 384 509 284 c 2
 509 100 l 1xe5
 556 100 581 88 581 50 c 0
 581 15 557 0 515 0 c 2
 403 0 l 2
 360 0 336 15 336 50 c 0xe2
 336 88 362 100 409 100 c 1
 409 271 l 2
 409 331 379 350 321 350 c 0
 274 350 252 338 195 283 c 1
 195 100 l 1xe5
 243 100 268 88 268 50 c 0
 268 15 244 0 201 0 c 2
 89 0 l 2
 46 0 23 16 23 50 c 0xe8
 23 88 48 100 95 100 c 1
 95 524 l 1xe4
 79 524 l 2
 36 524 13 539 13 574 c 0xf0
 13 609 36 624 79 624 c 2
 195 624 l 1xe4
EndSplineSet
Validated: 1
EndChar

StartChar: i
Encoding: 105 105 84
Width: 600
Flags: W
HStem: 0 100<70.5239 250 350 529.736> 337 100<112.839 250> 518 105<218 336>
VStem: 105 245<346.032 427.968> 218 118<518 623> 250 100<100 337>
LayerCount: 2
Fore
SplineSet
128 0 m 2xe4
 71 0 62 30 62 50 c 0
 62 85 84 100 128 100 c 2
 250 100 l 1
 250 337 l 1xe4
 172 337 l 2
 129 337 105 352 105 387 c 0xf0
 105 422 127 437 172 437 c 2
 350 437 l 1
 350 100 l 1
 472 100 l 2
 515 100 538 85 538 50 c 0
 538 16 514 0 472 0 c 2
 128 0 l 2xe4
336 623 m 1xe8
 336 518 l 1
 218 518 l 1
 218 623 l 1
 336 623 l 1xe8
EndSplineSet
Validated: 1
EndChar

StartChar: j
Encoding: 106 106 85
Width: 600
Flags: W
HStem: -205 100<125.264 359.619> 337 100<128.264 388> 518 105<311 430>
VStem: 311 119<518 623> 388 100<-76.0632 337>
LayerCount: 2
Fore
SplineSet
388 337 m 1xe8
 186 337 l 2
 144 337 120 353 120 387 c 0
 120 422 142 437 186 437 c 2
 488 437 l 1
 488 -20 l 2
 488 -125 406 -205 297 -205 c 2
 183 -205 l 2
 141 -205 117 -189 117 -155 c 0
 117 -120 140 -105 183 -105 c 2
 294 -105 l 2
 351 -105 388 -72 388 -20 c 2
 388 337 l 1xe8
430 623 m 1xf0
 430 518 l 1
 311 518 l 1
 311 623 l 1
 430 623 l 1xf0
EndSplineSet
Validated: 1
EndChar

StartChar: k
Encoding: 107 107 86
Width: 600
Flags: W
HStem: 0 100<41.0315 115 471 562.928> 337 100<429 514.969> 524 100<40.323 115>
VStem: 33 182<9.67798 90.968 533.032 614.968> 115 100<100 164 287 524> 278 245<350.653 427.968> 320 251<9.70469 86.3928>
LayerCount: 2
Fore
SplineSet
215 164 m 1xea
 215 0 l 1xea
 99 0 l 2
 55 0 33 17 33 50 c 0xf0
 33 85 56 100 99 100 c 2
 115 100 l 1
 115 524 l 1xe8
 99 524 l 2
 56 524 33 539 33 574 c 0xf0
 33 609 56 624 99 624 c 2
 215 624 l 1
 215 287 l 1
 294 350 l 1
 282 364 278 373 278 387 c 0
 278 422 301 437 345 437 c 2
 457 437 l 2
 500 437 523 422 523 387 c 0xec
 523 353 500 337 457 337 c 2
 429 337 l 1
 311 241 l 1
 471 100 l 1
 504 100 l 2
 548 100 571 85 571 50 c 0
 571 15 547 0 504 0 c 2
 386 0 l 2
 342 0 320 17 320 50 c 0
 320 64 324 74 336 87 c 1
 233 178 l 1
 215 164 l 1xea
EndSplineSet
Validated: 1
EndChar

StartChar: l
Encoding: 108 108 87
Width: 600
Flags: W
HStem: 0 100<70.5239 250 350 529.736> 524 100<113.072 250>
VStem: 105 245<533.032 615.291> 250 100<100 524>
LayerCount: 2
Fore
SplineSet
128 0 m 2xd0
 71 0 62 30 62 50 c 0
 62 85 84 100 128 100 c 2
 250 100 l 1
 250 524 l 1xd0
 172 524 l 2
 129 524 105 539 105 574 c 0xe0
 105 610 128 624 172 624 c 2
 350 624 l 1
 350 100 l 1
 472 100 l 2
 515 100 538 85 538 50 c 0
 538 16 514 0 472 0 c 2
 128 0 l 2xd0
EndSplineSet
Validated: 1
EndChar

StartChar: m
Encoding: 109 109 88
Width: 600
Flags: W
HStem: 0 100<-10.4626 41 141 193.708 352 403.736 563 614.755> 337 100<-9.99738 41> 350 100<164.476 249.547 376.029 460.288>
VStem: -19 221<10.0415 90.6895> 41 100<100 327.45> 252 160<9.35498 90.3808> 252 100<100 326.009> 463 160<9.67798 90.6895> 463 100<100 346.162>
LayerCount: 2
Fore
SplineSet
-19 387 m 0xd0
 -19 421 8 437 48 437 c 2
 141 437 l 1xc8
 141 413 l 1
 176 441 196 450 226 450 c 0
 265 450 298 434 328 401 c 1
 359 435 391 450 432 450 c 0
 507 450 563 394 563 319 c 2
 563 100 l 1xa880
 601 100 623 82 623 50 c 0xa1
 623 17 601 0 557 0 c 2
 463 0 l 1
 463 311 l 2
 463 340 454 350 428 350 c 0
 402 350 386 341 352 305 c 1
 352 100 l 1xa280
 390 100 412 81 412 50 c 0xa4
 412 16 388 0 346 0 c 2
 252 0 l 1
 252 311 l 2
 252 339 242 350 217 350 c 0
 190 350 171 339 141 305 c 1
 141 100 l 1xaa
 180 100 202 82 202 50 c 0
 202 16 178 0 136 0 c 2
 48 0 l 2
 6 0 -19 16 -19 50 c 0xb0
 -19 82 3 100 41 100 c 1
 41 337 l 1xc8
 3 338 -19 356 -19 387 c 0xd0
EndSplineSet
Validated: 1
EndChar

StartChar: n
Encoding: 110 110 89
Width: 600
Flags: W
HStem: 0 100<31.0315 95 195 258.736 357.292 410 510 562.708> 337 100<42.4434 95> 350 100<246.863 390.97>
VStem: 23 244<9.70469 90.968> 95 100<100 303.481> 349 222<9.70469 90.6895> 410 100<100 329.731>
LayerCount: 2
Fore
SplineSet
34 387 m 0xc8
 34 423 62 437 101 437 c 2
 195 437 l 1xc8
 195 389 l 1
 243 435 277 450 332 450 c 0
 432 450 510 392 510 282 c 2
 510 100 l 1xaa
 549 100 571 82 571 50 c 0
 571 15 547 0 505 0 c 2
 416 0 l 2
 371 0 349 17 349 50 c 0xa4
 349 82 371 100 410 100 c 1
 410 278 l 2
 410 327 382 350 320 350 c 0
 274 350 242 333 195 282 c 1
 195 100 l 1xaa
 201 100 l 2
 244 100 267 85 267 50 c 0
 267 16 243 0 201 0 c 2
 89 0 l 2
 47 0 23 15 23 50 c 0xb0
 23 85 46 100 89 100 c 2
 95 100 l 1
 95 337 l 1
 56 338 34 355 34 387 c 0xc8
EndSplineSet
Validated: 1
EndChar

StartChar: o
Encoding: 111 111 90
Width: 600
Flags: W
HStem: -16 100<215.369 384.631> 350 100<213.156 385.653>
VStem: 42 100<151.429 283.146> 458 100<151.429 282.172>
LayerCount: 2
Fore
SplineSet
303 450 m 0
 444 450 558 346 558 217 c 0
 558 87 444 -16 300 -16 c 0
 156 -16 42 87 42 217 c 0
 42 349 155 450 303 450 c 0
302 350 m 0
 211 350 142 293 142 217 c 0
 142 142 211 84 300 84 c 0
 389 84 458 142 458 217 c 0
 458 291 389 350 302 350 c 0
EndSplineSet
Validated: 1
EndChar

StartChar: p
Encoding: 112 112 91
Width: 600
Flags: W
HStem: -205 100<-0.460022 74 174 289.969> 10 100<234.609 409.608> 337 100<-0.677029 74> 350 100<234.08 408.701>
VStem: -8 306<-195.632 -114.032> 74 100<-105 66 166.404 294.012> 471 100<167.517 292.708>
LayerCount: 2
Fore
SplineSet
174 66 m 1xd6
 174 -105 l 1xd6
 232 -105 l 2
 276 -105 298 -120 298 -155 c 0
 298 -189 275 -205 232 -205 c 2
 58 -205 l 2
 16 -205 -8 -191 -8 -155 c 0xda
 -8 -120 15 -105 58 -105 c 2
 74 -105 l 1
 74 337 l 1xe6
 58 337 l 2
 15 337 -8 352 -8 387 c 0xea
 -8 422 15 437 58 437 c 2
 174 437 l 1xe6
 174 392 l 1
 223 434 265 450 327 450 c 0
 467 450 571 353 571 224 c 0
 571 101 468 10 329 10 c 0
 270 10 226 26 174 66 c 1xd6
471 230 m 0
 471 275 435 350 323 350 c 0
 207 350 174 272 174 231 c 0
 174 160 235 110 323 110 c 0
 409 110 471 160 471 230 c 0
EndSplineSet
Validated: 1
EndChar

StartChar: q
Encoding: 113 113 92
Width: 600
Flags: W
HStem: -205 100<315.031 431 531 604.969> 10 100<194.307 371.58> 337 100<531 605.201> 350 100<194.653 370.566>
VStem: 33 100<167.336 293.538> 307 306<-195.645 -114.032> 431 100<-105 66 165.988 293.596>
LayerCount: 2
Fore
SplineSet
431 -105 m 1xea
 431 66 l 1
 379 26 334 10 275 10 c 0
 136 10 33 101 33 224 c 0
 33 354 137 450 277 450 c 0xda
 340 450 382 434 431 392 c 1
 431 437 l 1xea
 547 437 l 2
 591 437 613 422 613 387 c 0xec
 613 352 590 337 547 337 c 2
 531 337 l 1
 531 -105 l 1xea
 547 -105 l 2
 591 -105 613 -120 613 -155 c 0
 613 -189 590 -205 547 -205 c 2
 373 -205 l 2
 331 -205 307 -190 307 -155 c 0xec
 307 -120 330 -105 373 -105 c 2
 431 -105 l 1xea
282 110 m 0
 398 110 431 188 431 229 c 0
 431 300 370 350 281 350 c 0
 173 350 133 278 133 230 c 0
 133 187 167 110 282 110 c 0
EndSplineSet
Validated: 1
EndChar

StartChar: r
Encoding: 114 114 93
Width: 600
Flags: W
HStem: 0 100<61.7988 178 278 476.642> 337 100<85.5239 178> 349 100<384.502 485.644>
VStem: 178 100<100 264.307>
LayerCount: 2
Fore
SplineSet
521 313 m 0xb0
 484 313 480 349 443 349 c 0xb0
 411 349 373 325 278 247 c 1
 278 100 l 1
 417 100 l 2
 461 100 484 85 484 50 c 0
 484 15 461 0 417 0 c 2
 120 0 l 2
 78 0 54 15 54 50 c 0
 54 85 76 100 120 100 c 2
 178 100 l 1
 178 337 l 1
 143 337 l 2
 101 337 77 353 77 387 c 0
 77 418 99 437 143 437 c 2
 278 437 l 1xd0
 278 372 l 1
 358 432 396 449 445 449 c 0
 488 449 571 414 571 364 c 0
 571 336 548 313 521 313 c 0xb0
EndSplineSet
Validated: 1
EndChar

StartChar: s
Encoding: 115 115 94
Width: 600
Flags: W
HStem: -16 100<200.059 399.824> 1 166<82.8053 155.487> 281 169<429.059 496.968> 350 100<210.422 391.73>
VStem: 417 110<102.504 155.116>
LayerCount: 2
Fore
SplineSet
124 1 m 0x48
 86 1 73 27 73 67 c 2
 73 100 l 2
 73 144 89 167 124 167 c 0x48
 150 167 166 153 175 123 c 1
 204 97 246 84 300 84 c 0
 364 84 417 104 417 127 c 0
 417 169 321 176 291 179 c 0
 151 194 92 234 92 313 c 0
 92 393 178 450 298 450 c 0x98
 347 450 388 442 427 424 c 1
 435 443 444 450 459 450 c 0
 491 450 506 430 506 384 c 2
 506 347 l 2
 506 304 491 281 456 281 c 0x28
 430 281 417 298 404 321 c 1
 376 341 343 350 301 350 c 0
 250 350 202 333 202 315 c 0
 202 290 249 285 307 277 c 0
 411 262 527 237 527 125 c 0
 527 43 433 -16 304 -16 c 0x98
 247 -16 196 -6 156 13 c 1
 145 4 137 1 124 1 c 0x48
EndSplineSet
Validated: 1
EndChar

StartChar: t
Encoding: 116 116 95
Width: 600
Flags: W
HStem: -16 100<222.132 417.373> 337 100<20.7988 114 214 453.677> 571 20G<146 181.5>
VStem: 114 100<95.2853 337 437 583.201>
LayerCount: 2
Fore
SplineSet
300 84 m 0
 412 84 448 129 481 129 c 0
 508 129 529 106 529 78 c 0
 529 54 517 41 479 24 c 0
 430 1 351 -16 299 -16 c 0
 185 -16 114 37 114 122 c 2
 114 337 l 1
 79 337 l 2
 37 337 13 352 13 387 c 0
 13 422 35 437 79 437 c 2
 114 437 l 1
 114 525 l 2
 114 567 128 591 164 591 c 0
 199 591 214 569 214 525 c 2
 214 437 l 1
 395 437 l 2
 438 437 461 422 461 387 c 0
 461 352 438 337 395 337 c 2
 214 337 l 1
 214 141 l 2
 214 89 242 84 300 84 c 0
EndSplineSet
Validated: 1
EndChar

StartChar: u
Encoding: 117 117 96
Width: 600
Flags: W
HStem: -13 100<213.55 358.752> 0 100<510 562.708> 337 100<21.7721 95 318.195 410>
VStem: 13 182<346.526 427.968> 95 100<108.203 337> 309 201<347.753 427.968> 410 100<134.208 337>
LayerCount: 2
Fore
SplineSet
273 -13 m 0xa2
 171 -13 95 46 95 156 c 2
 95 337 l 1xaa
 68 337 l 2
 35 337 13 358 13 387 c 0xb0
 13 422 36 437 79 437 c 2
 195 437 l 1
 195 159 l 2
 195 110 223 87 283 87 c 0
 333 87 358 100 410 155 c 1
 410 337 l 1xaa
 375 337 l 2
 337 337 309 353 309 387 c 0xa4
 309 422 332 437 375 437 c 2
 510 437 l 1
 510 100 l 1
 549 100 571 82 571 50 c 0
 571 16 547 0 505 0 c 2
 410 0 l 1x62
 410 48 l 1
 360 1 328 -13 273 -13 c 0xa2
EndSplineSet
Validated: 1
EndChar

StartChar: v
Encoding: 118 118 97
Width: 600
Flags: W
HStem: 0 21G<237.089 360.911> 337 100<7.323 80 193 255.849 340.959 409 518 592.677>
VStem: 0 264<346.705 427.968> 333 267<346.311 427.968>
DStem2: 193 337 80 337 0.44402 -0.896017<0 241.042> 302 122 351 0 0.44402 0.896017<0 240.154>
LayerCount: 2
Fore
SplineSet
302 122 m 1
 409 337 l 1
 361 337 333 347 333 387 c 0
 333 422 356 437 399 437 c 2
 534 437 l 2
 577 437 600 422 600 387 c 0
 600 352 577 337 534 337 c 2
 518 337 l 1
 351 0 l 1
 247 0 l 1
 80 337 l 1
 66 337 l 2
 23 337 0 352 0 387 c 0
 0 422 23 437 66 437 c 2
 198 437 l 2
 241 437 264 422 264 387 c 0
 264 350 238 337 193 337 c 1
 302 122 l 1
EndSplineSet
Validated: 1
EndChar

StartChar: w
Encoding: 119 119 98
Width: 600
Flags: W
HStem: 0 21G<133.97 240.514 364.155 468.97> 338 99<8.40805 54 160 216.515 383.438 448 548 592.248>
VStem: 0 224<346.5 426.948> 375 225<347.249 426.597>
DStem2: 160 338 54 338 0.243886 -0.969804<0 157.892> 408 185 464 0 0.241184 0.970479<0 158.131>
LayerCount: 2
Fore
SplineSet
375 387 m 0
 375 417 396 437 441 437 c 2
 534 437 l 2
 577 437 600 422 600 387 c 0
 600 358 581 338 548 338 c 1
 464 0 l 1
 372 0 l 1
 301 181 l 1
 233 0 l 1
 139 0 l 1
 54 338 l 1
 20 338 0 358 0 387 c 0
 0 423 28 437 66 437 c 2
 158 437 l 2
 201 437 224 422 224 387 c 0
 224 353 203 338 160 338 c 1
 199 185 l 1
 259 343 l 1
 347 343 l 1
 408 185 l 1
 448 338 l 1
 402 338 375 350 375 387 c 0
EndSplineSet
Validated: 1
EndChar

StartChar: x
Encoding: 120 120 99
Width: 600
Flags: W
HStem: 0 100<29.1211 75 525 571.46> 337 100<48.408 92 505 550.195>
VStem: 21 243<9.76172 91.269> 40 224<345.248 426.948> 334 245<9.70469 91.4241> 334 224<346.526 426.845>
DStem2: 238 342 220 228 0.764497 -0.644628<0 59.7266 177.339 259.971> 220 228 226 100 0.76095 0.64881<-78.482 0 115.777 181.146>
LayerCount: 2
Fore
SplineSet
334 386 m 0xd4
 334 423 362 437 400 437 c 2
 491 437 l 2
 534 437 558 422 558 387 c 0xd4
 558 358 539 337 505 337 c 1
 373 227 l 1
 525 100 l 1
 559 100 579 80 579 50 c 0
 579 15 555 0 513 0 c 2
 401 0 l 2
 358 0 334 15 334 51 c 0
 334 74 349 93 374 100 c 1
 299 161 l 1
 226 100 l 1
 254 88 264 75 264 51 c 0
 264 17 242 0 198 0 c 2
 87 0 l 2
 43 0 21 17 21 50 c 0xe8
 21 80 41 100 75 100 c 1
 220 228 l 1
 92 337 l 1
 59 337 40 358 40 387 c 0
 40 423 68 437 106 437 c 2
 198 437 l 2
 240 437 264 422 264 388 c 0
 264 370 255 353 238 342 c 1
 299 293 l 1
 360 343 l 1
 341 356 334 369 334 386 c 0xd4
EndSplineSet
Validated: 1
EndChar

StartChar: y
Encoding: 121 121 100
Width: 600
Flags: W
HStem: -205 100<29.7721 187 297 359.849> 337 100<29.6251 70 184 234.969 362.679 418 527 571.201>
VStem: 21 222<346.368 426.597> 354 225<347.001 426.948>
DStem2: 184 337 70 337 0.457829 -0.88904<0 250.448> 187 -105 297 -105 0.463183 0.886263<50.9501 121.191 245.505 498.723>
LayerCount: 2
Fore
SplineSet
354 387 m 0
 354 423 382 437 421 437 c 2
 513 437 l 2
 557 437 579 422 579 387 c 0
 579 358 560 337 527 337 c 1
 297 -105 l 1
 342 -105 368 -118 368 -155 c 0
 368 -189 345 -205 302 -205 c 2
 87 -205 l 2
 49 -205 21 -190 21 -155 c 0
 21 -120 44 -105 87 -105 c 2
 187 -105 l 1
 242 3 l 1
 70 337 l 1
 39 337 21 359 21 387 c 0
 21 422 50 437 87 437 c 2
 177 437 l 2
 220 437 243 422 243 387 c 0
 243 356 222 338 184 337 c 1
 298 114 l 1
 418 337 l 1
 377 337 354 355 354 387 c 0
EndSplineSet
Validated: 1
EndChar

StartChar: z
Encoding: 122 122 101
Width: 600
Flags: W
HStem: 0 154<427.789 509.968> 0 100<244 422.991> 262 175<106.032 187.968> 337 100<197 346>
VStem: 97 100<269.323 337>
DStem2: 85 83 244 100 0.715249 0.698869<125.605 364.193>
LayerCount: 2
Fore
SplineSet
244 100 m 1x58
 419 100 l 1x58
 421 135 439 154 469 154 c 0x88
 504 154 519 132 519 88 c 2
 519 0 l 1
 85 0 l 1
 85 83 l 1
 346 337 l 1
 197 337 l 1x58
 197 328 l 2
 197 285 182 262 147 262 c 0x28
 112 262 97 285 97 328 c 2
 97 437 l 1
 506 437 l 1
 506 356 l 1
 244 100 l 1x58
EndSplineSet
Validated: 1
EndChar

StartChar: braceleft
Encoding: 123 123 102
Width: 600
Flags: W
HStem: -153 101<352.316 423.835> 189 101<174.663 246.831> 522 101<351.646 423.835>
VStem: 248 100<-48.0137 186.683 292.763 518.014>
LayerCount: 2
Fore
SplineSet
348 485 m 2
 348 328 l 2
 348 285 342 268 319 240 c 1
 343 211 348 194 348 142 c 2
 348 -15 l 2
 348 -42 356 -50 384 -52 c 0
 413 -54 433 -75 433 -103 c 0
 433 -133 411 -153 378 -153 c 0
 308 -153 248 -93 248 -22 c 2
 248 151 l 2
 248 179 242 186 216 189 c 0
 184 193 167 210 167 240 c 0
 167 269 184 287 216 290 c 0
 242 293 248 301 248 328 c 2
 248 492 l 2
 248 563 308 623 377 623 c 0
 411 623 433 603 433 573 c 0
 433 545 413 524 384 522 c 0
 356 521 348 512 348 485 c 2
EndSplineSet
Validated: 1
EndChar

StartChar: bar
Encoding: 124 124 103
Width: 600
Flags: W
HStem: 602 20G<282.5 317.5>
VStem: 250 100<-144.969 614.677>
LayerCount: 2
Fore
SplineSet
350 556 m 2
 350 -87 l 2
 350 -129 335 -153 300 -153 c 0
 266 -153 250 -130 250 -87 c 2
 250 556 l 2
 250 599 265 622 300 622 c 0
 335 622 350 599 350 556 c 2
EndSplineSet
Validated: 1
EndChar

StartChar: braceright
Encoding: 125 125 104
Width: 600
Flags: W
HStem: -153 101<176.165 248.354> 180 101<353.169 425.337> 522 101<176.165 247.684>
VStem: 252 100<-48.0137 177.237 283.317 518.014>
LayerCount: 2
Fore
SplineSet
252 -15 m 2
 252 142 l 2
 252 185 258 202 281 230 c 1
 257 259 252 276 252 328 c 2
 252 485 l 2
 252 512 244 520 216 522 c 0
 187 524 167 545 167 573 c 0
 167 603 189 623 222 623 c 0
 292 623 352 563 352 492 c 2
 352 319 l 2
 352 291 358 284 384 281 c 0
 416 277 433 260 433 230 c 0
 433 201 416 183 384 180 c 0
 358 177 352 169 352 142 c 2
 352 -22 l 2
 352 -93 292 -153 223 -153 c 0
 189 -153 167 -133 167 -103 c 0
 167 -75 187 -54 216 -52 c 0
 244 -51 252 -42 252 -15 c 2
EndSplineSet
Validated: 1
EndChar

StartChar: asciitilde
Encoding: 126 126 105
Width: 600
Flags: W
HStem: 179 105<352.586 419.652> 281 104<183.669 246.021>
LayerCount: 2
Fore
SplineSet
213 385 m 0x40
 302 385 351 284 389 284 c 0
 419 284 447 364 488 364 c 0
 515 364 538 341 538 314 c 0
 538 275 457 179 391 179 c 0x80
 309 179 241 281 212 281 c 0
 183 281 156 201 113 201 c 0
 86 201 62 225 62 252 c 0
 62 291 139 385 213 385 c 0x40
EndSplineSet
Validated: 1
EndChar

StartChar: exclamdown
Encoding: 161 161 107
Width: 600
Flags: W
HStem: 294 132<242.406 358.047>
VStem: 220 161<-202.897 90.1875 316.585 403.415>
LayerCount: 2
Fore
SplineSet
222 -114 m 2
 251 183 l 2
 254 214 272 232 300 232 c 0
 328 232 347 213 350 183 c 2
 379 -114 l 2
 380 -127 381 -141 381 -147 c 0
 381 -193 347 -227 300 -227 c 0
 254 -227 220 -193 220 -147 c 0
 220 -140 221 -126 222 -114 c 2
292 426 m 2
 309 426 l 2
 346 426 375 397 375 360 c 0
 375 323 346 294 309 294 c 2
 292 294 l 2
 255 294 225 323 225 360 c 0
 225 397 255 426 292 426 c 2
EndSplineSet
Validated: 1
EndChar

StartChar: cent
Encoding: 162 162 108
Width: 600
Flags: W
HStem: -44 241<261.51 341.552> 333 174<424.419 485.561> 427 234<261.27 340.725>
VStem: 83 100<247.24 373.707> 251 100<-35.9685 102.928 522.828 652.695> 410 85<340.442 401.274>
LayerCount: 2
Fore
SplineSet
310 197 m 0xbc
 392 197 412 245 449 245 c 0
 475 245 499 221 499 194 c 0
 499 152 439 114 351 99 c 1
 351 22 l 2
 351 -21 336 -44 301 -44 c 0
 267 -44 251 -21 251 22 c 2
 251 103 l 1
 148 128 83 209 83 312 c 0
 83 409 152 493 251 517 c 1
 251 594 l 2
 251 637 267 661 301 661 c 0xbc
 336 661 351 639 351 594 c 2
 351 527 l 1
 382 522 404 515 424 503 c 1
 433 506 438 507 444 507 c 0
 479 507 495 485 495 441 c 2
 495 399 l 2
 495 356 480 333 445 333 c 0xdc
 433 333 418 339 410 346 c 1
 386 373 412 427 320 427 c 0
 241 427 183 377 183 310 c 0
 183 247 238 197 310 197 c 0xbc
EndSplineSet
Validated: 1
EndChar

StartChar: sterling
Encoding: 163 163 109
Width: 600
Flags: W
HStem: 0 100<64.032 142.886 247 454.749> 243 100<40.323 143 269 373.642> 444 21G<384 421.5> 498 100<243.786 356.866>
VStem: 126 100<345.478 480.479> 169 101<127.849 243>
LayerCount: 2
Fore
SplineSet
408 444 m 0xf8
 360 444 370 498 298 498 c 0
 257 498 226 472 226 437 c 0xf8
 226 416 226 414 246 343 c 1
 314 343 l 2
 358 343 381 328 381 293 c 0
 381 258 358 243 314 243 c 2
 269 243 l 1
 270 231 270 221 270 216 c 0
 270 172 264 142 247 100 c 1
 450 100 l 1
 454 130 471 146 499 146 c 0
 530 146 550 124 550 90 c 0
 550 32 512 0 442 0 c 2
 121 0 l 2
 64 0 55 31 55 51 c 0
 55 78 70 93 105 100 c 0
 157 110 169 164 169 224 c 0xf4
 169 227 169 235 168 243 c 1
 99 243 l 2
 56 243 33 258 33 293 c 0
 33 328 56 343 99 343 c 2
 143 343 l 1
 131 379 126 403 126 432 c 0
 126 529 198 598 299 598 c 0
 377 598 457 546 457 495 c 0
 457 467 435 444 408 444 c 0xf8
EndSplineSet
Validated: 1
EndChar

StartChar: currency
Encoding: 164 164 110
Width: 600
Flags: W
HStem: 97 100<241.748 357.999> 388 100<240.315 359.892>
VStem: 106 100<232.882 353.902> 394 100<232.074 353.475>
DStem2: 203 462 99 419 0.706036 -0.708176<-95.5832 6.74038 376.339 473.254> 99 162 171 91 0.707107 0.707107<-51.0583 53.2929 415.424 516.334>
LayerCount: 2
Fore
SplineSet
131 388 m 1
 99 419 l 2
 84 434 73 451 73 469 c 0
 73 496 96 519 124 519 c 0
 141 519 148 515 171 493 c 2
 203 462 l 1
 240 482 264 488 300 488 c 0
 336 488 360 481 397 461 c 1
 428 491 l 2
 450 513 458 517 475 517 c 0
 503 517 526 494 526 466 c 0
 526 449 522 442 500 420 c 2
 469 388 l 1
 488 351 494 327 494 292 c 0
 494 257 488 233 468 196 c 1
 501 162 l 2
 522 141 527 132 527 116 c 0
 527 88 503 64 475 64 c 0
 458 64 451 68 429 90 c 2
 395 122 l 1
 359 103 335 97 300 97 c 0
 264 97 241 103 204 123 c 1
 171 91 l 2
 148 68 141 64 124 64 c 0
 96 64 73 87 73 115 c 0
 73 132 77 139 99 162 c 2
 131 196 l 1
 112 233 106 257 106 292 c 0
 106 328 112 352 131 388 c 1
300 388 m 0
 248 388 206 346 206 293 c 0
 206 241 249 197 300 197 c 0
 351 197 394 241 394 292 c 0
 394 346 353 388 300 388 c 0
EndSplineSet
Validated: 1
EndChar

StartChar: yen
Encoding: 165 165 111
Width: 600
Flags: W
HStem: 0 100<145.57 250 350 455.201> 135 56<122.512 250 350 477.488> 225 56<122.512 225 375 477.488> 481 99<28.7988 87 514 570.476>
VStem: 21 225<490.682 570.968> 250 100<100 135 191 225> 355 224<490.633 570.968>
DStem2: 207 482 87 481 0.567925 -0.82308<0 163.678> 301 348 375 281 0.572633 0.819812<0 163.435>
LayerCount: 2
Fore
SplineSet
203 0 m 2
 146 0 137 30 137 50 c 0
 137 85 159 100 204 100 c 2
 250 100 l 1
 250 135 l 1
 153 135 l 2
 133 135 122 145 122 163 c 0
 122 181 133 191 153 191 c 2
 250 191 l 1
 250 225 l 1
 153 225 l 2
 133 225 122 235 122 253 c 0
 122 271 132 281 153 281 c 2
 225 281 l 1
 87 481 l 1
 53 481 21 492 21 530 c 0
 21 565 43 580 87 580 c 2
 179 580 l 2
 223 580 246 565 246 530 c 0
 246 506 230 486 207 482 c 1
 301 348 l 1
 396 481 l 1
 370 488 355 506 355 530 c 0
 355 565 377 580 422 580 c 2
 513 580 l 2
 557 580 579 565 579 530 c 0
 579 497 552 480 514 480 c 1
 375 281 l 1
 447 281 l 2
 467 281 478 271 478 253 c 0
 478 235 467 225 447 225 c 2
 350 225 l 1
 350 191 l 1
 447 191 l 2
 467 191 478 181 478 163 c 0
 478 145 467 135 447 135 c 2
 350 135 l 1
 350 100 l 1
 397 100 l 2
 441 100 463 85 463 50 c 0
 463 17 441 0 397 0 c 2
 203 0 l 2
EndSplineSet
Validated: 1
EndChar

StartChar: brokenbar
Encoding: 166 166 112
Width: 600
Flags: W
HStem: 602 20G<282.5 323.5>
VStem: 250 100<-144.969 174.677 294.323 614.234>
LayerCount: 2
Fore
SplineSet
300 622 m 0
 347 622 350 580 350 556 c 2
 350 353 l 2
 350 310 335 287 300 287 c 0
 265 287 250 310 250 353 c 2
 250 556 l 2
 250 599 265 622 300 622 c 0
350 116 m 2
 350 -87 l 2
 350 -129 335 -153 300 -153 c 0
 266 -153 250 -130 250 -87 c 2
 250 116 l 2
 250 159 265 182 300 182 c 0
 335 182 350 159 350 116 c 2
EndSplineSet
Validated: 1
EndChar

StartChar: section
Encoding: 167 167 113
Width: 600
Flags: W
HStem: -170 182<87.0117 162.988> -170 88<169 365.453> 401 182<437.012 512.988> 493 90<230.807 431>
VStem: 36 96<252.049 319.699> 81 88<-82 7.21456> 132 85<402.038 476.617> 381 86<-65.9593 9.71728> 431 88<405.971 493> 468 96<93.7841 158.535>
DStem2: 218 205 170 130 0.86673 -0.498778<-107.794 221.129> 324 342 272 271 0.866622 -0.498964<-104.294 221.989>
LayerCount: 2
Fore
SplineSet
431 493 m 1x1280
 287 493 l 2
 248 493 217 469 217 440 c 0x1280
 217 415 252 383 324 342 c 2
 416 291 l 2
 533 226 564 191 564 129 c 0
 564 68 527 25 462 10 c 1
 466 -7 467 -16 467 -28 c 0
 467 -111 398 -170 312 -170 c 2
 81 -170 l 1x5540
 81 -43 l 2
 81 -6 95 12 125 12 c 0x8540
 155 12 169 -6 169 -43 c 2
 169 -82 l 1x4540
 314 -82 l 2
 350 -82 381 -57 381 -29 c 0
 381 -3 347 29 276 69 c 2
 170 130 l 2
 71 187 36 226 36 283 c 0x49
 36 342 72 384 137 402 c 1
 133 414 132 420 132 432 c 0
 132 520 204 583 294 583 c 2
 519 583 l 1x5280
 519 456 l 2
 519 419 505 401 475 401 c 0x2280
 445 401 431 420 431 456 c 2
 431 493 l 1x1280
371 214 m 2
 272 271 l 2
 238 290 228 297 192 326 c 1
 153 326 132 314 132 292 c 0
 132 266 159 239 218 205 c 2
 321 147 l 2
 375 116 390 103 407 88 c 1
 439 88 468 95 468 121 c 0x0840
 468 144 433 178 371 214 c 2
EndSplineSet
Validated: 1
EndChar

StartChar: dieresis
Encoding: 168 168 114
Width: 600
Flags: W
HStem: 534 120<149.745 241.66 357.745 449.66>
VStem: 136 120<547.745 640.171> 344 120<547.745 640.171>
LayerCount: 2
Fore
SplineSet
196 654 m 0
 230 654 256 627 256 593 c 0
 256 561 229 534 196 534 c 0
 163 534 136 561 136 594 c 0
 136 627 163 654 196 654 c 0
404 654 m 0
 438 654 464 627 464 593 c 0
 464 561 437 534 404 534 c 0
 371 534 344 561 344 594 c 0
 344 627 371 654 404 654 c 0
EndSplineSet
Validated: 1
EndChar

StartChar: copyright
Encoding: 169 169 115
Width: 600
Flags: W
HStem: -15 73<204.69 395.478> 118 71<234.692 370.867> 324 142<370.237 427.313> 395 71<235.544 353.26> 525 73<202.114 396.616>
VStem: -7 73<195.184 389.084> 135 71<215.637 365.305> 360 71<326.385 384.625> 533 73<193.959 389.084>
LayerCount: 2
Fore
SplineSet
135 269 m 2xdf80
 135 305 l 2
 135 397 202 466 291 466 c 0xdf80
 319 466 342 461 370 447 c 1
 375 459 384 466 398 466 c 0
 418 466 431 451 431 428 c 2
 431 368 l 2
 431 340 418 324 396 324 c 0xef80
 375 324 365 335 360 360 c 0
 357 379 327 395 293 395 c 0
 242 395 206 357 206 304 c 2
 206 270 l 2
 206 221 244 189 303 189 c 0
 342 189 355 194 378 218 c 0
 385 225 394 229 403 229 c 0
 422 229 439 212 439 193 c 0
 439 154 373 118 302 118 c 0
 206 118 135 182 135 269 c 2xdf80
299 598 m 0
 469 598 606 461 606 292 c 0
 606 121 469 -15 296 -15 c 0
 131 -15 -7 124 -7 292 c 0
 -7 461 130 598 299 598 c 0
300 525 m 0
 170 525 66 421 66 292 c 0
 66 164 171 58 297 58 c 0
 429 58 533 161 533 292 c 0
 533 421 428 525 300 525 c 0
EndSplineSet
Validated: 1
EndChar

StartChar: ordfeminine
Encoding: 170 170 116
Width: 600
Flags: W
HStem: 182 77<126.057 479.538> 273 79<209.931 337.697> 284 78<432 485.42> 417 70<220.673 352.582> 517 78<183.298 352.484>
VStem: 118 91<355.631 402.667> 354 78<371.271 413.625 482 510.932>
LayerCount: 2
Fore
SplineSet
296 517 m 0xde
 242 517 210 501 189 501 c 0
 168 501 151 519 151 541 c 0
 151 557 160 569 175 575 c 0
 209 587 257 595 292 595 c 0
 381 595 432 557 432 490 c 2
 432 362 l 1
 438 362 l 2
 473 362 489 350 489 323 c 0
 489 298 472 284 439 284 c 2
 354 284 l 1xbe
 354 295 l 1
 314 279 285 273 246 273 c 0
 175 273 118 316 118 369 c 0
 118 411 158 487 292 487 c 0
 312 487 325 486 354 482 c 1
 354 490 l 2
 354 509 337 517 296 517 c 0xde
354 383 m 1
 354 410 l 1
 322 416 307 417 288 417 c 0
 246 417 209 397 209 374 c 0
 209 361 227 352 252 352 c 0xde
 284 352 328 365 354 383 c 1
432 182 m 2
 176 182 l 2
 132 182 124 189 124 227 c 0
 124 252 135 259 176 259 c 2
 431 259 l 2
 467 259 483 247 483 221 c 0
 483 195 466 182 432 182 c 2
EndSplineSet
Validated: 1
EndChar

StartChar: guillemotleft
Encoding: 171 171 117
Width: 600
Flags: W
LayerCount: 2
Fore
SplineSet
175 218 m 1
 326 77 l 2
 337 67 342 59 342 50 c 0
 342 34 327 20 309 20 c 0
 300 20 295 22 281 33 c 2
 33 218 l 1
 281 402 l 2
 295 413 300 415 310 415 c 0
 327 415 342 401 342 385 c 0
 342 376 338 368 326 358 c 2
 175 218 l 1
404 218 m 1
 555 77 l 2
 566 67 571 59 571 50 c 0
 571 34 556 20 538 20 c 0
 529 20 524 22 510 33 c 2
 262 218 l 1
 510 402 l 2
 524 413 529 415 539 415 c 0
 556 415 571 401 571 385 c 0
 571 376 567 368 555 358 c 2
 404 218 l 1
EndSplineSet
Validated: 1
EndChar

StartChar: logicalnot
Encoding: 172 172 118
Width: 600
Flags: W
HStem: 345 100<50.5239 365>
VStem: 365 100<122.323 345>
LayerCount: 2
Fore
SplineSet
465 445 m 1
 465 181 l 2
 465 138 450 115 415 115 c 0
 380 115 365 138 365 181 c 2
 365 345 l 1
 108 345 l 2
 67 345 42 361 42 395 c 0
 42 430 64 445 108 445 c 2
 465 445 l 1
EndSplineSet
Validated: 1
EndChar

StartChar: registered
Encoding: 174 174 120
Width: 600
Flags: W
HStem: -15 73<204.69 395.478> 126 71<156.598 197 269 308.415> 246 70<269 309.39> 387 71<156.781 197 269 343.484> 525 73<202.775 396.676>
VStem: -7 73<195.184 388.676> 154 157<129.717 193.667> 197 72<197 246 316 387> 348 71<323.709 381.323> 363 84<129.717 179.809> 533 73<193.959 388.869>
LayerCount: 2
Fore
SplineSet
269 246 m 1xfd60
 269 197 l 1xfd60
 295 197 311 184 311 162 c 0
 311 139 295 126 267 126 c 2
 199 126 l 2
 170 126 154 139 154 162 c 0xfe20
 154 184 169 197 197 197 c 1
 197 387 l 1xfd20
 169 388 154 401 154 423 c 0
 154 446 170 458 199 458 c 2
 292 458 l 2
 367 458 419 415 419 354 c 0xfea0
 419 317 395 283 358 266 c 1
 382 244 389 235 411 197 c 1
 434 195 447 182 447 162 c 0
 447 139 431 126 403 126 c 2
 363 126 l 1
 351 175 312 233 284 246 c 1
 269 246 l 1xfd60
269 316 m 1
 294 316 l 2
 325 316 348 333 348 355 c 0xfda0
 348 374 327 387 294 387 c 2
 269 387 l 1
 269 316 l 1
300 598 m 0
 468 598 606 461 606 292 c 0
 606 121 469 -15 296 -15 c 0
 131 -15 -7 124 -7 292 c 0
 -7 460 131 598 300 598 c 0
300 525 m 0
 171 525 66 420 66 292 c 0
 66 164 171 58 297 58 c 0
 429 58 533 161 533 292 c 0
 533 420 428 525 300 525 c 0
EndSplineSet
Validated: 1
EndChar

StartChar: macron
Encoding: 175 175 121
Width: 600
Flags: W
HStem: 546 80<129.42 470.41>
LayerCount: 2
Fore
SplineSet
178 626 m 2
 422 626 l 2
 458 626 475 615 475 586 c 0
 475 561 455 546 422 546 c 2
 178 546 l 2
 143 546 125 558 125 586 c 0
 125 611 144 626 178 626 c 2
EndSplineSet
Validated: 1
EndChar

StartChar: degree
Encoding: 176 176 122
Width: 600
Flags: W
HStem: 243 61<234.7 364.599> 535 61<234.839 365.161>
VStem: 125 61<354.361 485.4> 414 61<353.731 485.4>
LayerCount: 2
Fore
SplineSet
300 596 m 0
 397 596 475 517 475 420 c 0
 475 321 397 243 298 243 c 0
 204 243 125 323 125 420 c 0
 125 517 203 596 300 596 c 0
300 535 m 0
 237 535 186 483 186 420 c 0
 186 357 238 304 299 304 c 0
 363 304 414 356 414 420 c 0
 414 483 363 535 300 535 c 0
EndSplineSet
Validated: 1
EndChar

StartChar: plusminus
Encoding: 177 177 123
Width: 600
Flags: W
HStem: 0 100<50.4967 550.677> 330 100<50.4967 250 350 550.642> 604 20G<283 317.5>
VStem: 250 100<172.031 330 430 615.736>
LayerCount: 2
Fore
SplineSet
350 330 m 1
 350 230 l 2
 350 187 335 164 300 164 c 0
 265 164 250 188 250 230 c 2
 250 330 l 1
 108 330 l 2
 67 330 42 346 42 380 c 0
 42 415 65 430 108 430 c 2
 250 430 l 1
 250 558 l 2
 250 600 266 624 300 624 c 0
 335 624 350 602 350 558 c 2
 350 430 l 1
 491 430 l 2
 535 430 558 415 558 380 c 0
 558 345 535 330 491 330 c 2
 350 330 l 1
108 100 m 2
 492 100 l 2
 535 100 558 85 558 50 c 0
 558 15 535 0 492 0 c 2
 108 0 l 2
 67 0 42 16 42 50 c 0
 42 85 65 100 108 100 c 2
EndSplineSet
Validated: 1
EndChar

StartChar: twosuperior
Encoding: 178 178 124
Width: 600
Flags: W
HStem: 247 99<364.531 426.065> 247 67<253 370.531> 570 67<239.667 346.649>
VStem: 161 64<502.317 555.304> 358 67<479.193 556.844>
LayerCount: 2
Fore
SplineSet
161 533 m 0x78
 161 569 207 637 294 637 c 0
 369 637 425 586 425 517 c 0
 425 466 402 439 253 314 c 1
 362 314 l 1x78
 365 335 376 346 395 346 c 0xb8
 418 346 429 332 429 303 c 2
 429 247 l 1
 149 247 l 1
 149 315 l 1
 335 469 358 492 358 520 c 0
 358 548 330 570 293 570 c 0
 237 570 227 528 225 520 c 0
 221 508 208 500 195 500 c 0
 176 500 161 515 161 533 c 0x78
EndSplineSet
Validated: 1
EndChar

StartChar: threesuperior
Encoding: 179 179 125
Width: 600
Flags: W
HStem: 238 67<184.928 361.357> 418 66<254.038 354.95> 570 67<237.415 355.599>
VStem: 362 67<493.675 560.357> 375 67<320.189 397.308>
LayerCount: 2
Fore
SplineSet
190 326 m 0xe8
 218 326 199 305 283 305 c 0
 343 305 375 323 375 357 c 0xe8
 375 392 336 418 286 418 c 0
 265 418 252 432 252 451 c 0
 252 470 267 484 286 484 c 0
 336 484 362 497 362 528 c 0
 362 554 337 570 299 570 c 0
 230 570 242 533 208 533 c 0
 190 533 175 549 175 567 c 0
 175 604 236 637 302 637 c 0
 375 637 429 591 429 529 c 0xf0
 429 476 380 450 378 448 c 1
 419 427 442 393 442 355 c 0
 442 322 424 238 285 238 c 0
 207 238 157 259 157 292 c 0
 157 311 172 326 190 326 c 0xe8
EndSplineSet
Validated: 1
EndChar

StartChar: acute
Encoding: 180 180 126
Width: 600
Flags: W
HStem: 496 200
VStem: 250 225
DStem2: 406 680 319 512 0.764911 0.644136<-209.187 34.3908>
LayerCount: 2
Fore
SplineSet
452 624 m 2
 319 512 l 2
 304 500 297 496 287 496 c 0
 267 496 250 513 250 532 c 0
 250 545 257 556 273 569 c 2
 406 680 l 2
 422 693 427 696 438 696 c 0
 459 696 475 680 475 659 c 0
 475 647 468 638 452 624 c 2
EndSplineSet
Validated: 1
EndChar

StartChar: paragraph
Encoding: 182 182 127
Width: 600
Flags: W
HStem: -174 78<141.5 270 468 554.345> 185 81<212.451 270> 505 78<348 392 468 552.345>
VStem: 49 113<309.828 455.111> 270 78<-96 187.225 266 500> 392 76<-96 505>
LayerCount: 2
Fore
SplineSet
468 505 m 1
 468 -96 l 1
 504 -96 l 2
 541 -96 558 -109 558 -135 c 0
 558 -161 540 -174 504 -174 c 2
 411 -174 l 2
 390 -174 380 -165 371 -140 c 1
 360 -168 352 -174 328 -174 c 2
 191 -174 l 2
 156 -174 138 -161 138 -135 c 0
 138 -108 157 -96 191 -96 c 2
 270 -96 l 1
 270 185 l 1
 141 198 49 272 49 361 c 2
 49 407 l 2
 49 504 163 583 305 583 c 2
 502 583 l 2
 538 583 556 570 556 544 c 0
 556 518 539 505 502 505 c 2
 468 505 l 1
270 266 m 1
 270 500 l 1
 203 486 162 450 162 405 c 2
 162 361 l 2
 162 316 203 280 270 266 c 1
392 505 m 1
 348 505 l 1
 348 -96 l 1
 361 -102 366 -108 371 -124 c 1
 375 -109 381 -102 392 -96 c 1
 392 505 l 1
EndSplineSet
Validated: 1
EndChar

StartChar: periodcentered
Encoding: 183 183 128
Width: 600
Flags: W
HStem: 214 132<242.303 358.047>
VStem: 225 150<232.025 327.975>
LayerCount: 2
Fore
SplineSet
309 214 m 2
 291 214 l 2
 255 214 225 244 225 280 c 0
 225 316 255 346 291 346 c 2
 309 346 l 2
 346 346 375 317 375 280 c 0
 375 243 346 214 309 214 c 2
EndSplineSet
Validated: 1
EndChar

StartChar: cedilla
Encoding: 184 184 129
Width: 600
Flags: W
HStem: -229 70<235.481 336.103> -100 100<262 331.556>
VStem: 262 70<-47.4899 0> 337 70<-157.464 -105.414>
LayerCount: 2
Fore
SplineSet
215 -131 m 0
 235 -131 260 -159 301 -159 c 0
 324 -159 337 -150 337 -134 c 0
 337 -113 318 -100 284 -100 c 0
 279 -100 275 -100 262 -102 c 1
 262 0 l 1
 332 0 l 1
 332 -41 l 1
 383 -52 407 -81 407 -132 c 0
 407 -189 362 -229 300 -229 c 0
 262 -229 180 -209 180 -166 c 0
 180 -147 196 -131 215 -131 c 0
EndSplineSet
Validated: 1
EndChar

StartChar: onesuperior
Encoding: 185 185 130
Width: 600
Flags: W
HStem: 247 67<168.031 267 334 431.98> 618 20G<256.353 334>
VStem: 267 67<314 551>
LayerCount: 2
Fore
SplineSet
334 638 m 1
 334 314 l 1
 391 314 l 2
 420 314 434 303 434 281 c 0
 434 259 419 247 391 247 c 2
 210 247 l 2
 182 247 166 259 166 281 c 0
 166 303 180 314 210 314 c 2
 267 314 l 1
 267 551 l 1
 219 539 l 2
 208 536 205 535 199 535 c 0
 182 535 168 551 168 570 c 0
 168 589 177 597 202 604 c 2
 334 638 l 1
EndSplineSet
Validated: 1
EndChar

StartChar: ordmasculine
Encoding: 186 186 131
Width: 600
Flags: W
HStem: 182 77<125.344 476.538> 273 78<241.607 360.193> 517 78<242.431 359.969>
VStem: 131 79<381.815 483.694> 392 79<381.279 485.316>
LayerCount: 2
Fore
SplineSet
301 595 m 0
 396 595 471 521 471 428 c 0
 471 343 394 273 301 273 c 0
 207 273 131 343 131 430 c 0
 131 520 208 595 301 595 c 0
301 517 m 0
 252 517 210 477 210 430 c 0
 210 388 253 351 301 351 c 0
 349 351 392 388 392 430 c 0
 392 477 350 517 301 517 c 0
428 182 m 2
 174 182 l 2
 139 182 122 195 122 221 c 0
 122 247 140 259 174 259 c 2
 428 259 l 2
 464 259 480 247 480 221 c 0
 480 195 463 182 428 182 c 2
EndSplineSet
Validated: 1
EndChar

StartChar: guillemotright
Encoding: 187 187 132
Width: 600
Flags: W
LayerCount: 2
Fore
SplineSet
430 217 m 1
 279 358 l 2
 268 368 263 376 263 385 c 0
 263 401 278 415 296 415 c 0
 305 415 310 413 324 402 c 2
 571 217 l 1
 324 33 l 2
 310 22 305 20 295 20 c 0
 278 20 263 34 263 50 c 0
 263 59 267 67 279 77 c 2
 430 217 l 1
200 217 m 1
 49 358 l 2
 38 368 33 376 33 385 c 0
 33 401 48 415 66 415 c 0
 75 415 80 413 94 402 c 2
 341 217 l 1
 94 33 l 2
 80 22 75 20 65 20 c 0
 48 20 33 34 33 50 c 0
 33 59 37 67 49 77 c 2
 200 217 l 1
EndSplineSet
Validated: 1
EndChar

StartChar: onequarter
Encoding: 188 188 133
Width: 600
Flags: W
HStem: 0 67<465.02 525 592 627.043> 83 67<446 525 592 627.043> 247 67<-31.9693 67 134 231.98> 567 20G<442.5 458.5> 618 20G<56.3529 134>
VStem: 67 67<314 551> 463 166<3.45459 64.0916> 525 67<67 83 150 279>
DStem2: 155 110 213 77 0.499445 0.866345<-27.2728 549.556> 362 138 446 150 0.516576 0.856242<53.6672 204.932>
LayerCount: 2
Fore
SplineSet
134 638 m 1xfc
 134 314 l 1
 191 314 l 2
 220 314 234 303 234 281 c 0
 234 259 219 247 191 247 c 2
 10 247 l 2
 -18 247 -34 259 -34 281 c 0
 -34 303 -20 314 10 314 c 2
 67 314 l 1
 67 551 l 1
 19 539 l 2
 8 536 5 535 -1 535 c 0
 -18 535 -32 551 -32 570 c 0
 -32 589 -23 597 2 604 c 2
 134 638 l 1xfc
473 528 m 2
 213 77 l 2
 202 58 193 51 179 51 c 0
 161 51 145 67 145 84 c 0
 145 90 148 99 155 110 c 2
 415 561 l 2
 427 581 435 587 450 587 c 0
 467 587 484 571 484 555 c 0
 484 548 481 541 473 528 c 2
592 380 m 1xfd
 592 150 l 1xfd
 615 149 629 137 629 117 c 0xfe
 629 97 616 84 592 83 c 1
 592 67 l 1xfd
 615 66 629 54 629 34 c 0
 629 12 613 0 585 0 c 2
 506 0 l 2
 478 0 463 12 463 34 c 0xfe
 463 56 477 67 506 67 c 2
 525 67 l 1
 525 83 l 1
 362 83 l 1
 362 138 l 1
 508 380 l 1
 592 380 l 1xfd
525 150 m 1
 525 279 l 1
 446 150 l 1
 525 150 l 1
EndSplineSet
Validated: 1
LCarets2: 2 0 0 
EndChar

StartChar: onehalf
Encoding: 189 189 134
Width: 600
Flags: W
HStem: 0 99<564.531 626.065> 0 67<453 570.531> 247 67<-31.9693 67 134 231.98> 323 67<439.667 546.649> 567 20G<442.5 458.5> 618 20G<56.3529 134>
VStem: 67 67<314 551> 361 64<255.317 308.304> 558 67<232.193 309.844>
DStem2: 155 110 213 77 0.499445 0.866345<-27.2728 549.556>
LayerCount: 2
Fore
SplineSet
134 638 m 1x3f80
 134 314 l 1
 191 314 l 2
 220 314 234 303 234 281 c 0
 234 259 219 247 191 247 c 2
 10 247 l 2
 -18 247 -34 259 -34 281 c 0
 -34 303 -20 314 10 314 c 2
 67 314 l 1
 67 551 l 1
 19 539 l 2
 8 536 5 535 -1 535 c 0
 -18 535 -32 551 -32 570 c 0
 -32 589 -23 597 2 604 c 2
 134 638 l 1x3f80
473 528 m 2
 213 77 l 2
 202 58 193 51 179 51 c 0
 161 51 145 67 145 84 c 0
 145 90 148 99 155 110 c 2
 415 561 l 2
 427 581 435 587 450 587 c 0
 467 587 484 571 484 555 c 0
 484 548 481 541 473 528 c 2
361 286 m 0
 361 322 407 390 494 390 c 0
 569 390 625 339 625 270 c 0
 625 219 602 192 453 67 c 1
 562 67 l 1x7f80
 565 88 576 99 595 99 c 0xbf80
 618 99 629 85 629 56 c 2
 629 0 l 1
 349 0 l 1x7f80
 349 68 l 1
 535 222 558 245 558 273 c 0
 558 301 530 323 493 323 c 0
 437 323 427 281 425 273 c 0
 421 261 408 253 395 253 c 0
 376 253 361 268 361 286 c 0
EndSplineSet
Validated: 1
LCarets2: 2 0 0 
EndChar

StartChar: threequarters
Encoding: 190 190 135
Width: 600
Flags: W
HStem: 0 67<465.031 526 593 628.043> 83 67<446 526 593 628.043> 238 67<-15.0722 161.357> 418 66<54.0382 154.95> 567 20G<442.5 458.5> 570 67<37.4153 155.599>
VStem: 162 67<493.675 560.357> 175 67<320.189 397.308> 463 167<3.45459 64.0916> 526 67<67 83 150 279>
DStem2: 155 110 213 77 0.500885 0.865514<-27.2281 549.697> 362 138 446 150 0.519162 0.854676<53.8657 205.652>
LayerCount: 2
Fore
SplineSet
-10 326 m 0xf5
 18 326 -1 305 83 305 c 0
 143 305 175 323 175 357 c 0xf5
 175 392 136 418 86 418 c 0
 65 418 52 432 52 451 c 0
 52 470 67 484 86 484 c 0
 136 484 162 497 162 528 c 0
 162 554 137 570 99 570 c 0xf6
 30 570 42 533 8 533 c 0
 -10 533 -25 549 -25 567 c 0xfa
 -25 604 36 637 102 637 c 0
 175 637 229 591 229 529 c 0xf6
 229 476 180 450 178 448 c 1
 219 427 242 393 242 355 c 0
 242 322 224 238 85 238 c 0
 7 238 -43 259 -43 292 c 0
 -43 311 -28 326 -10 326 c 0xf5
474 528 m 2
 213 77 l 2
 202 58 193 51 179 51 c 0
 161 51 145 66 145 84 c 0
 145 91 147 97 155 110 c 2
 416 561 l 2
 427 581 435 587 450 587 c 0xf8
 467 587 484 571 484 555 c 0
 484 549 480 539 474 528 c 2
593 380 m 1xf040
 593 150 l 1xf040
 616 149 630 137 630 117 c 0xf080
 630 97 617 84 593 83 c 1
 593 67 l 1xf040
 616 66 630 54 630 34 c 0
 630 12 614 0 586 0 c 2
 507 0 l 2
 479 0 463 12 463 34 c 0xf080
 463 56 477 67 507 67 c 2
 526 67 l 1
 526 83 l 1
 362 83 l 1
 362 138 l 1
 509 380 l 1
 593 380 l 1xf040
526 150 m 1
 526 279 l 1
 446 150 l 1
 526 150 l 1
EndSplineSet
Validated: 1
LCarets2: 2 0 0 
EndChar

StartChar: questiondown
Encoding: 191 191 136
Width: 600
Flags: W
HStem: -227 100<215.755 390.889> 254 132<239.953 355.594>
VStem: 83 100<-94.4109 2.31334> 223 150<272.025 367.975> 396 100<-112.352 -31.0315>
LayerCount: 2
Fore
SplineSet
496 -89 m 2
 496 -168 l 1
 399 -215 356 -227 292 -227 c 0
 168 -227 83 -150 83 -38 c 0
 83 43 126 90 247 143 c 1
 251 179 268 197 297 197 c 0
 332 197 347 174 347 131 c 2
 347 75 l 1
 219 26 183 0 183 -43 c 0
 183 -93 227 -127 291 -127 c 0
 329 -127 363 -119 396 -103 c 1
 396 -89 l 2
 396 -46 412 -23 446 -23 c 0
 481 -23 496 -46 496 -89 c 2
289 386 m 2
 306 386 l 2
 343 386 373 356 373 320 c 0
 373 284 343 254 306 254 c 2
 289 254 l 2
 252 254 223 283 223 320 c 0
 223 357 252 386 289 386 c 2
EndSplineSet
Validated: 1
EndChar

StartChar: Agrave
Encoding: 192 192 137
Width: 600
Flags: W
HStem: 0 100<-12.9279 46 155 235.969 358.524 439 553 613.389> 158 100<218 375> 483 100<78.8394 201>
VStem: -21 265<9.70469 90.968> 350 271<9.767 90.6322>
DStem2: 46 100 155 100 0.375143 0.926967<40.8906 103.283 210.985 413.175> 210 824 297 656 0.764911 -0.644136<-33.7799 209.22> 354 583 297 450 0.380942 -0.924599<101.258 308.494 416.573 478.961>
LayerCount: 2
Fore
SplineSet
416 0 m 2
 359 0 350 30 350 50 c 0
 350 85 372 100 416 100 c 2
 439 100 l 1
 416 158 l 1
 178 158 l 1
 155 100 l 1
 178 100 l 2
 221 100 244 85 244 50 c 0
 244 15 220 0 178 0 c 2
 45 0 l 2
 1 0 -21 17 -21 50 c 0
 -21 85 2 100 46 100 c 1
 201 483 l 1
 138 483 l 2
 95 483 71 498 71 533 c 0
 71 568 93 583 138 583 c 2
 354 583 l 1
 553 100 l 1
 597 100 621 86 621 50 c 0
 621 15 597 0 555 0 c 2
 416 0 l 2
375 258 m 1
 297 450 l 1
 218 258 l 1
 375 258 l 1
210 824 m 2
 343 712 l 2
 359 699 366 688 366 676 c 0
 366 657 349 640 329 640 c 0
 320 640 310 645 297 656 c 2
 164 767 l 2
 147 781 141 790 141 803 c 0
 141 823 157 839 178 839 c 0
 188 839 196 835 210 824 c 2
EndSplineSet
Validated: 1
EndChar

StartChar: Aacute
Encoding: 193 193 138
Width: 600
Flags: W
HStem: 0 100<-12.9279 46 155 235.969 358.524 439 553 613.389> 158 100<218 375> 483 100<78.8394 201>
VStem: -21 265<9.70469 90.968> 350 271<9.767 90.6322>
DStem2: 46 100 155 100 0.375143 0.926967<40.8906 103.283 210.985 413.175> 354 583 297 450 0.380942 -0.924599<101.258 308.494 416.573 478.961> 364 824 277 656 0.764911 0.644136<-209.22 33.7799>
LayerCount: 2
Fore
SplineSet
416 0 m 2
 359 0 350 30 350 50 c 0
 350 85 372 100 416 100 c 2
 439 100 l 1
 416 158 l 1
 178 158 l 1
 155 100 l 1
 178 100 l 2
 221 100 244 85 244 50 c 0
 244 15 220 0 178 0 c 2
 45 0 l 2
 1 0 -21 17 -21 50 c 0
 -21 85 2 100 46 100 c 1
 201 483 l 1
 138 483 l 2
 95 483 71 498 71 533 c 0
 71 568 93 583 138 583 c 2
 354 583 l 1
 553 100 l 1
 597 100 621 86 621 50 c 0
 621 15 597 0 555 0 c 2
 416 0 l 2
375 258 m 1
 297 450 l 1
 218 258 l 1
 375 258 l 1
410 767 m 2
 277 656 l 2
 264 645 254 640 245 640 c 0
 225 640 208 657 208 676 c 0
 208 688 216 699 231 712 c 2
 364 824 l 2
 378 835 386 839 396 839 c 0
 417 839 433 823 433 803 c 0
 433 790 427 780 410 767 c 2
EndSplineSet
Validated: 1
EndChar

StartChar: Acircumflex
Encoding: 194 194 139
Width: 600
Flags: W
HStem: 0 100<-12.9279 46 155 235.969 358.524 439 553 613.389> 158 100<218 375> 483 100<78.8394 201>
VStem: -21 265<9.70469 90.968> 350 271<9.767 90.6322>
DStem2: 46 100 155 100 0.375143 0.926967<40.8906 103.283 210.985 413.175> 284 839 171 653 0.764911 0.644136<-235.712 -57.3281> 284 839 284 750 0.762811 -0.646621<57.5493 235.876> 354 583 297 450 0.380942 -0.924599<101.258 308.494 416.573 478.961>
LayerCount: 2
Fore
SplineSet
416 0 m 2
 359 0 350 30 350 50 c 0
 350 85 372 100 416 100 c 2
 439 100 l 1
 416 158 l 1
 178 158 l 1
 155 100 l 1
 178 100 l 2
 221 100 244 85 244 50 c 0
 244 15 220 0 178 0 c 2
 45 0 l 2
 1 0 -21 17 -21 50 c 0
 -21 85 2 100 46 100 c 1
 201 483 l 1
 138 483 l 2
 95 483 71 498 71 533 c 0
 71 568 93 583 138 583 c 2
 354 583 l 1
 553 100 l 1
 597 100 621 86 621 50 c 0
 621 15 597 0 555 0 c 2
 416 0 l 2
375 258 m 1
 297 450 l 1
 218 258 l 1
 375 258 l 1
284 750 m 1
 171 653 l 2
 159 643 152 640 143 640 c 0
 124 640 108 657 108 675 c 0
 108 689 110 692 132 711 c 2
 284 839 l 1
 435 711 l 2
 445 702 459 693 459 675 c 0
 459 657 443 640 425 640 c 0
 415 640 407 644 396 653 c 2
 284 750 l 1
EndSplineSet
Validated: 1
EndChar

StartChar: Atilde
Encoding: 195 195 140
Width: 600
Flags: W
HStem: 0 100<-12.9279 46 155 235.969 358.524 439 553 613.389> 158 100<218 375> 483 100<78.8394 201> 667 69<305.555 389.055> 730 69<174.049 261.314>
VStem: -21 265<9.70469 90.968> 350 271<9.767 90.6322>
DStem2: 46 100 155 100 0.375143 0.926967<40.8906 103.283 210.985 413.175> 354 583 297 450 0.380942 -0.924599<101.258 308.494 416.573 478.961>
LayerCount: 2
Fore
SplineSet
416 0 m 2xe6
 359 0 350 30 350 50 c 0
 350 85 372 100 416 100 c 2
 439 100 l 1
 416 158 l 1
 178 158 l 1
 155 100 l 1
 178 100 l 2
 221 100 244 85 244 50 c 0
 244 15 220 0 178 0 c 2
 45 0 l 2
 1 0 -21 17 -21 50 c 0
 -21 85 2 100 46 100 c 1
 201 483 l 1
 138 483 l 2
 95 483 71 498 71 533 c 0
 71 568 93 583 138 583 c 2
 354 583 l 1
 553 100 l 1
 597 100 621 86 621 50 c 0
 621 15 597 0 555 0 c 2
 416 0 l 2xe6
375 258 m 1
 297 450 l 1
 218 258 l 1
 375 258 l 1
356 736 m 0xf6
 392 736 401 799 436 799 c 0xee
 453 799 468 785 468 771 c 0
 468 750 420 667 359 667 c 0xf6
 306 667 246 730 210 730 c 0
 170 730 162 670 129 670 c 0
 112 670 98 683 98 700 c 0
 98 727 146 799 208 799 c 0xee
 261 799 321 736 356 736 c 0xf6
EndSplineSet
Validated: 1
EndChar

StartChar: Adieresis
Encoding: 196 196 141
Width: 600
Flags: W
HStem: 0 100<-12.9279 46 155 235.969 358.524 439 553 613.389> 158 100<218 375> 483 100<78.8394 201> 678 120<132.745 224.66 340.745 432.66>
VStem: -21 265<9.70469 90.968> 119 120<691.745 784.171> 327 120<691.745 784.171> 350 271<9.767 90.6322>
DStem2: 46 100 155 100 0.375143 0.926967<40.8906 103.283 210.985 413.175> 354 583 297 450 0.380942 -0.924599<101.258 308.494 416.573 478.961>
LayerCount: 2
Fore
SplineSet
416 0 m 2xf9
 359 0 350 30 350 50 c 0
 350 85 372 100 416 100 c 2
 439 100 l 1
 416 158 l 1
 178 158 l 1
 155 100 l 1
 178 100 l 2
 221 100 244 85 244 50 c 0
 244 15 220 0 178 0 c 2
 45 0 l 2
 1 0 -21 17 -21 50 c 0
 -21 85 2 100 46 100 c 1
 201 483 l 1
 138 483 l 2
 95 483 71 498 71 533 c 0
 71 568 93 583 138 583 c 2
 354 583 l 1
 553 100 l 1
 597 100 621 86 621 50 c 0
 621 15 597 0 555 0 c 2
 416 0 l 2xf9
375 258 m 1
 297 450 l 1
 218 258 l 1
 375 258 l 1
179 798 m 0
 213 798 239 771 239 737 c 0
 239 705 212 678 179 678 c 0
 146 678 119 705 119 738 c 0xf4
 119 771 146 798 179 798 c 0
387 798 m 0
 421 798 447 771 447 737 c 0
 447 705 420 678 387 678 c 0
 354 678 327 705 327 738 c 0xf2
 327 771 354 798 387 798 c 0
EndSplineSet
Validated: 1
EndChar

StartChar: Aring
Encoding: 197 197 142
Width: 600
Flags: W
HStem: 0 100<-12.9279 46 155 235.969 358.524 439 553 613.389> 158 100<218 375> 483 100<78.8394 201> 630 54<232.675 332.929> 818 53<232.675 333.54>
VStem: -21 265<9.70469 90.968> 160 53<703.557 798.154> 350 271<9.767 90.6322> 353 53<703.641 799.033>
DStem2: 46 100 155 100 0.375143 0.926967<40.8906 103.283 210.985 413.175> 354 583 297 450 0.380942 -0.924599<101.258 308.494 416.573 478.961>
LayerCount: 2
Fore
SplineSet
416 0 m 2xfd
 359 0 350 30 350 50 c 0
 350 85 372 100 416 100 c 2
 439 100 l 1
 416 158 l 1
 178 158 l 1
 155 100 l 1
 178 100 l 2
 221 100 244 85 244 50 c 0
 244 15 220 0 178 0 c 2
 45 0 l 2
 1 0 -21 17 -21 50 c 0
 -21 85 2 100 46 100 c 1
 201 483 l 1
 138 483 l 2
 95 483 71 498 71 533 c 0
 71 568 93 583 138 583 c 2
 354 583 l 1
 553 100 l 1
 597 100 621 86 621 50 c 0
 621 15 597 0 555 0 c 2
 416 0 l 2xfd
375 258 m 1
 297 450 l 1
 218 258 l 1
 375 258 l 1
283 871 m 0
 351 871 406 816 406 749 c 0
 406 685 349 630 283 630 c 0
 216 630 160 685 160 751 c 0xfa80
 160 816 216 871 283 871 c 0
283 818 m 0
 245 818 213 787 213 751 c 0
 213 715 245 684 283 684 c 0
 320 684 353 715 353 750 c 0
 353 787 321 818 283 818 c 0
EndSplineSet
Validated: 1
EndChar

StartChar: AE
Encoding: 198 198 143
Width: 600
Flags: W
HStem: 0 189<523.032 604.968> 0 100<-12.2012 53 157 189.457 217.754 267 367 514> 158 101<203 267> 187 210<395.43 476.968> 352 231<502.355 583.968> 483 100<96.0315 168 367 493>
VStem: -20 218<9.67798 90.2266> 267 100<100 158 342 471> 386 100<195.49 243 342 388.476> 493 100<360.031 483> 514 100<100 180.969>
DStem2: 53 100 157 100 0.287577 0.957757<29.908 90.3468 195.42 399.892>
LayerCount: 2
Fore
SplineSet
53 100 m 1x63a0
 168 483 l 1
 154 483 l 2
 111 483 88 499 88 533 c 0
 88 568 110 583 154 583 c 2
 593 583 l 1x67c0
 593 418 l 2
 593 375 578 352 543 352 c 0x0bc0
 509 352 493 375 493 418 c 2
 493 483 l 1x07c0
 367 483 l 1
 367 342 l 1
 386 342 l 1
 388 377 406 397 436 397 c 0
 471 397 486 375 486 331 c 2
 486 253 l 2
 486 210 471 187 436 187 c 0
 406 187 387 208 386 243 c 1
 367 243 l 1
 367 100 l 1
 514 100 l 1x57a0
 514 123 l 2
 514 165 529 189 564 189 c 0x83a0
 599 189 614 166 614 123 c 2
 614 0 l 1
 265 0 l 2
 231 0 209 20 209 52 c 0
 209 79 231 100 259 100 c 2
 267 100 l 1
 267 158 l 1
 174 158 l 1
 157 100 l 1
 183 96 198 79 198 53 c 0
 198 19 177 0 141 0 c 2
 46 0 l 2
 2 0 -20 17 -20 50 c 0
 -20 88 7 100 53 100 c 1x63a0
267 259 m 1
 267 471 l 1
 203 259 l 1
 267 259 l 1
EndSplineSet
Validated: 1
EndChar

StartChar: Ccedilla
Encoding: 199 199 144
Width: 600
Flags: W
HStem: -229 70<240.9 341.609> -100 186<271.54 336.043> 367 216<459.141 539.968> 497 100<222.661 401.152>
VStem: 33 100<170.265 404.182> 267 70<-48.0905 -12.4761> 342 70<-157.297 -105.209> 449 100<375.144 456.205>
LayerCount: 2
Fore
SplineSet
329 86 m 0xdf
 482 86 458 159 514 159 c 0
 541 159 564 136 564 108 c 0
 564 32 433 -8 337 -14 c 1
 337 -42 l 1
 388 -52 412 -81 412 -132 c 0
 412 -188 367 -229 307 -229 c 0
 267 -229 185 -211 185 -166 c 0
 185 -147 201 -131 220 -131 c 0
 242 -131 263 -159 306 -159 c 0
 329 -159 342 -150 342 -134 c 0
 342 -113 323 -100 292 -100 c 0
 288 -100 284 -100 267 -102 c 1
 267 -9 l 1
 132 18 33 110 33 249 c 2
 33 315 l 2
 33 475 150 597 305 597 c 0xdf
 361 597 401 586 457 559 c 1
 470 577 482 583 499 583 c 0
 534 583 549 560 549 517 c 2
 549 433 l 2
 549 390 534 367 499 367 c 0xef
 453 367 450 413 449 420 c 0
 441 469 369 497 309 497 c 0
 207 497 133 421 133 315 c 2
 133 251 l 2
 133 151 210 86 329 86 c 0xdf
EndSplineSet
Validated: 1
EndChar

StartChar: Egrave
Encoding: 200 200 145
Width: 600
Flags: W
HStem: 0 219<459.032 540.968> 0 100<21.4967 94 194 450> 170 246<288.032 367.7> 243 99<194 279> 366 217<437.032 518.968> 483 100<20.7988 94 194 428>
VStem: 94 100<100 243 342 483> 279 99<177.323 243 342 407.695> 428 100<373.358 483> 450 100<100 211.161>
DStem2: 211 824 298 656 0.764911 -0.644136<-33.7799 209.22>
LayerCount: 2
Fore
SplineSet
328 416 m 0x2380
 363 416 378 389 378 349 c 2
 378 236 l 2
 378 193 363 170 329 170 c 0x2380
 294 170 279 193 279 236 c 2
 279 243 l 1
 194 243 l 1
 194 100 l 1
 450 100 l 1x5340
 450 152 l 2
 450 197 465 219 500 219 c 0x8340
 535 219 550 196 550 152 c 2
 550 0 l 1x4340
 79 0 l 2
 38 0 13 16 13 50 c 0
 13 84 36 100 79 100 c 2
 94 100 l 1
 94 483 l 1
 79 483 l 2
 36 483 13 498 13 533 c 0
 13 568 35 583 79 583 c 2
 528 583 l 1x4780
 528 433 l 2
 528 389 513 366 478 366 c 0x0b80
 443 366 428 389 428 433 c 2
 428 483 l 1
 194 483 l 1
 194 342 l 1
 279 342 l 1x1780
 279 349 l 2
 279 392 294 416 328 416 c 0x2380
211 824 m 2
 344 712 l 2
 360 699 367 688 367 676 c 0
 367 657 350 640 330 640 c 0
 321 640 311 645 298 656 c 2
 165 767 l 2
 148 781 142 790 142 803 c 0
 142 823 158 839 179 839 c 0
 189 839 197 835 211 824 c 2
EndSplineSet
Validated: 1
EndChar

StartChar: Eacute
Encoding: 201 201 146
Width: 600
Flags: W
HStem: 0 219<459.032 540.968> 0 100<21.4967 94 194 450> 170 246<288.032 367.7> 243 99<194 279> 366 217<437.032 518.968> 483 100<20.7988 94 194 428>
VStem: 94 100<100 243 342 483> 279 99<177.323 243 342 407.695> 428 100<373.358 483> 450 100<100 211.161>
DStem2: 371 824 284 656 0.764911 0.644136<-209.22 33.7799>
LayerCount: 2
Fore
SplineSet
328 416 m 0x2380
 363 416 378 389 378 349 c 2
 378 236 l 2
 378 193 363 170 329 170 c 0x2380
 294 170 279 193 279 236 c 2
 279 243 l 1
 194 243 l 1
 194 100 l 1
 450 100 l 1x5340
 450 152 l 2
 450 197 465 219 500 219 c 0x8340
 535 219 550 196 550 152 c 2
 550 0 l 1x4340
 79 0 l 2
 38 0 13 16 13 50 c 0
 13 84 36 100 79 100 c 2
 94 100 l 1
 94 483 l 1
 79 483 l 2
 36 483 13 498 13 533 c 0
 13 568 35 583 79 583 c 2
 528 583 l 1x4780
 528 433 l 2
 528 389 513 366 478 366 c 0x0b80
 443 366 428 389 428 433 c 2
 428 483 l 1
 194 483 l 1
 194 342 l 1
 279 342 l 1x1780
 279 349 l 2
 279 392 294 416 328 416 c 0x2380
417 767 m 2
 284 656 l 2
 271 645 261 640 252 640 c 0
 232 640 215 657 215 676 c 0
 215 688 223 699 238 712 c 2
 371 824 l 2
 385 835 393 839 403 839 c 0
 424 839 440 823 440 803 c 0
 440 790 434 780 417 767 c 2
EndSplineSet
Validated: 1
EndChar

StartChar: Ecircumflex
Encoding: 202 202 147
Width: 600
Flags: W
HStem: 0 219<459.032 540.968> 0 100<21.4967 94 194 450> 170 246<288.032 367.7> 243 99<194 279> 366 217<437.032 518.968> 483 100<20.7988 94 194 428>
VStem: 94 100<100 243 342 483> 279 99<177.323 243 342 407.695> 428 100<373.358 483> 450 100<100 211.161>
DStem2: 292 839 179 653 0.764911 0.644136<-235.712 -57.3281> 292 839 292 750 0.762811 -0.646621<57.5493 235.876>
LayerCount: 2
Fore
SplineSet
328 416 m 0x2380
 363 416 378 389 378 349 c 2
 378 236 l 2
 378 193 363 170 329 170 c 0x2380
 294 170 279 193 279 236 c 2
 279 243 l 1
 194 243 l 1
 194 100 l 1
 450 100 l 1x5340
 450 152 l 2
 450 197 465 219 500 219 c 0x8340
 535 219 550 196 550 152 c 2
 550 0 l 1x4340
 79 0 l 2
 38 0 13 16 13 50 c 0
 13 84 36 100 79 100 c 2
 94 100 l 1
 94 483 l 1
 79 483 l 2
 36 483 13 498 13 533 c 0
 13 568 35 583 79 583 c 2
 528 583 l 1x4780
 528 433 l 2
 528 389 513 366 478 366 c 0x0b80
 443 366 428 389 428 433 c 2
 428 483 l 1
 194 483 l 1
 194 342 l 1
 279 342 l 1x1780
 279 349 l 2
 279 392 294 416 328 416 c 0x2380
292 750 m 1
 179 653 l 2
 167 643 160 640 151 640 c 0
 132 640 116 657 116 675 c 0
 116 689 118 692 140 711 c 2
 292 839 l 1
 443 711 l 2
 453 702 467 693 467 675 c 0
 467 657 451 640 433 640 c 0
 423 640 415 644 404 653 c 2
 292 750 l 1
EndSplineSet
Validated: 1
EndChar

StartChar: Edieresis
Encoding: 203 203 148
Width: 600
Flags: W
HStem: 0 219<459.032 540.968> 0 100<21.4967 94 194 450> 170 246<288.032 367.7> 243 99<194 279> 366 217<437.032 518.968> 483 100<20.7988 94 194 428> 678 120<140.745 232.66 348.745 440.66>
VStem: 94 100<100 243 342 483> 127 120<691.745 784.171> 279 99<177.323 243 342 407.695> 335 120<691.745 784.171> 428 100<373.358 483> 450 100<100 211.161>
LayerCount: 2
Fore
SplineSet
328 416 m 0x2350
 363 416 378 389 378 349 c 2
 378 236 l 2
 378 193 363 170 329 170 c 0x2350
 294 170 279 193 279 236 c 2
 279 243 l 1
 194 243 l 1
 194 100 l 1
 450 100 l 1x5348
 450 152 l 2
 450 197 465 219 500 219 c 0x8348
 535 219 550 196 550 152 c 2
 550 0 l 1x4348
 79 0 l 2
 38 0 13 16 13 50 c 0
 13 84 36 100 79 100 c 2
 94 100 l 1
 94 483 l 1
 79 483 l 2
 36 483 13 498 13 533 c 0
 13 568 35 583 79 583 c 2
 528 583 l 1x4710
 528 433 l 2
 528 389 513 366 478 366 c 0x0b10
 443 366 428 389 428 433 c 2
 428 483 l 1
 194 483 l 1
 194 342 l 1
 279 342 l 1x1750
 279 349 l 2
 279 392 294 416 328 416 c 0x2350
187 798 m 0
 221 798 247 771 247 737 c 0
 247 705 220 678 187 678 c 0
 154 678 127 705 127 738 c 0x0280
 127 771 154 798 187 798 c 0
395 798 m 0
 429 798 455 771 455 737 c 0
 455 705 428 678 395 678 c 0
 362 678 335 705 335 738 c 0x0220
 335 771 362 798 395 798 c 0
EndSplineSet
Validated: 1
EndChar

StartChar: Igrave
Encoding: 204 204 149
Width: 600
Flags: W
HStem: 0 100<91.5239 250 350 509.201> 483 100<90.7988 250 350 509.201>
VStem: 250 100<100 483>
DStem2: 220 824 307 656 0.764911 -0.644136<-33.7799 209.22>
LayerCount: 2
Fore
SplineSet
149 0 m 2
 92 0 83 30 83 50 c 0
 83 85 105 100 149 100 c 2
 250 100 l 1
 250 483 l 1
 149 483 l 2
 106 483 83 498 83 533 c 0
 83 568 105 583 149 583 c 2
 451 583 l 2
 495 583 517 568 517 533 c 0
 517 498 494 483 451 483 c 2
 350 483 l 1
 350 100 l 1
 451 100 l 2
 495 100 517 85 517 50 c 0
 517 17 495 0 451 0 c 2
 149 0 l 2
220 824 m 2
 353 712 l 2
 369 699 376 688 376 676 c 0
 376 657 359 640 339 640 c 0
 330 640 320 645 307 656 c 2
 174 767 l 2
 157 781 151 790 151 803 c 0
 151 823 167 839 188 839 c 0
 198 839 206 835 220 824 c 2
EndSplineSet
Validated: 1
EndChar

StartChar: Iacute
Encoding: 205 205 150
Width: 600
Flags: W
HStem: 0 100<91.5239 250 350 509.201> 483 100<90.7988 250 350 509.201>
VStem: 250 100<100 483>
DStem2: 406 824 319 656 0.764911 0.644136<-209.22 33.7799>
LayerCount: 2
Fore
SplineSet
149 0 m 2
 92 0 83 30 83 50 c 0
 83 85 105 100 149 100 c 2
 250 100 l 1
 250 483 l 1
 149 483 l 2
 106 483 83 498 83 533 c 0
 83 568 105 583 149 583 c 2
 451 583 l 2
 495 583 517 568 517 533 c 0
 517 498 494 483 451 483 c 2
 350 483 l 1
 350 100 l 1
 451 100 l 2
 495 100 517 85 517 50 c 0
 517 17 495 0 451 0 c 2
 149 0 l 2
452 767 m 2
 319 656 l 2
 306 645 296 640 287 640 c 0
 267 640 250 657 250 676 c 0
 250 688 258 699 273 712 c 2
 406 824 l 2
 420 835 428 839 438 839 c 0
 459 839 475 823 475 803 c 0
 475 790 469 780 452 767 c 2
EndSplineSet
Validated: 1
EndChar

StartChar: Icircumflex
Encoding: 206 206 151
Width: 600
Flags: W
HStem: 0 100<91.5239 250 350 509.201> 483 100<90.7988 250 350 509.201>
VStem: 250 100<100 483>
DStem2: 300 839 187 653 0.764911 0.644136<-235.712 -57.3281> 300 839 300 750 0.762811 -0.646621<57.5493 235.876>
LayerCount: 2
Fore
SplineSet
149 0 m 2
 92 0 83 30 83 50 c 0
 83 85 105 100 149 100 c 2
 250 100 l 1
 250 483 l 1
 149 483 l 2
 106 483 83 498 83 533 c 0
 83 568 105 583 149 583 c 2
 451 583 l 2
 495 583 517 568 517 533 c 0
 517 498 494 483 451 483 c 2
 350 483 l 1
 350 100 l 1
 451 100 l 2
 495 100 517 85 517 50 c 0
 517 17 495 0 451 0 c 2
 149 0 l 2
300 750 m 1
 187 653 l 2
 175 643 168 640 159 640 c 0
 140 640 124 657 124 675 c 0
 124 689 126 692 148 711 c 2
 300 839 l 1
 451 711 l 2
 461 702 475 693 475 675 c 0
 475 657 459 640 441 640 c 0
 431 640 423 644 412 653 c 2
 300 750 l 1
EndSplineSet
Validated: 1
EndChar

StartChar: Idieresis
Encoding: 207 207 152
Width: 600
Flags: W
HStem: 0 100<91.5239 250 350 509.201> 483 100<90.7988 250 350 509.201> 678 120<149.745 241.66 357.745 449.66>
VStem: 136 120<691.745 784.171> 250 100<100 483> 344 120<691.745 784.171>
LayerCount: 2
Fore
SplineSet
149 0 m 2xe8
 92 0 83 30 83 50 c 0
 83 85 105 100 149 100 c 2
 250 100 l 1
 250 483 l 1
 149 483 l 2
 106 483 83 498 83 533 c 0
 83 568 105 583 149 583 c 2
 451 583 l 2
 495 583 517 568 517 533 c 0
 517 498 494 483 451 483 c 2
 350 483 l 1
 350 100 l 1
 451 100 l 2
 495 100 517 85 517 50 c 0
 517 17 495 0 451 0 c 2
 149 0 l 2xe8
196 798 m 0
 230 798 256 771 256 737 c 0
 256 705 229 678 196 678 c 0
 163 678 136 705 136 738 c 0xf0
 136 771 163 798 196 798 c 0
404 798 m 0
 438 798 464 771 464 737 c 0
 464 705 437 678 404 678 c 0
 371 678 344 705 344 738 c 0xe4
 344 771 371 798 404 798 c 0
EndSplineSet
Validated: 1
EndChar

StartChar: Eth
Encoding: 208 208 153
Width: 600
Flags: W
HStem: 0 100<21.7568 74 174 379.903> 243 100<9.07715 74 174 306.201> 483 100<21.2919 74 174 370.025>
VStem: 74 100<100 243 343 483> 450 100<171.261 395.503>
LayerCount: 2
Fore
SplineSet
79 0 m 2
 23 0 13 30 13 50 c 0
 13 82 36 100 74 100 c 1
 74 243 l 1
 14 243 0 269 0 293 c 0
 0 331 26 343 74 343 c 1
 74 483 l 1
 35 483 13 501 13 533 c 0
 13 568 35 583 80 583 c 2
 292 583 l 2
 438 583 550 462 550 305 c 2
 550 258 l 2
 550 103 442 0 284 0 c 2
 79 0 l 2
450 307 m 2
 450 368 417 483 284 483 c 2
 174 483 l 1
 174 343 l 1
 248 343 l 2
 292 343 314 328 314 293 c 0
 314 260 292 243 248 243 c 2
 174 243 l 1
 174 100 l 1
 285 100 l 2
 391 100 450 158 450 261 c 2
 450 307 l 2
EndSplineSet
Validated: 1
EndChar

StartChar: Ntilde
Encoding: 209 209 154
Width: 600
Flags: W
HStem: 0 100<20.2919 73 173 265.736> 483 100<-0.201172 73 337.799 431 531 583.956> 667 69<320.555 404.055> 730 69<189.049 276.314>
VStem: 12 262<9.70469 90.6895> 73 100<100 394> 330 262<492.032 573.968> 431 100<191 483>
DStem2: 173 583 173 394 0.549305 -0.835622<157.933 469.284>
LayerCount: 2
Fore
SplineSet
371 736 m 0xe0
 407 736 416 799 451 799 c 0xd0
 468 799 483 785 483 771 c 0
 483 750 435 667 374 667 c 0xe0
 321 667 261 730 225 730 c 0
 185 730 177 670 144 670 c 0
 127 670 113 683 113 700 c 0
 113 727 161 799 223 799 c 0xd0
 276 799 336 736 371 736 c 0xe0
173 394 m 1xc5
 173 100 l 1xc5
 208 100 l 2
 252 100 274 85 274 50 c 0
 274 16 250 0 208 0 c 2
 79 0 l 2
 37 0 12 15 12 50 c 0xc8
 12 82 34 100 73 100 c 1
 73 483 l 1
 58 483 l 2
 15 483 -8 498 -8 533 c 0
 -8 568 14 583 58 583 c 2
 173 583 l 1
 431 191 l 1
 431 483 l 1xc5
 396 483 l 2
 353 483 330 498 330 533 c 0
 330 568 352 583 396 583 c 2
 526 583 l 2
 569 583 592 568 592 533 c 0xc2
 592 501 571 483 531 483 c 1
 531 0 l 1
 432 0 l 1
 173 394 l 1xc5
EndSplineSet
Validated: 1
EndChar

StartChar: Ograve
Encoding: 210 210 155
Width: 600
Flags: W
HStem: -14 100<223.211 376.218> 497 100<223.211 377.173>
VStem: 21 100<194.003 385.854> 479 100<195.749 386.892>
DStem2: 223 824 310 656 0.764911 -0.644136<-33.7799 209.22>
LayerCount: 2
Fore
SplineSet
300 597 m 0
 421 597 579 497 579 287 c 0
 579 123 452 -14 300 -14 c 0
 146 -14 21 123 21 292 c 0
 21 460 146 597 300 597 c 0
300 497 m 0
 202 497 121 404 121 292 c 0
 121 179 202 86 300 86 c 0
 397 86 479 179 479 289 c 0
 479 404 399 497 300 497 c 0
223 824 m 2
 356 712 l 2
 372 699 379 688 379 676 c 0
 379 657 362 640 342 640 c 0
 333 640 323 645 310 656 c 2
 177 767 l 2
 160 781 154 790 154 803 c 0
 154 823 170 839 191 839 c 0
 201 839 209 835 223 824 c 2
EndSplineSet
Validated: 1
EndChar

StartChar: Oacute
Encoding: 211 211 156
Width: 600
Flags: W
HStem: -14 100<223.211 376.218> 497 100<223.211 377.173>
VStem: 21 100<194.003 385.854> 479 100<195.749 386.892>
DStem2: 377 824 290 656 0.764911 0.644136<-209.22 33.7799>
LayerCount: 2
Fore
SplineSet
300 597 m 0
 421 597 579 497 579 287 c 0
 579 123 452 -14 300 -14 c 0
 146 -14 21 123 21 292 c 0
 21 460 146 597 300 597 c 0
300 497 m 0
 202 497 121 404 121 292 c 0
 121 179 202 86 300 86 c 0
 397 86 479 179 479 289 c 0
 479 404 399 497 300 497 c 0
423 767 m 2
 290 656 l 2
 277 645 267 640 258 640 c 0
 238 640 221 657 221 676 c 0
 221 688 229 699 244 712 c 2
 377 824 l 2
 391 835 399 839 409 839 c 0
 430 839 446 823 446 803 c 0
 446 790 440 780 423 767 c 2
EndSplineSet
Validated: 1
EndChar

StartChar: Ocircumflex
Encoding: 212 212 157
Width: 600
Flags: W
HStem: -14 100<223.211 376.218> 497 100<223.211 377.173>
VStem: 21 100<194.003 385.854> 479 100<195.749 386.892>
DStem2: 300 839 187 653 0.764911 0.644136<-235.712 -57.3281> 300 839 300 750 0.762811 -0.646621<57.5493 235.876>
LayerCount: 2
Fore
SplineSet
300 597 m 0
 421 597 579 497 579 287 c 0
 579 123 452 -14 300 -14 c 0
 146 -14 21 123 21 292 c 0
 21 460 146 597 300 597 c 0
300 497 m 0
 202 497 121 404 121 292 c 0
 121 179 202 86 300 86 c 0
 397 86 479 179 479 289 c 0
 479 404 399 497 300 497 c 0
300 750 m 1
 187 653 l 2
 175 643 168 640 159 640 c 0
 140 640 124 657 124 675 c 0
 124 689 126 692 148 711 c 2
 300 839 l 1
 451 711 l 2
 461 702 475 693 475 675 c 0
 475 657 459 640 441 640 c 0
 431 640 423 644 412 653 c 2
 300 750 l 1
EndSplineSet
Validated: 1
EndChar

StartChar: Otilde
Encoding: 213 213 158
Width: 600
Flags: W
HStem: -14 100<223.211 376.218> 497 100<223.211 377.173> 667 69<329.555 413.055> 730 69<198.049 285.314>
VStem: 21 100<194.003 385.854> 479 100<195.749 386.892>
LayerCount: 2
Fore
SplineSet
380 736 m 0xec
 416 736 425 799 460 799 c 0xdc
 477 799 492 785 492 771 c 0
 492 750 444 667 383 667 c 0xec
 330 667 270 730 234 730 c 0
 194 730 186 670 153 670 c 0
 136 670 122 683 122 700 c 0
 122 727 170 799 232 799 c 0xdc
 285 799 345 736 380 736 c 0xec
300 597 m 0
 421 597 579 497 579 287 c 0
 579 123 452 -14 300 -14 c 0
 146 -14 21 123 21 292 c 0
 21 460 146 597 300 597 c 0
300 497 m 0
 202 497 121 404 121 292 c 0
 121 179 202 86 300 86 c 0
 397 86 479 179 479 289 c 0
 479 404 399 497 300 497 c 0
EndSplineSet
Validated: 1
EndChar

StartChar: Odieresis
Encoding: 214 214 159
Width: 600
Flags: W
HStem: -14 100<223.211 376.218> 497 100<223.211 377.173> 678 120<149.745 241.66 357.745 449.66>
VStem: 21 100<194.003 385.854> 136 120<691.745 784.171> 344 120<691.745 784.171> 479 100<195.749 386.892>
LayerCount: 2
Fore
SplineSet
300 597 m 0
 421 597 579 497 579 287 c 0
 579 123 452 -14 300 -14 c 0
 146 -14 21 123 21 292 c 0
 21 460 146 597 300 597 c 0
300 497 m 0
 202 497 121 404 121 292 c 0
 121 179 202 86 300 86 c 0
 397 86 479 179 479 289 c 0
 479 404 399 497 300 497 c 0
196 798 m 0
 230 798 256 771 256 737 c 0
 256 705 229 678 196 678 c 0
 163 678 136 705 136 738 c 0
 136 771 163 798 196 798 c 0
404 798 m 0
 438 798 464 771 464 737 c 0
 464 705 437 678 404 678 c 0
 371 678 344 705 344 738 c 0
 344 771 371 798 404 798 c 0
EndSplineSet
Validated: 1
EndChar

StartChar: multiply
Encoding: 215 215 160
Width: 600
Flags: W
HStem: 460 20G<136.5 158 441.5 463.5>
DStem2: 197 454 126 383 0.707107 -0.707107<-51.0573 145.664 246.073 442.794> 126 177 197 106 0.707107 0.707107<-50.3823 145.664 246.073 442.794>
LayerCount: 2
Fore
SplineSet
300 209 m 1
 197 106 l 2
 176 86 166 80 150 80 c 0
 123 80 100 103 100 131 c 0
 100 147 105 156 126 177 c 2
 229 280 l 1
 126 383 l 2
 105 405 100 413 100 430 c 0
 100 457 123 480 150 480 c 0
 166 480 176 474 197 454 c 2
 300 351 l 1
 403 454 l 2
 425 475 433 480 450 480 c 0
 477 480 500 457 500 430 c 0
 500 414 494 404 474 383 c 2
 371 280 l 1
 474 177 l 2
 494 157 500 146 500 130 c 0
 500 103 477 80 450 80 c 0
 433 80 424 85 403 106 c 2
 300 209 l 1
EndSplineSet
Validated: 1
EndChar

StartChar: Oslash
Encoding: 216 216 161
Width: 600
Flags: W
HStem: -14 100<222.49 376.571> 497 100<222.495 378.593> 618 20G<532.5 555>
VStem: 20 100<193.649 385.854> 479 100<196.984 388.78>
DStem2: 30 19 105 -40 0.620293 0.78437<-45.4927 90.1705 197.253 560.609 673.246 794.762>
LayerCount: 2
Fore
SplineSet
159 28 m 1
 105 -40 l 2
 85 -65 77 -70 58 -70 c 0
 31 -70 9 -49 9 -23 c 0
 9 -10 13 -2 30 19 c 2
 87 92 l 1
 42 151 20 214 20 292 c 0
 20 460 145 597 300 597 c 0
 352 597 401 581 449 549 c 1
 495 607 l 2
 514 632 523 638 542 638 c 0
 568 638 590 616 590 590 c 0
 590 577 586 569 570 548 c 2
 518 483 l 1
 559 429 579 364 579 291 c 0
 579 123 454 -14 300 -14 c 0
 251 -14 202 1 159 28 c 1
452 400 m 1
 221 107 l 1
 246 93 273 86 300 86 c 0
 397 86 479 179 479 290 c 0
 479 328 469 369 452 400 c 1
152 174 m 1
 387 471 l 1
 358 488 330 497 299 497 c 0
 201 497 120 404 120 292 c 0
 120 248 130 211 152 174 c 1
EndSplineSet
Validated: 1
EndChar

StartChar: Ugrave
Encoding: 217 217 162
Width: 600
Flags: W
HStem: -14 100<224.39 375.41> 483 100<18.0436 71 171 264.201 335.799 429 529 581.956>
VStem: 10 262<492.074 573.968> 71 100<139.724 483> 328 262<492.032 573.968> 429 100<139.017 483>
DStem2: 223 824 310 656 0.764911 -0.644136<-33.7799 209.22>
LayerCount: 2
Fore
SplineSet
300 -14 m 0xc4
 185 -14 71 69 71 205 c 2
 71 483 l 1xd4
 31 484 10 501 10 533 c 0
 10 568 33 583 76 583 c 2
 206 583 l 2
 250 583 272 569 272 533 c 0xe0
 272 498 249 483 206 483 c 2
 171 483 l 1
 171 196 l 2
 171 135 229 86 300 86 c 0
 371 86 429 135 429 196 c 2
 429 483 l 1xd4
 394 483 l 2
 351 483 328 498 328 533 c 0
 328 568 350 583 394 583 c 2
 524 583 l 2
 568 583 590 568 590 533 c 0xc8
 590 501 569 483 529 483 c 1
 529 205 l 2
 529 67 414 -14 300 -14 c 0xc4
223 824 m 2
 356 712 l 2
 372 699 379 688 379 676 c 0
 379 657 362 640 342 640 c 0
 333 640 323 645 310 656 c 2
 177 767 l 2
 160 781 154 790 154 803 c 0
 154 823 170 839 191 839 c 0
 201 839 209 835 223 824 c 2
EndSplineSet
Validated: 1
EndChar

StartChar: Uacute
Encoding: 218 218 163
Width: 600
Flags: W
HStem: -14 100<224.39 375.41> 483 100<18.0436 71 171 264.201 335.799 429 529 581.956>
VStem: 10 262<492.074 573.968> 71 100<139.724 483> 328 262<492.032 573.968> 429 100<139.017 483>
DStem2: 377 824 290 656 0.764911 0.644136<-209.22 33.7799>
LayerCount: 2
Fore
SplineSet
300 -14 m 0xc4
 185 -14 71 69 71 205 c 2
 71 483 l 1xd4
 31 484 10 501 10 533 c 0
 10 568 33 583 76 583 c 2
 206 583 l 2
 250 583 272 569 272 533 c 0xe0
 272 498 249 483 206 483 c 2
 171 483 l 1
 171 196 l 2
 171 135 229 86 300 86 c 0
 371 86 429 135 429 196 c 2
 429 483 l 1xd4
 394 483 l 2
 351 483 328 498 328 533 c 0
 328 568 350 583 394 583 c 2
 524 583 l 2
 568 583 590 568 590 533 c 0xc8
 590 501 569 483 529 483 c 1
 529 205 l 2
 529 67 414 -14 300 -14 c 0xc4
423 767 m 2
 290 656 l 2
 277 645 267 640 258 640 c 0
 238 640 221 657 221 676 c 0
 221 688 229 699 244 712 c 2
 377 824 l 2
 391 835 399 839 409 839 c 0
 430 839 446 823 446 803 c 0
 446 790 440 780 423 767 c 2
EndSplineSet
Validated: 1
EndChar

StartChar: Ucircumflex
Encoding: 219 219 164
Width: 600
Flags: W
HStem: -14 100<224.39 375.41> 483 100<18.0436 71 171 264.201 335.799 429 529 581.956>
VStem: 10 262<492.074 573.968> 71 100<139.724 483> 328 262<492.032 573.968> 429 100<139.017 483>
DStem2: 300 839 187 653 0.764911 0.644136<-235.712 -57.3281> 300 839 300 750 0.762811 -0.646621<57.5493 235.876>
LayerCount: 2
Fore
SplineSet
300 -14 m 0xc4
 185 -14 71 69 71 205 c 2
 71 483 l 1xd4
 31 484 10 501 10 533 c 0
 10 568 33 583 76 583 c 2
 206 583 l 2
 250 583 272 569 272 533 c 0xe0
 272 498 249 483 206 483 c 2
 171 483 l 1
 171 196 l 2
 171 135 229 86 300 86 c 0
 371 86 429 135 429 196 c 2
 429 483 l 1xd4
 394 483 l 2
 351 483 328 498 328 533 c 0
 328 568 350 583 394 583 c 2
 524 583 l 2
 568 583 590 568 590 533 c 0xc8
 590 501 569 483 529 483 c 1
 529 205 l 2
 529 67 414 -14 300 -14 c 0xc4
300 750 m 1
 187 653 l 2
 175 643 168 640 159 640 c 0
 140 640 124 657 124 675 c 0
 124 689 126 692 148 711 c 2
 300 839 l 1
 451 711 l 2
 461 702 475 693 475 675 c 0
 475 657 459 640 441 640 c 0
 431 640 423 644 412 653 c 2
 300 750 l 1
EndSplineSet
Validated: 1
EndChar

StartChar: Udieresis
Encoding: 220 220 165
Width: 600
Flags: W
HStem: -14 100<224.39 375.41> 483 100<18.0436 71 171 264.201 335.799 429 529 581.956> 678 120<149.745 241.66 357.745 449.66>
VStem: 10 262<492.074 573.968> 71 100<139.724 483> 136 120<691.745 784.171> 328 262<492.032 573.968> 344 120<691.745 784.171> 429 100<139.017 483>
LayerCount: 2
Fore
SplineSet
300 -14 m 0xe080
 185 -14 71 69 71 205 c 2
 71 483 l 1xe880
 31 484 10 501 10 533 c 0
 10 568 33 583 76 583 c 2
 206 583 l 2
 250 583 272 569 272 533 c 0xf0
 272 498 249 483 206 483 c 2
 171 483 l 1
 171 196 l 2
 171 135 229 86 300 86 c 0
 371 86 429 135 429 196 c 2
 429 483 l 1xe880
 394 483 l 2
 351 483 328 498 328 533 c 0
 328 568 350 583 394 583 c 2
 524 583 l 2
 568 583 590 568 590 533 c 0xe2
 590 501 569 483 529 483 c 1
 529 205 l 2
 529 67 414 -14 300 -14 c 0xe080
196 798 m 0
 230 798 256 771 256 737 c 0
 256 705 229 678 196 678 c 0
 163 678 136 705 136 738 c 0xe4
 136 771 163 798 196 798 c 0
404 798 m 0
 438 798 464 771 464 737 c 0
 464 705 437 678 404 678 c 0
 371 678 344 705 344 738 c 0xe1
 344 771 371 798 404 798 c 0
EndSplineSet
Validated: 1
EndChar

StartChar: Yacute
Encoding: 221 221 166
Width: 600
Flags: W
HStem: 0 100<125.839 250 350 474.642> 483 100<29.6793 85 514 570.41>
VStem: 21 222<493.062 572.948> 250 100<100 245> 354 225<493.403 573.968>
DStem2: 205 484 85 483 0.569749 -0.821819<0 165.894> 300 348 350 245 0.56741 0.823436<0 165.324> 380 824 293 656 0.764911 0.644136<-209.22 33.7799>
LayerCount: 2
Fore
SplineSet
21 533 m 0
 21 569 49 583 88 583 c 2
 177 583 l 2
 221 583 243 568 243 533 c 0
 243 510 231 495 205 484 c 1
 300 348 l 1
 394 484 l 1
 367 494 354 510 354 533 c 0
 354 568 377 583 421 583 c 2
 513 583 l 2
 557 583 579 568 579 533 c 0
 579 498 550 483 514 483 c 1
 350 245 l 1
 350 100 l 1
 415 100 l 2
 459 100 482 85 482 50 c 0
 482 15 459 0 415 0 c 2
 185 0 l 2
 143 0 118 15 118 50 c 0
 118 85 140 100 185 100 c 2
 250 100 l 1
 250 245 l 1
 85 483 l 1
 44 483 21 501 21 533 c 0
426 767 m 2
 293 656 l 2
 280 645 270 640 261 640 c 0
 241 640 224 657 224 676 c 0
 224 688 232 699 247 712 c 2
 380 824 l 2
 394 835 402 839 412 839 c 0
 433 839 449 823 449 803 c 0
 449 790 443 780 426 767 c 2
EndSplineSet
Validated: 1
EndChar

StartChar: Thorn
Encoding: 222 222 167
Width: 600
Flags: W
HStem: 0 100<22.4338 95 195 351.736> 140 100<195 409.25> 343 100<195 409.25> 483 100<22.0315 95 195 351.969>
VStem: 95 100<100 140 240 343 443 483> 421 102<252.619 328.516>
LayerCount: 2
Fore
SplineSet
360 50 m 0
 360 16 336 0 294 0 c 2
 80 0 l 2
 23 0 14 30 14 50 c 0
 14 85 37 100 80 100 c 2
 95 100 l 1
 95 483 l 1
 80 483 l 2
 37 483 14 498 14 533 c 0
 14 568 38 583 80 583 c 2
 294 583 l 2
 337 583 360 567 360 533 c 0
 360 498 337 483 294 483 c 2
 195 483 l 1
 195 443 l 1
 293 443 l 2
 424 443 523 407 523 292 c 0
 523 177 424 140 293 140 c 2
 195 140 l 1
 195 100 l 1
 294 100 l 2
 337 100 360 85 360 50 c 0
195 240 m 1
 326 240 l 2
 392 240 421 255 421 291 c 0
 421 328 393 343 326 343 c 2
 195 343 l 1
 195 240 l 1
EndSplineSet
Validated: 1
EndChar

StartChar: germandbls
Encoding: 223 223 168
Width: 600
Flags: W
HStem: -16 100<354.886 415.211> 0 100<20.323 95 195 230.434> 303 99<231.299 330.562> 523 100<209.455 327.048>
VStem: 13 225<9.03198 90.968> 95 100<100 508.635> 346 100<417.005 503.786> 429 100<95.0067 236.721>
LayerCount: 2
Fore
SplineSet
305 156 m 0xb1
 370 156 335 84 382 84 c 0
 410 84 429 116 429 164 c 0xb1
 429 249 363 293 278 303 c 0
 241 307 223 323 223 353 c 0
 223 381 242 399 276 402 c 0
 286 403 346 407 346 459 c 0
 346 496 314 523 268 523 c 0
 221 523 195 502 195 461 c 2
 195 100 l 1x76
 223 95 238 78 238 51 c 0
 238 16 217 0 172 0 c 2
 79 0 l 2
 36 0 13 15 13 50 c 0x78
 13 85 36 100 79 100 c 2
 95 100 l 1
 95 478 l 2
 95 563 167 623 268 623 c 0
 369 623 446 551 446 456 c 0x76
 446 419 438 397 411 365 c 1
 488 320 529 249 529 165 c 0
 529 57 467 -16 374 -16 c 0
 305 -16 255 31 255 97 c 0
 255 134 274 156 305 156 c 0xb1
EndSplineSet
Validated: 1
EndChar

StartChar: agrave
Encoding: 224 224 169
Width: 600
Flags: W
HStem: -16 100<155.744 330.994> 0 100<489 563.201> 196 92<189.807 386.606> 350 100<152.763 376.546>
VStem: 42 106<95.2491 160.582> 388 101<123.047 188.615 278 335.061>
DStem2: 206 680 293 512 0.764911 -0.644136<-34.3908 209.187>
LayerCount: 2
Fore
SplineSet
295 350 m 0xbc
 225 350 170 327 139 327 c 0
 111 327 90 349 90 378 c 0
 90 399 100 413 120 420 c 0
 168 437 242 450 292 450 c 0
 415 450 489 395 489 302 c 2
 489 100 l 1
 505 100 l 2
 549 100 571 85 571 50 c 0
 571 15 548 0 505 0 c 2
 388 0 l 1x7c
 388 23 l 1
 340 -2 281 -16 222 -16 c 0
 123 -16 42 45 42 119 c 0
 42 197 123 288 284 288 c 0
 316 288 347 285 388 278 c 1
 388 301 l 2
 388 335 359 350 295 350 c 0xbc
389 135 m 1
 389 185 l 1
 349 192 312 196 278 196 c 0
 210 196 148 161 148 123 c 0
 148 101 181 84 224 84 c 0xbc
 278 84 334 101 389 135 c 1
206 680 m 2
 339 569 l 2
 355 556 362 545 362 532 c 0
 362 513 345 496 325 496 c 0
 315 496 308 500 293 512 c 2
 160 624 l 2
 144 638 137 647 137 660 c 0
 137 680 153 696 174 696 c 0
 185 696 190 693 206 680 c 2
EndSplineSet
Validated: 1
EndChar

StartChar: aacute
Encoding: 225 225 170
Width: 600
Flags: W
HStem: -16 100<155.744 330.994> 0 100<489 563.201> 196 92<189.807 386.606> 350 100<152.763 376.546>
VStem: 42 106<95.2491 160.582> 388 101<123.047 188.615 278 335.061>
DStem2: 373 680 286 512 0.764911 0.644136<-209.187 34.3908>
LayerCount: 2
Fore
SplineSet
295 350 m 0xbc
 225 350 170 327 139 327 c 0
 111 327 90 349 90 378 c 0
 90 399 100 413 120 420 c 0
 168 437 242 450 292 450 c 0
 415 450 489 395 489 302 c 2
 489 100 l 1
 505 100 l 2
 549 100 571 85 571 50 c 0
 571 15 548 0 505 0 c 2
 388 0 l 1x7c
 388 23 l 1
 340 -2 281 -16 222 -16 c 0
 123 -16 42 45 42 119 c 0
 42 197 123 288 284 288 c 0
 316 288 347 285 388 278 c 1
 388 301 l 2
 388 335 359 350 295 350 c 0xbc
389 135 m 1
 389 185 l 1
 349 192 312 196 278 196 c 0
 210 196 148 161 148 123 c 0
 148 101 181 84 224 84 c 0xbc
 278 84 334 101 389 135 c 1
419 624 m 2
 286 512 l 2
 271 500 264 496 254 496 c 0
 234 496 217 513 217 532 c 0
 217 545 224 556 240 569 c 2
 373 680 l 2
 389 693 394 696 405 696 c 0
 426 696 442 680 442 659 c 0
 442 647 435 638 419 624 c 2
EndSplineSet
Validated: 1
EndChar

StartChar: acircumflex
Encoding: 226 226 171
Width: 600
Flags: W
HStem: -16 100<155.744 330.994> 0 100<489 563.201> 196 92<189.807 386.606> 350 100<152.763 376.546>
VStem: 42 106<95.2491 160.582> 388 101<123.047 188.615 278 335.061>
DStem2: 138 567 177 510 0.762434 0.647066<-36.5848 141.773> 290 696 290 607 0.761939 -0.647648<57.6407 235.992>
LayerCount: 2
Fore
SplineSet
295 350 m 0xbc
 225 350 170 327 139 327 c 0
 111 327 90 349 90 378 c 0
 90 399 100 413 120 420 c 0
 168 437 242 450 292 450 c 0
 415 450 489 395 489 302 c 2
 489 100 l 1
 505 100 l 2
 549 100 571 85 571 50 c 0
 571 15 548 0 505 0 c 2
 388 0 l 1x7c
 388 23 l 1
 340 -2 281 -16 222 -16 c 0
 123 -16 42 45 42 119 c 0
 42 197 123 288 284 288 c 0
 316 288 347 285 388 278 c 1
 388 301 l 2
 388 335 359 350 295 350 c 0xbc
389 135 m 1
 389 185 l 1
 349 192 312 196 278 196 c 0
 210 196 148 161 148 123 c 0
 148 101 181 84 224 84 c 0xbc
 278 84 334 101 389 135 c 1
290 607 m 1
 177 510 l 2
 166 501 158 497 149 497 c 0
 130 497 114 514 114 532 c 0
 114 546 116 549 138 567 c 2
 290 696 l 1
 450 560 l 2
 461 551 465 543 465 532 c 0
 465 514 449 497 431 497 c 0
 422 497 413 501 402 510 c 2
 290 607 l 1
EndSplineSet
Validated: 1
EndChar

StartChar: atilde
Encoding: 227 227 172
Width: 600
Flags: W
HStem: -16 100<155.744 330.994> 0 100<489 563.201> 196 92<189.807 386.606> 350 100<152.763 376.546> 524 69<315.555 399.055> 587 69<184.049 271.314>
VStem: 42 106<95.2491 160.582> 388 101<123.047 188.615 278 335.061>
LayerCount: 2
Fore
SplineSet
366 593 m 0x3b
 402 593 411 656 446 656 c 0x37
 463 656 478 642 478 628 c 0
 478 607 430 524 369 524 c 0x3b
 316 524 256 587 220 587 c 0
 180 587 172 527 139 527 c 0
 122 527 108 540 108 557 c 0
 108 584 156 656 218 656 c 0x37
 271 656 331 593 366 593 c 0x3b
295 350 m 0
 225 350 170 327 139 327 c 0
 111 327 90 349 90 378 c 0
 90 399 100 413 120 420 c 0
 168 437 242 450 292 450 c 0
 415 450 489 395 489 302 c 2
 489 100 l 1
 505 100 l 2
 549 100 571 85 571 50 c 0
 571 15 548 0 505 0 c 2
 388 0 l 1x73
 388 23 l 1
 340 -2 281 -16 222 -16 c 0xb3
 123 -16 42 45 42 119 c 0
 42 197 123 288 284 288 c 0
 316 288 347 285 388 278 c 1
 388 301 l 2
 388 335 359 350 295 350 c 0
389 135 m 1
 389 185 l 1
 349 192 312 196 278 196 c 0
 210 196 148 161 148 123 c 0
 148 101 181 84 224 84 c 0xb3
 278 84 334 101 389 135 c 1
EndSplineSet
Validated: 1
EndChar

StartChar: adieresis
Encoding: 228 228 173
Width: 600
Flags: W
HStem: -16 100<155.744 330.994> 0 100<489 563.201> 196 92<189.807 386.606> 350 100<152.763 376.546> 534 120<138.745 230.66 346.745 438.66>
VStem: 42 106<95.2491 160.582> 125 120<547.745 640.171> 333 120<547.745 640.171> 388 101<123.047 188.615 278 335.061>
LayerCount: 2
Fore
SplineSet
295 350 m 0xbc80
 225 350 170 327 139 327 c 0
 111 327 90 349 90 378 c 0
 90 399 100 413 120 420 c 0
 168 437 242 450 292 450 c 0
 415 450 489 395 489 302 c 2
 489 100 l 1
 505 100 l 2
 549 100 571 85 571 50 c 0
 571 15 548 0 505 0 c 2
 388 0 l 1x7c80
 388 23 l 1
 340 -2 281 -16 222 -16 c 0
 123 -16 42 45 42 119 c 0
 42 197 123 288 284 288 c 0
 316 288 347 285 388 278 c 1
 388 301 l 2
 388 335 359 350 295 350 c 0xbc80
389 135 m 1
 389 185 l 1
 349 192 312 196 278 196 c 0
 210 196 148 161 148 123 c 0
 148 101 181 84 224 84 c 0xbc
 278 84 334 101 389 135 c 1
185 654 m 0
 219 654 245 627 245 593 c 0
 245 561 218 534 185 534 c 0
 152 534 125 561 125 594 c 0x3a
 125 627 152 654 185 654 c 0
393 654 m 0
 427 654 453 627 453 593 c 0
 453 561 426 534 393 534 c 0
 360 534 333 561 333 594 c 0x39
 333 627 360 654 393 654 c 0
EndSplineSet
Validated: 1
EndChar

StartChar: aring
Encoding: 229 229 174
Width: 600
Flags: W
HStem: -16 100<155.744 330.994> 0 100<489 563.201> 196 92<189.807 386.606> 350 100<152.763 376.546> 486 54<238.675 338.929> 674 53<238.675 339.54>
VStem: 42 106<95.2491 160.582> 166 53<559.557 654.154> 359 53<559.641 655.033> 388 101<123.047 188.615 278 335.061>
LayerCount: 2
Fore
SplineSet
295 350 m 0xbf40
 225 350 170 327 139 327 c 0
 111 327 90 349 90 378 c 0
 90 399 100 413 120 420 c 0
 168 437 242 450 292 450 c 0
 415 450 489 395 489 302 c 2
 489 100 l 1
 505 100 l 2
 549 100 571 85 571 50 c 0
 571 15 548 0 505 0 c 2
 388 0 l 1x7f40
 388 23 l 1
 340 -2 281 -16 222 -16 c 0
 123 -16 42 45 42 119 c 0
 42 197 123 288 284 288 c 0
 316 288 347 285 388 278 c 1
 388 301 l 2
 388 335 359 350 295 350 c 0xbf40
389 135 m 1
 389 185 l 1
 349 192 312 196 278 196 c 0
 210 196 148 161 148 123 c 0
 148 101 181 84 224 84 c 0xbf
 278 84 334 101 389 135 c 1
289 727 m 0
 357 727 412 672 412 605 c 0x3f80
 412 541 355 486 289 486 c 0
 222 486 166 541 166 607 c 0
 166 672 222 727 289 727 c 0
289 674 m 0
 251 674 219 643 219 607 c 0
 219 571 251 540 289 540 c 0
 326 540 359 571 359 606 c 0
 359 643 327 674 289 674 c 0
EndSplineSet
Validated: 1
EndChar

StartChar: ae
Encoding: 230 230 175
Width: 600
Flags: W
HStem: -16 100<103.203 222.681 390.582 521.277> -1 21G<297.5 313> 172 86<362 502> 197 89<108.344 253.857> 350 100<113.437 247.217 388.922 475.613>
VStem: -13 101<98.0472 177.351>
LayerCount: 2
Fore
SplineSet
435 450 m 0x9c
 517 450 611 375 611 218 c 2
 611 172 l 1
 360 172 l 1
 377 109 400 84 441 84 c 0
 493 84 531 118 566 118 c 0
 592 118 612 96 612 66 c 0
 612 47 603 32 587 22 c 0
 552 0 489 -16 442 -16 c 0xac
 402 -16 379 -9 342 16 c 1
 333 5 321 -1 305 -1 c 0x4c
 290 -1 279 5 269 16 c 1
 232 -7 202 -16 159 -16 c 0
 55 -16 -13 48 -13 145 c 0
 -13 237 100 286 195 286 c 0
 210 286 229 284 255 281 c 1
 255 301 l 2
 255 329 235 350 207 350 c 0
 172 350 117 325 94 325 c 0
 68 325 46 348 46 376 c 0
 46 401 60 417 87 426 c 0
 124 438 182 450 207 450 c 0
 253 450 288 433 323 394 c 1
 359 433 393 450 435 450 c 0x9c
255 130 m 1
 255 189 l 1
 232 195 216 197 199 197 c 0x9c
 153 197 88 185 88 142 c 0
 88 107 116 84 158 84 c 0
 189 84 215 96 255 130 c 1
362 258 m 1x2c
 502 258 l 1
 495 306 478 350 432 350 c 0
 374 350 364 271 362 258 c 1x2c
EndSplineSet
Validated: 1
EndChar

StartChar: ccedilla
Encoding: 231 231 176
Width: 600
Flags: W
HStem: -229 70<245.481 346.103> -16 100<215.815 272 342 453.917> 16 124<473.973 534.011> 241 209<457.424 530.968> 350 100<223.089 410.157>
VStem: 54 100<137.662 283.176> 272 70<-47.4899 -16> 347 70<-157.464 -105.414> 439 101<248.628 324.156>
LayerCount: 2
Fore
SplineSet
310 350 m 0x8f80
 215 350 154 292 154 207 c 0
 154 125 213 84 330 84 c 0xcf80
 445 84 467 113 485 128 c 0
 494 136 503 140 515 140 c 0
 542 140 565 117 565 89 c 0
 565 63 542 37 501 16 c 0xa780
 464 -2 407 -14 342 -16 c 1
 342 -41 l 1
 393 -52 417 -81 417 -132 c 0
 417 -189 372 -229 310 -229 c 0
 272 -229 190 -209 190 -166 c 0
 190 -147 206 -131 225 -131 c 0
 245 -131 270 -159 311 -159 c 0
 334 -159 347 -150 347 -134 c 0
 347 -113 328 -100 294 -100 c 0
 289 -100 285 -100 272 -102 c 1
 272 -13 l 1
 84 7 54 139 54 207 c 0
 54 350 159 450 310 450 c 0xcf80
 367 450 415 440 454 420 c 1
 460 441 471 450 492 450 c 0
 525 450 540 430 540 384 c 2
 540 307 l 2
 540 264 525 241 490 241 c 0x9780
 458 241 446 256 439 289 c 0
 435 307 429 316 416 325 c 0
 390 341 354 350 310 350 c 0x8f80
EndSplineSet
Validated: 1
EndChar

StartChar: egrave
Encoding: 232 232 177
Width: 600
Flags: W
HStem: -16 100<201.085 444.792> 172 88<145 439> 350 100<204.278 382.214>
DStem2: 218 680 305 512 0.764911 -0.644136<-34.3908 209.187>
LayerCount: 2
Fore
SplineSet
306 84 m 0
 399 84 463 117 502 117 c 0
 529 117 550 95 550 67 c 0
 550 47 539 33 515 22 c 0
 470 2 368 -16 297 -16 c 0
 142 -16 33 80 33 216 c 0
 33 348 145 450 291 450 c 0
 440 450 550 349 550 211 c 2
 550 172 l 1
 142 172 l 1
 165 112 218 84 306 84 c 0
145 260 m 1
 439 260 l 1
 423 315 365 350 292 350 c 0
 219 350 160 314 145 260 c 1
218 680 m 2
 351 569 l 2
 367 556 374 545 374 532 c 0
 374 513 357 496 337 496 c 0
 327 496 320 500 305 512 c 2
 172 624 l 2
 156 638 149 647 149 660 c 0
 149 680 165 696 186 696 c 0
 197 696 202 693 218 680 c 2
EndSplineSet
Validated: 1
EndChar

StartChar: eacute
Encoding: 233 233 178
Width: 600
Flags: W
HStem: -16 100<201.085 444.792> 172 88<145 439> 350 100<204.278 382.214>
DStem2: 385 680 298 512 0.764911 0.644136<-209.187 34.3908>
LayerCount: 2
Fore
SplineSet
306 84 m 0
 399 84 463 117 502 117 c 0
 529 117 550 95 550 67 c 0
 550 47 539 33 515 22 c 0
 470 2 368 -16 297 -16 c 0
 142 -16 33 80 33 216 c 0
 33 348 145 450 291 450 c 0
 440 450 550 349 550 211 c 2
 550 172 l 1
 142 172 l 1
 165 112 218 84 306 84 c 0
145 260 m 1
 439 260 l 1
 423 315 365 350 292 350 c 0
 219 350 160 314 145 260 c 1
431 624 m 2
 298 512 l 2
 283 500 276 496 266 496 c 0
 246 496 229 513 229 532 c 0
 229 545 236 556 252 569 c 2
 385 680 l 2
 401 693 406 696 417 696 c 0
 438 696 454 680 454 659 c 0
 454 647 447 638 431 624 c 2
EndSplineSet
Validated: 1
EndChar

StartChar: ecircumflex
Encoding: 234 234 179
Width: 600
Flags: W
HStem: -16 100<201.085 444.792> 172 88<145 439> 350 100<204.278 382.214>
DStem2: 153 567 192 510 0.762434 0.647066<-36.5848 141.773> 305 696 305 607 0.761939 -0.647648<57.6407 235.992>
LayerCount: 2
Fore
SplineSet
306 84 m 0
 399 84 463 117 502 117 c 0
 529 117 550 95 550 67 c 0
 550 47 539 33 515 22 c 0
 470 2 368 -16 297 -16 c 0
 142 -16 33 80 33 216 c 0
 33 348 145 450 291 450 c 0
 440 450 550 349 550 211 c 2
 550 172 l 1
 142 172 l 1
 165 112 218 84 306 84 c 0
145 260 m 1
 439 260 l 1
 423 315 365 350 292 350 c 0
 219 350 160 314 145 260 c 1
305 607 m 1
 192 510 l 2
 181 501 173 497 164 497 c 0
 145 497 129 514 129 532 c 0
 129 546 131 549 153 567 c 2
 305 696 l 1
 465 560 l 2
 476 551 480 543 480 532 c 0
 480 514 464 497 446 497 c 0
 437 497 428 501 417 510 c 2
 305 607 l 1
EndSplineSet
Validated: 1
EndChar

StartChar: edieresis
Encoding: 235 235 180
Width: 600
Flags: W
HStem: -16 100<201.085 444.792> 172 88<145 439> 350 100<204.278 382.214> 534 120<153.745 245.66 361.745 453.66>
VStem: 140 120<547.745 640.171> 348 120<547.745 640.171>
LayerCount: 2
Fore
SplineSet
306 84 m 0
 399 84 463 117 502 117 c 0
 529 117 550 95 550 67 c 0
 550 47 539 33 515 22 c 0
 470 2 368 -16 297 -16 c 0
 142 -16 33 80 33 216 c 0
 33 348 145 450 291 450 c 0
 440 450 550 349 550 211 c 2
 550 172 l 1
 142 172 l 1
 165 112 218 84 306 84 c 0
145 260 m 1
 439 260 l 1
 423 315 365 350 292 350 c 0
 219 350 160 314 145 260 c 1
200 654 m 0
 234 654 260 627 260 593 c 0
 260 561 233 534 200 534 c 0
 167 534 140 561 140 594 c 0
 140 627 167 654 200 654 c 0
408 654 m 0
 442 654 468 627 468 593 c 0
 468 561 441 534 408 534 c 0
 375 534 348 561 348 594 c 0
 348 627 375 654 408 654 c 0
EndSplineSet
Validated: 1
EndChar

StartChar: igrave
Encoding: 236 236 181
Width: 600
Flags: W
HStem: 0 100<70.5239 250 350 529.736> 337 100<112.839 250>
VStem: 105 245<346.032 427.968> 250 100<100 337>
DStem2: 207 680 294 512 0.764911 -0.644136<-34.3908 209.187>
LayerCount: 2
Fore
SplineSet
128 0 m 2xd0
 71 0 62 30 62 50 c 0
 62 85 84 100 128 100 c 2
 250 100 l 1
 250 337 l 1xd0
 172 337 l 2
 129 337 105 352 105 387 c 0xe0
 105 422 127 437 172 437 c 2
 350 437 l 1
 350 100 l 1
 472 100 l 2
 515 100 538 85 538 50 c 0
 538 16 514 0 472 0 c 2
 128 0 l 2xd0
207 680 m 2
 340 569 l 2
 356 556 363 545 363 532 c 0
 363 513 346 496 326 496 c 0
 316 496 309 500 294 512 c 2
 161 624 l 2
 145 638 138 647 138 660 c 0
 138 680 154 696 175 696 c 0
 186 696 191 693 207 680 c 2
EndSplineSet
Validated: 1
EndChar

StartChar: iacute
Encoding: 237 237 182
Width: 600
Flags: W
HStem: 0 100<70.5239 250 350 529.736> 337 100<112.839 250>
VStem: 105 245<346.032 427.968> 250 100<100 337>
DStem2: 364 680 277 512 0.764911 0.644136<-209.187 34.3908>
LayerCount: 2
Fore
SplineSet
128 0 m 2xd0
 71 0 62 30 62 50 c 0
 62 85 84 100 128 100 c 2
 250 100 l 1
 250 337 l 1xd0
 172 337 l 2
 129 337 105 352 105 387 c 0xe0
 105 422 127 437 172 437 c 2
 350 437 l 1
 350 100 l 1
 472 100 l 2
 515 100 538 85 538 50 c 0
 538 16 514 0 472 0 c 2
 128 0 l 2xd0
410 624 m 2
 277 512 l 2
 262 500 255 496 245 496 c 0
 225 496 208 513 208 532 c 0
 208 545 215 556 231 569 c 2
 364 680 l 2
 380 693 385 696 396 696 c 0
 417 696 433 680 433 659 c 0
 433 647 426 638 410 624 c 2
EndSplineSet
Validated: 1
EndChar

StartChar: icircumflex
Encoding: 238 238 183
Width: 600
Flags: W
HStem: 0 100<70.5239 250 350 529.736> 337 100<112.839 250>
VStem: 105 245<346.032 427.968> 250 100<100 337>
DStem2: 132 567 171 510 0.762434 0.647066<-36.5848 141.773> 284 696 284 607 0.761939 -0.647648<57.6407 235.992>
LayerCount: 2
Fore
SplineSet
128 0 m 2xd0
 71 0 62 30 62 50 c 0
 62 85 84 100 128 100 c 2
 250 100 l 1
 250 337 l 1xd0
 172 337 l 2
 129 337 105 352 105 387 c 0xe0
 105 422 127 437 172 437 c 2
 350 437 l 1
 350 100 l 1
 472 100 l 2
 515 100 538 85 538 50 c 0
 538 16 514 0 472 0 c 2
 128 0 l 2xd0
284 607 m 1
 171 510 l 2
 160 501 152 497 143 497 c 0
 124 497 108 514 108 532 c 0
 108 546 110 549 132 567 c 2
 284 696 l 1
 444 560 l 2
 455 551 459 543 459 532 c 0
 459 514 443 497 425 497 c 0
 416 497 407 501 396 510 c 2
 284 607 l 1
EndSplineSet
Validated: 1
EndChar

StartChar: idieresis
Encoding: 239 239 184
Width: 600
Flags: W
HStem: 0 100<70.5239 250 350 529.736> 337 100<112.839 250> 534 120<132.745 224.66 340.745 432.66>
VStem: 105 245<346.032 427.968> 119 120<547.745 640.171> 250 100<100 337> 327 120<547.745 640.171>
LayerCount: 2
Fore
SplineSet
128 0 m 2xe4
 71 0 62 30 62 50 c 0
 62 85 84 100 128 100 c 2
 250 100 l 1
 250 337 l 1xe4
 172 337 l 2
 129 337 105 352 105 387 c 0xf0
 105 422 127 437 172 437 c 2
 350 437 l 1
 350 100 l 1
 472 100 l 2
 515 100 538 85 538 50 c 0
 538 16 514 0 472 0 c 2
 128 0 l 2xe4
179 654 m 0
 213 654 239 627 239 593 c 0
 239 561 212 534 179 534 c 0
 146 534 119 561 119 594 c 0xe8
 119 627 146 654 179 654 c 0
387 654 m 0
 421 654 447 627 447 593 c 0
 447 561 420 534 387 534 c 0
 354 534 327 561 327 594 c 0xe2
 327 627 354 654 387 654 c 0
EndSplineSet
Validated: 1
EndChar

StartChar: eth
Encoding: 240 240 185
Width: 600
Flags: W
HStem: -16 100<214.951 384.951> 350 93<217.33 382.507> 573 67<135.744 174>
VStem: 42 102<148.392 280.49> 456 102<148.398 281.233>
DStem2: 163 522 201 468 0.882692 0.469952<-25.3511 57.7632 201.401 275.001>
LayerCount: 2
Fore
SplineSet
417 583 m 2
 372 558 l 1
 501 468 558 368 558 233 c 0
 558 31 389 -16 300 -16 c 0
 157 -16 42 85 42 211 c 0
 42 339 151 443 286 443 c 0
 336 443 367 433 430 396 c 1
 391 445 341 490 293 518 c 1
 201 468 l 2
 182 457 178 456 169 456 c 0
 152 456 139 472 139 493 c 0
 139 507 142 510 163 522 c 2
 213 551 l 1
 198 558 182 564 174 568 c 1
 158 573 l 2
 141 579 132 590 132 604 c 0
 132 623 151 640 172 640 c 0
 195 640 225 631 271 609 c 2
 299 596 l 1
 376 637 l 2
 388 643 399 646 409 646 c 0
 426 646 440 632 440 613 c 0
 440 601 431 591 417 583 c 2
300 350 m 0
 213 350 144 289 144 212 c 0
 144 141 214 84 300 84 c 0
 385 84 456 141 456 210 c 0
 456 289 388 350 300 350 c 0
EndSplineSet
Validated: 1
EndChar

StartChar: ntilde
Encoding: 241 241 186
Width: 600
Flags: W
HStem: 0 100<31.0315 95 195 258.736 357.292 410 510 562.708> 337 100<42.4434 95> 350 100<246.863 390.97> 524 69<315.555 399.055> 587 69<184.049 271.314>
VStem: 23 244<9.70469 90.968> 95 100<100 303.481> 349 222<9.70469 90.6895> 410 100<100 329.731>
LayerCount: 2
Fore
SplineSet
366 593 m 0x90
 402 593 411 656 446 656 c 0x88
 463 656 478 642 478 628 c 0
 478 607 430 524 369 524 c 0x90
 316 524 256 587 220 587 c 0
 180 587 172 527 139 527 c 0
 122 527 108 540 108 557 c 0
 108 584 156 656 218 656 c 0x88
 271 656 331 593 366 593 c 0x90
34 387 m 0
 34 423 62 437 101 437 c 2
 195 437 l 1xc2
 195 389 l 1
 243 435 277 450 332 450 c 0
 432 450 510 392 510 282 c 2
 510 100 l 1xa280
 549 100 571 82 571 50 c 0
 571 15 547 0 505 0 c 2
 416 0 l 2
 371 0 349 17 349 50 c 0xa1
 349 82 371 100 410 100 c 1
 410 278 l 2
 410 327 382 350 320 350 c 0
 274 350 242 333 195 282 c 1
 195 100 l 1xa280
 201 100 l 2
 244 100 267 85 267 50 c 0
 267 16 243 0 201 0 c 2
 89 0 l 2
 47 0 23 15 23 50 c 0xa4
 23 85 46 100 89 100 c 2
 95 100 l 1
 95 337 l 1xc2
 56 338 34 355 34 387 c 0
EndSplineSet
Validated: 1
EndChar

StartChar: ograve
Encoding: 242 242 187
Width: 600
Flags: W
HStem: -16 100<215.369 384.631> 350 100<213.156 385.653>
VStem: 42 100<151.429 283.146> 458 100<151.429 282.172>
DStem2: 217 680 304 512 0.764911 -0.644136<-34.3908 209.187>
LayerCount: 2
Fore
SplineSet
303 450 m 0
 444 450 558 346 558 217 c 0
 558 87 444 -16 300 -16 c 0
 156 -16 42 87 42 217 c 0
 42 349 155 450 303 450 c 0
302 350 m 0
 211 350 142 293 142 217 c 0
 142 142 211 84 300 84 c 0
 389 84 458 142 458 217 c 0
 458 291 389 350 302 350 c 0
217 680 m 2
 350 569 l 2
 366 556 373 545 373 532 c 0
 373 513 356 496 336 496 c 0
 326 496 319 500 304 512 c 2
 171 624 l 2
 155 638 148 647 148 660 c 0
 148 680 164 696 185 696 c 0
 196 696 201 693 217 680 c 2
EndSplineSet
Validated: 1
EndChar

StartChar: oacute
Encoding: 243 243 188
Width: 600
Flags: W
HStem: -16 100<215.369 384.631> 350 100<213.156 385.653>
VStem: 42 100<151.429 283.146> 458 100<151.429 282.172>
DStem2: 384 680 297 512 0.764911 0.644136<-209.187 34.3908>
LayerCount: 2
Fore
SplineSet
303 450 m 0
 444 450 558 346 558 217 c 0
 558 87 444 -16 300 -16 c 0
 156 -16 42 87 42 217 c 0
 42 349 155 450 303 450 c 0
302 350 m 0
 211 350 142 293 142 217 c 0
 142 142 211 84 300 84 c 0
 389 84 458 142 458 217 c 0
 458 291 389 350 302 350 c 0
430 624 m 2
 297 512 l 2
 282 500 275 496 265 496 c 0
 245 496 228 513 228 532 c 0
 228 545 235 556 251 569 c 2
 384 680 l 2
 400 693 405 696 416 696 c 0
 437 696 453 680 453 659 c 0
 453 647 446 638 430 624 c 2
EndSplineSet
Validated: 1
EndChar

StartChar: ocircumflex
Encoding: 244 244 189
Width: 600
Flags: W
HStem: -16 100<215.369 384.631> 350 100<213.156 385.653>
VStem: 42 100<151.429 283.146> 458 100<151.429 282.172>
DStem2: 148 567 187 510 0.762434 0.647066<-36.5848 141.773> 300 696 300 607 0.761939 -0.647648<57.6407 235.992>
LayerCount: 2
Fore
SplineSet
303 450 m 0
 444 450 558 346 558 217 c 0
 558 87 444 -16 300 -16 c 0
 156 -16 42 87 42 217 c 0
 42 349 155 450 303 450 c 0
302 350 m 0
 211 350 142 293 142 217 c 0
 142 142 211 84 300 84 c 0
 389 84 458 142 458 217 c 0
 458 291 389 350 302 350 c 0
300 607 m 1
 187 510 l 2
 176 501 168 497 159 497 c 0
 140 497 124 514 124 532 c 0
 124 546 126 549 148 567 c 2
 300 696 l 1
 460 560 l 2
 471 551 475 543 475 532 c 0
 475 514 459 497 441 497 c 0
 432 497 423 501 412 510 c 2
 300 607 l 1
EndSplineSet
Validated: 1
EndChar

StartChar: otilde
Encoding: 245 245 190
Width: 600
Flags: W
HStem: -16 100<215.369 384.631> 350 100<213.156 385.653> 524 69<329.555 413.055> 587 69<198.049 285.314>
VStem: 42 100<151.429 283.146> 458 100<151.429 282.172>
LayerCount: 2
Fore
SplineSet
380 593 m 0xec
 416 593 425 656 460 656 c 0xdc
 477 656 492 642 492 628 c 0
 492 607 444 524 383 524 c 0xec
 330 524 270 587 234 587 c 0
 194 587 186 527 153 527 c 0
 136 527 122 540 122 557 c 0
 122 584 170 656 232 656 c 0xdc
 285 656 345 593 380 593 c 0xec
303 450 m 0
 444 450 558 346 558 217 c 0
 558 87 444 -16 300 -16 c 0
 156 -16 42 87 42 217 c 0
 42 349 155 450 303 450 c 0
302 350 m 0
 211 350 142 293 142 217 c 0
 142 142 211 84 300 84 c 0
 389 84 458 142 458 217 c 0
 458 291 389 350 302 350 c 0
EndSplineSet
Validated: 1
EndChar

StartChar: odieresis
Encoding: 246 246 191
Width: 600
Flags: W
HStem: -16 100<215.369 384.631> 350 100<213.156 385.653> 534 120<149.745 241.66 357.745 449.66>
VStem: 42 100<151.429 283.146> 136 120<547.745 640.171> 344 120<547.745 640.171> 458 100<151.429 282.172>
LayerCount: 2
Fore
SplineSet
303 450 m 0xf2
 444 450 558 346 558 217 c 0
 558 87 444 -16 300 -16 c 0
 156 -16 42 87 42 217 c 0
 42 349 155 450 303 450 c 0xf2
302 350 m 0
 211 350 142 293 142 217 c 0
 142 142 211 84 300 84 c 0
 389 84 458 142 458 217 c 0
 458 291 389 350 302 350 c 0
196 654 m 0
 230 654 256 627 256 593 c 0
 256 561 229 534 196 534 c 0
 163 534 136 561 136 594 c 0xe8
 136 627 163 654 196 654 c 0
404 654 m 0
 438 654 464 627 464 593 c 0
 464 561 437 534 404 534 c 0
 371 534 344 561 344 594 c 0xe4
 344 627 371 654 404 654 c 0
EndSplineSet
Validated: 1
EndChar

StartChar: divide
Encoding: 247 247 192
Width: 600
Flags: W
HStem: 28 132<242.083 357.917> 230 100<50.4967 550.677> 400 132<242.083 357.917>
VStem: 225 150<45.875 141.875 417.875 513.875>
CounterMasks: 1 e0
LayerCount: 2
Fore
SplineSet
108 330 m 2
 492 330 l 2
 535 330 558 315 558 280 c 0
 558 245 535 230 492 230 c 2
 108 230 l 2
 67 230 42 246 42 280 c 0
 42 315 65 330 108 330 c 2
300 160 m 0
 346 160 375 134 375 93 c 0
 375 54 345 28 300 28 c 0
 255 28 225 55 225 94 c 0
 225 133 255 160 300 160 c 0
300 532 m 0
 346 532 375 506 375 465 c 0
 375 426 345 400 300 400 c 0
 255 400 225 427 225 466 c 0
 225 505 255 532 300 532 c 0
EndSplineSet
Validated: 1
EndChar

StartChar: oslash
Encoding: 248 248 193
Width: 600
Flags: W
HStem: -16 100<248.18 384.5> 350 100<214.863 355.653>
VStem: 42 100<150.074 282.571> 458 100<151.429 284.428>
DStem2: 96 72 116 -44 0.695743 0.718291<-117.804 3.25781 118.705 375.527 487.973 600.659>
LayerCount: 2
Fore
SplineSet
548 402 m 2
 506 359 l 1
 540 316 558 267 558 217 c 0
 558 87 444 -16 300 -16 c 0
 255 -16 213 -6 172 14 c 1
 116 -44 l 2
 95 -65 87 -70 71 -70 c 0
 44 -70 23 -49 23 -22 c 0
 23 -7 28 2 48 22 c 2
 96 72 l 1
 62 114 42 167 42 217 c 0
 42 347 156 450 298 450 c 0
 342 450 398 437 432 419 c 1
 480 468 l 2
 501 489 509 494 526 494 c 0
 552 494 573 473 573 447 c 0
 573 430 568 423 548 402 c 2
436 286 m 1
 247 91 l 1
 265 86 279 84 299 84 c 0
 389 84 458 142 458 217 c 0
 458 241 450 264 436 286 c 1
167 145 m 1
 357 342 l 1
 336 347 319 350 300 350 c 0
 211 350 142 292 142 217 c 0
 142 192 150 168 167 145 c 1
EndSplineSet
Validated: 1
EndChar

StartChar: ugrave
Encoding: 249 249 194
Width: 600
Flags: W
HStem: -13 100<213.55 358.752> 0 100<510 562.708> 337 100<21.7721 95 318.195 410>
VStem: 13 182<346.526 427.968> 95 100<108.203 337> 309 201<347.753 427.968> 410 100<134.208 337>
DStem2: 215 680 302 512 0.764911 -0.644136<-34.3908 209.187>
LayerCount: 2
Fore
SplineSet
273 -13 m 0xa2
 171 -13 95 46 95 156 c 2
 95 337 l 1xaa
 68 337 l 2
 35 337 13 358 13 387 c 0xb0
 13 422 36 437 79 437 c 2
 195 437 l 1
 195 159 l 2
 195 110 223 87 283 87 c 0
 333 87 358 100 410 155 c 1
 410 337 l 1xaa
 375 337 l 2
 337 337 309 353 309 387 c 0xa4
 309 422 332 437 375 437 c 2
 510 437 l 1
 510 100 l 1
 549 100 571 82 571 50 c 0
 571 16 547 0 505 0 c 2
 410 0 l 1x62
 410 48 l 1
 360 1 328 -13 273 -13 c 0xa2
215 680 m 2
 348 569 l 2
 364 556 371 545 371 532 c 0
 371 513 354 496 334 496 c 0
 324 496 317 500 302 512 c 2
 169 624 l 2
 153 638 146 647 146 660 c 0
 146 680 162 696 183 696 c 0
 194 696 199 693 215 680 c 2
EndSplineSet
Validated: 1
EndChar

StartChar: uacute
Encoding: 250 250 195
Width: 600
Flags: W
HStem: -13 100<213.55 358.752> 0 100<510 562.708> 337 100<21.7721 95 318.195 410>
VStem: 13 182<346.526 427.968> 95 100<108.203 337> 309 201<347.753 427.968> 410 100<134.208 337>
DStem2: 372 680 285 512 0.764911 0.644136<-209.187 34.3908>
LayerCount: 2
Fore
SplineSet
273 -13 m 0xa2
 171 -13 95 46 95 156 c 2
 95 337 l 1xaa
 68 337 l 2
 35 337 13 358 13 387 c 0xb0
 13 422 36 437 79 437 c 2
 195 437 l 1
 195 159 l 2
 195 110 223 87 283 87 c 0
 333 87 358 100 410 155 c 1
 410 337 l 1xaa
 375 337 l 2
 337 337 309 353 309 387 c 0xa4
 309 422 332 437 375 437 c 2
 510 437 l 1
 510 100 l 1
 549 100 571 82 571 50 c 0
 571 16 547 0 505 0 c 2
 410 0 l 1x62
 410 48 l 1
 360 1 328 -13 273 -13 c 0xa2
418 624 m 2
 285 512 l 2
 270 500 263 496 253 496 c 0
 233 496 216 513 216 532 c 0
 216 545 223 556 239 569 c 2
 372 680 l 2
 388 693 393 696 404 696 c 0
 425 696 441 680 441 659 c 0
 441 647 434 638 418 624 c 2
EndSplineSet
Validated: 1
EndChar

StartChar: ucircumflex
Encoding: 251 251 196
Width: 600
Flags: W
HStem: -13 100<213.55 358.752> 0 100<510 562.708> 337 100<21.7721 95 318.195 410>
VStem: 13 182<346.526 427.968> 95 100<108.203 337> 309 201<347.753 427.968> 410 100<134.208 337>
DStem2: 144 567 183 510 0.762434 0.647066<-36.5848 141.773> 296 696 296 607 0.761939 -0.647648<57.6407 235.992>
LayerCount: 2
Fore
SplineSet
273 -13 m 0xa2
 171 -13 95 46 95 156 c 2
 95 337 l 1xaa
 68 337 l 2
 35 337 13 358 13 387 c 0xb0
 13 422 36 437 79 437 c 2
 195 437 l 1
 195 159 l 2
 195 110 223 87 283 87 c 0
 333 87 358 100 410 155 c 1
 410 337 l 1xaa
 375 337 l 2
 337 337 309 353 309 387 c 0xa4
 309 422 332 437 375 437 c 2
 510 437 l 1
 510 100 l 1
 549 100 571 82 571 50 c 0
 571 16 547 0 505 0 c 2
 410 0 l 1x62
 410 48 l 1
 360 1 328 -13 273 -13 c 0xa2
296 607 m 1
 183 510 l 2
 172 501 164 497 155 497 c 0
 136 497 120 514 120 532 c 0
 120 546 122 549 144 567 c 2
 296 696 l 1
 456 560 l 2
 467 551 471 543 471 532 c 0
 471 514 455 497 437 497 c 0
 428 497 419 501 408 510 c 2
 296 607 l 1
EndSplineSet
Validated: 1
EndChar

StartChar: udieresis
Encoding: 252 252 197
Width: 600
Flags: W
HStem: -13 100<213.55 358.752> 0 100<510 562.708> 337 100<21.7721 95 318.195 410> 534 120<144.745 236.66 352.745 444.66>
VStem: 13 182<346.526 427.968> 95 100<108.203 337> 131 120<547.745 640.171> 309 201<347.753 427.968> 339 120<547.745 640.171> 410 100<134.208 337>
LayerCount: 2
Fore
SplineSet
273 -13 m 0xb040
 171 -13 95 46 95 156 c 2
 95 337 l 1xb440
 68 337 l 2
 35 337 13 358 13 387 c 0xb8
 13 422 36 437 79 437 c 2
 195 437 l 1
 195 159 l 2
 195 110 223 87 283 87 c 0
 333 87 358 100 410 155 c 1
 410 337 l 1xb440
 375 337 l 2
 337 337 309 353 309 387 c 0xb1
 309 422 332 437 375 437 c 2
 510 437 l 1
 510 100 l 1
 549 100 571 82 571 50 c 0
 571 16 547 0 505 0 c 2
 410 0 l 1x7040
 410 48 l 1
 360 1 328 -13 273 -13 c 0xb040
191 654 m 0
 225 654 251 627 251 593 c 0
 251 561 224 534 191 534 c 0
 158 534 131 561 131 594 c 0x32
 131 627 158 654 191 654 c 0
399 654 m 0
 433 654 459 627 459 593 c 0
 459 561 432 534 399 534 c 0
 366 534 339 561 339 594 c 0x3080
 339 627 366 654 399 654 c 0
EndSplineSet
Validated: 1
EndChar

StartChar: yacute
Encoding: 253 253 198
Width: 600
Flags: W
HStem: -205 100<29.7721 187 297 359.849> 337 100<29.6251 70 184 234.969 362.679 418 527 571.201>
VStem: 21 222<346.368 426.597> 354 225<347.001 426.948>
DStem2: 184 337 70 337 0.457829 -0.88904<0 250.448> 187 -105 297 -105 0.463183 0.886263<50.9501 121.191 245.505 498.723> 406 680 319 512 0.764911 0.644136<-209.187 34.3908>
LayerCount: 2
Fore
SplineSet
354 387 m 0
 354 423 382 437 421 437 c 2
 513 437 l 2
 557 437 579 422 579 387 c 0
 579 358 560 337 527 337 c 1
 297 -105 l 1
 342 -105 368 -118 368 -155 c 0
 368 -189 345 -205 302 -205 c 2
 87 -205 l 2
 49 -205 21 -190 21 -155 c 0
 21 -120 44 -105 87 -105 c 2
 187 -105 l 1
 242 3 l 1
 70 337 l 1
 39 337 21 359 21 387 c 0
 21 422 50 437 87 437 c 2
 177 437 l 2
 220 437 243 422 243 387 c 0
 243 356 222 338 184 337 c 1
 298 114 l 1
 418 337 l 1
 377 337 354 355 354 387 c 0
452 624 m 2
 319 512 l 2
 304 500 297 496 287 496 c 0
 267 496 250 513 250 532 c 0
 250 545 257 556 273 569 c 2
 406 680 l 2
 422 693 427 696 438 696 c 0
 459 696 475 680 475 659 c 0
 475 647 468 638 452 624 c 2
EndSplineSet
Validated: 1
EndChar

StartChar: thorn
Encoding: 254 254 199
Width: 600
Flags: W
HStem: -205 100<-0.460022 74 174 289.969> 10 100<234.609 409.608> 350 100<234.118 408.954> 524 100<-0.677029 74>
VStem: -8 306<-195.632 -114.032> -8 182<533.032 614.968> 74 100<-105 66 166.404 294.012 392 524> 471 100<167.517 292.894>
LayerCount: 2
Fore
SplineSet
174 66 m 1xf3
 174 -105 l 1xf3
 232 -105 l 2
 276 -105 298 -120 298 -155 c 0
 298 -189 275 -205 232 -205 c 2
 58 -205 l 2
 16 -205 -8 -191 -8 -155 c 0xf9
 -8 -120 15 -105 58 -105 c 2
 74 -105 l 1
 74 524 l 1xf3
 58 524 l 2
 15 524 -8 539 -8 574 c 0xf5
 -8 609 15 624 58 624 c 2
 174 624 l 1
 174 392 l 1
 223 434 265 450 328 450 c 0
 467 450 571 354 571 224 c 0
 571 101 468 10 329 10 c 0
 270 10 226 26 174 66 c 1xf3
471 230 m 0
 471 275 435 350 323 350 c 0
 207 350 174 272 174 231 c 0
 174 160 235 110 323 110 c 0
 409 110 471 160 471 230 c 0
EndSplineSet
Validated: 1
EndChar

StartChar: ydieresis
Encoding: 255 255 200
Width: 600
Flags: W
HStem: -205 100<29.7721 187 297 359.849> 337 100<29.6251 70 184 234.969 362.679 418 527 571.201> 534 120<149.745 241.66 357.745 449.66>
VStem: 21 222<346.368 426.597> 136 120<547.745 640.171> 344 120<547.745 640.171> 354 225<347.001 426.948>
DStem2: 184 337 70 337 0.457829 -0.88904<0 250.448> 187 -105 297 -105 0.463183 0.886263<50.9501 121.191 245.505 498.723>
LayerCount: 2
Fore
SplineSet
354 387 m 0xf2
 354 423 382 437 421 437 c 2
 513 437 l 2
 557 437 579 422 579 387 c 0
 579 358 560 337 527 337 c 1
 297 -105 l 1
 342 -105 368 -118 368 -155 c 0
 368 -189 345 -205 302 -205 c 2
 87 -205 l 2
 49 -205 21 -190 21 -155 c 0
 21 -120 44 -105 87 -105 c 2
 187 -105 l 1
 242 3 l 1
 70 337 l 1
 39 337 21 359 21 387 c 0
 21 422 50 437 87 437 c 2
 177 437 l 2
 220 437 243 422 243 387 c 0
 243 356 222 338 184 337 c 1
 298 114 l 1
 418 337 l 1
 377 337 354 355 354 387 c 0xf2
196 654 m 0
 230 654 256 627 256 593 c 0
 256 561 229 534 196 534 c 0
 163 534 136 561 136 594 c 0xe8
 136 627 163 654 196 654 c 0
404 654 m 0
 438 654 464 627 464 593 c 0
 464 561 437 534 404 534 c 0
 371 534 344 561 344 594 c 0xe4
 344 627 371 654 404 654 c 0
EndSplineSet
Validated: 1
EndChar

StartChar: uni0E01
Encoding: 3585 3585 201
Width: 600
Flags: W
HStem: 0 21G<148 248 412 512> 394 88<234.625 372.215>
VStem: 148 100<0 268.836> 412 100<0 351.976>
LayerCount: 2
Back
SplineSet
307 458 m 0
 425 458 500 361 500 283 c 10
 500 0 l 25
 425 0 l 25
 425 283 l 18
 425 353 363 395 307 395 c 8
 256 395 221 373 190 336 c 1
 229 325 254 312 276 278 c 1
 253 264 235 235 235 209 c 10
 235 0 l 25
 160 0 l 25
 160 209 l 18
 160 234 184 260 217 274 c 1
 198 297 156 309 104 318 c 1
 157 400 214 458 307 458 c 0
EndSplineSet
Fore
SplineSet
512 295 m 2
 512 0 l 1
 412 0 l 1
 412 295 l 2
 412 357 357 394 307 394 c 0
 267 394 238 380 212 354 c 1
 244 343 267 328 286 297 c 2
 293 286 l 1
 282 279 l 2
 262 267 248 241 248 221 c 2
 248 0 l 1
 148 0 l 1
 148 221 l 2
 148 249 168 273 195 289 c 1
 179 300 151 309 102 318 c 1
 83 321 l 1
 94 337 l 1
 148 421 208 482 307 482 c 0
 431 482 512 380 512 295 c 2
EndSplineSet
Validated: 1
Comment: "Thai Gogai" 
EndChar

StartChar: uni0E02
Encoding: 3586 3586 202
Width: 600
Flags: W
HStem: -0 86<150 192 292 412> 222 76<146.344 185.473> 394 88<226.717 288.052> 450 20G<412 512>
VStem: 70 76<298.43 342.917> 186 74<298.43 343.755> 192 100<86 196.084> 306 100<284.24 377.17> 412 100<86 470>
LayerCount: 2
Back
SplineSet
280 159 m 2xfb
 280 62 l 1
 425 62 l 1
 425 445 l 1
 500 445 l 1
 500 0 l 1
 162 0 l 1
 162 62 l 1
 205 62 l 1
 205 168 l 2xfb
 205 221 318 255 318 334 c 0
 318 352 295 395 261 395 c 0
 252 395 229 393 209 384 c 1
 238 380 260 348 260 309 c 0xf7
 260 262 223 223 178 223 c 0
 132 223 95 262 95 309 c 0
 95 376 168 458 261 458 c 0
 342 458 393 399 393 334 c 0
 393 248 280 206 280 159 c 2xfb
145 309 m 0
 145 289 160 273 178 273 c 0
 196 273 210 289 210 309 c 0xf7
 210 328 195 344 178 344 c 0
 160 344 145 328 145 309 c 0
EndSplineSet
Fore
SplineSet
292 86 m 1xeb80
 412 86 l 1
 412 470 l 1
 512 470 l 1
 512 -0 l 1
 150 -0 l 1
 150 86 l 1
 192 86 l 1
 192 174 l 2xdb80
 192 229 306 262 306 340 c 0
 306 351 281 394 255 394 c 0
 251 394 233 394 226 393 c 1
 244 377 260 350 260 321 c 0xed80
 260 267 218 222 166 222 c 0
 113 222 70 267 70 321 c 0
 70 394 154 482 255 482 c 0
 343 482 406 412 406 340 c 0
 406 247 292 199 292 165 c 2
 292 86 l 1xeb80
146 321 m 0
 146 307 156 298 166 298 c 0
 178 298 186 309 186 321 c 0xcd80
 186 334 175 344 166 344 c 0
 156 344 146 333 146 321 c 0
EndSplineSet
Validated: 1
EndChar

StartChar: uni0E03
Encoding: 3587 3587 203
Width: 600
Flags: W
HStem: 0 86<150 192 292 412> 202 76<145.833 188.124> 462 8G<153 216.857 273.814 313.105 412 512>
VStem: 70 75<279.146 320.941> 189 71<279.146 321.885> 192 100<86 189.078> 306 100<282.495 389.873> 412 100<86 470>
LayerCount: 2
Back
SplineSet
280 149 m 2xfd80
 280 62 l 1
 425 62 l 1
 425 445 l 1
 500 445 l 1
 500 0 l 1
 162 0 l 1
 162 62 l 1
 205 62 l 1
 205 158 l 2
 205 211 318 255 318 333 c 0
 318 347 311 381 288 388 c 1
 251 363 l 1
 205 386 l 1xfd80
 199 385 193 380 187 373 c 1
 178 373 l 1
 223 373 260 335 260 288 c 0xfb80
 260 241 223 203 178 203 c 0
 132 203 95 241 95 288 c 0
 95 344 159 440 206 449 c 1
 252 422 l 1
 289 455 l 1
 333 438 393 389 393 333 c 0
 393 247 280 196 280 149 c 2xfd80
145 288 m 0
 145 269 160 253 178 253 c 0
 196 253 210 269 210 288 c 0xfb80
 210 307 196 323 178 323 c 0
 160 323 145 307 145 288 c 0
EndSplineSet
Fore
SplineSet
298 482 m 1xfb
 298 482 406 405 406 339 c 0
 406 248 292 190 292 155 c 2
 292 86 l 1
 412 86 l 1
 412 470 l 1
 512 470 l 1
 512 0 l 1
 150 0 l 1
 150 86 l 1
 192 86 l 1
 192 164 l 2xf7
 192 219 306 262 306 339 c 0
 306 346 302 382 289 391 c 1
 246 366 l 1
 230 372 l 1
 249 354 260 328 260 300 c 0
 260 246 218 202 166 202 c 0
 113 202 70 246 70 300 c 0
 70 357 128 451 178 474 c 1
 246 439 l 1
 298 482 l 1xfb
145 300 m 0
 145 288 155 278 167 278 c 0
 179 278 189 288 189 300 c 0xfb
 189 312 179 322 167 322 c 0
 155 322 145 312 145 300 c 0
EndSplineSet
Validated: 1
EndChar

StartChar: uni0E04
Encoding: 3588 3588 204
Width: 613
Flags: W
HStem: -0 21G<152 252 426 526> 138 86<288.354 333.595> 268 86<288.096 333.595> 394 88<230.696 379.281>
VStem: 78 100<247.126 346.164> 152 100<0 158.445> 334 86<224.081 266.72> 426 100<0 349.117>
LayerCount: 2
Back
SplineSet
275 234 m 0
 275 215 291 200 311 200 c 0
 330 200 346 215 346 234 c 0
 346 253 330 268 311 268 c 0
 291 268 275 253 275 234 c 0
165 90 m 2
 165 141 90 227 90 286 c 0
 90 387 202 458 312 458 c 0
 417 458 513 395 513 286 c 2
 513 0 l 1
 438 0 l 1
 438 286 l 2
 438 346 376 395 312 395 c 0
 240 395 165 347 165 286 c 0
 165 243 178 224 191 207 c 1
 205 247 226 287 258 308 c 1
 273 322 291 330 311 330 c 0
 365 330 408 288 408 234 c 0
 408 181 365 138 311 138 c 0
 282 138 258 154 241 180 c 1
 240 147 240 111 240 90 c 2
 240 0 l 1
 165 0 l 1
 165 90 l 2
EndSplineSet
Fore
SplineSet
288 246 m 0xf3
 288 234 297 224 311 224 c 0
 323 224 334 234 334 246 c 0
 334 258 323 268 311 268 c 0
 297 268 288 258 288 246 c 0xf3
78 298 m 0xfb
 78 404 192 482 312 482 c 0
 423 482 526 415 526 298 c 2
 526 -0 l 1
 426 -0 l 1
 426 298 l 2
 426 349 371 394 312 394 c 0
 243 394 178 349 178 298 c 0xfb
 178 274 182 258 188 246 c 1
 214 308 262 354 311 354 c 0
 372 354 420 307 420 246 c 0
 420 186 372 138 311 138 c 0
 297 138 275 141 253 159 c 1
 253 137 252 116 252 102 c 2
 252 -0 l 1
 152 -0 l 1
 152 102 l 2xf7
 152 148 78 236 78 298 c 0xfb
EndSplineSet
Validated: 1
EndChar

StartChar: uni0E05
Encoding: 3589 3589 205
Width: 600
Flags: W
HStem: -0 21G<140 240 412 512> 132 86<274.396 318.765> 262 86<275.022 318.765> 462 19G<191 268.795 340.5 424>
VStem: 64 100<240.654 349.516> 140 100<0 152.657> 320 88<218.07 260.731> 412 100<0 365.189>
LayerCount: 2
Back
SplineSet
275 234 m 0
 275 215 291 200 311 200 c 0
 330 200 346 215 346 234 c 0
 346 253 330 268 311 268 c 0
 291 268 275 253 275 234 c 0
165 90 m 2
 165 141 90 227 90 286 c 0
 90 364 171 433 248 450 c 1
 311 410 l 1
 396 451 l 1
 462 429 513 367 513 286 c 2
 513 0 l 1
 438 0 l 1
 438 286 l 2
 438 326 408 372 386 385 c 1
 312 347 l 1
 249 388 l 1
 213 371 165 329 165 286 c 0
 165 243 178 224 191 207 c 1
 205 247 226 287 258 308 c 1
 273 322 291 330 311 330 c 0
 365 330 408 288 408 234 c 0
 408 181 365 138 311 138 c 0
 282 138 258 154 241 180 c 1
 240 147 240 111 240 90 c 2
 240 0 l 1
 165 0 l 1
 165 90 l 2
EndSplineSet
Fore
SplineSet
382 482 m 1xfb
 466 455 512 384 512 304 c 2
 512 -0 l 1
 412 -0 l 1
 412 304 l 2
 412 336 390 374 372 388 c 1
 298 351 l 1
 235 392 l 1
 203 374 164 335 164 298 c 0xfb
 164 271 169 252 175 240 c 1
 204 306 251 348 298 348 c 0
 359 348 408 301 408 240 c 0
 408 180 359 132 298 132 c 0
 284 132 262 135 240 153 c 1
 240 -0 l 1
 140 -0 l 1
 140 96 l 2xf7
 140 142 64 230 64 298 c 0
 64 387 145 461 237 481 c 1
 299 442 l 1
 382 482 l 1xfb
274 240 m 0
 274 228 284 218 298 218 c 0
 310 218 320 228 320 240 c 0
 320 252 310 262 298 262 c 0
 284 262 274 252 274 240 c 0
EndSplineSet
Validated: 1
EndChar

StartChar: uni0E06
Encoding: 3590 3590 206
Width: 600
Flags: W
HStem: 0 21G<133 186.5 390 512> 121 84<264 318.995> 202 76<62.3327 101.481> 461 9G<80.5 156 187.25 237 412 512>
VStem: -14 76<279.146 321.117> 68 76<68.0444 120.812> 102 74<279.146 321.487> 164 100<70.1677 121 203.089 266.186> 232 100<322.452 385.618> 412 100<127 470>
LayerCount: 2
Back
SplineSet
307 354 m 0xfac0
 307 307 240 241 240 213 c 2
 240 181 l 1
 267 181 281 177 326 166 c 0
 399 139 425 68 425 68 c 1
 425 445 l 1
 500 445 l 1
 500 0 l 1
 423 0 l 1
 384.492 71.6626 298.248 116.234 240 124 c 1
 240 61 l 2
 240 8 200 -12 155 -12 c 0
 108 -12 80 29 80 92 c 0
 80 153 115 178 165 185 c 1
 165 226 l 2xfd40
 165 253 232 332 232 354 c 0
 232 373 226 382 206 389 c 1
 168 364 l 1
 121 386 l 1
 115 385 109 380 103 373 c 1
 94 373 l 1
 139 373 176 335 176 288 c 0
 176 241 139 203 94 203 c 0
 48 203 11 241 11 288 c 0
 11 344 75 440 122 449 c 1
 168 422 l 1
 211 455 l 1
 252 438 307 407 307 354 c 0xfac0
61 288 m 0
 61 269 76 253 94 253 c 0
 112 253 126 269 126 288 c 0xfa40
 126 307 112 323 94 323 c 0
 76 323 61 307 61 288 c 0
165 124 m 1xfd40
 143 124 132 114 132 92 c 0
 132 57 145 45 156 45 c 0
 166 45 165 65 165 80 c 2
 165 124 l 1xfd40
EndSplineSet
Fore
SplineSet
164 121 m 1xdd40
 148 121 144 114 144 104 c 0
 144 67 159 69 163 68 c 1
 164 71 164 74 164 84 c 2
 164 121 l 1xdd40
62 300 m 0
 62 288 72 278 82 278 c 0
 92 278 102 287 102 300 c 0xba40
 102 313 92 322 82 322 c 0
 72 322 62 312 62 300 c 0
221 481 m 1
 253 468 332 435 332 366 c 0xbac0
 332 313 264 249 264 225 c 2
 264 205 l 1
 356 200 394 153 412 127 c 1
 412 470 l 1
 512 470 l 1
 512 0 l 1
 416 0 l 1
 364 94 288 116 264 121 c 1
 264 73 l 2
 264 12 212 -12 161 -12 c 0
 105 -12 68 36 68 104 c 0
 68 166 114 197 164 208 c 1
 164 238 l 2xdd40
 164 260 232 346 232 366 c 0xd8c0
 232 377 230 382 219 387 c 1
 169 362 l 1
 148 369 l 1
 165 352 176 327 176 300 c 0
 176 246 134 202 82 202 c 0
 29 202 -14 246 -14 300 c 0
 -14 357 49 462 112 474 c 1
 167 449 l 1
 221 481 l 1
EndSplineSet
Validated: 1
EndChar

StartChar: uni0E07
Encoding: 3591 3591 207
Width: 615
Flags: W
HStem: -0 21G<318.244 482> 462 20G<336.5 401>
VStem: 262 89<356.174 393.954> 382 100<92 271 356.008 391.504>
DStem2: 153 299 92 238 0.720104 -0.693866<0 302.773>
LayerCount: 2
Back
SplineSet
338 363 m 0xf8
 338 346 350 332 365 332 c 0
 380 332 392 346 392 363 c 0
 392 381 380 395 365 395 c 0
 350 395 338 381 338 363 c 0xf8
275 363 m 0
 275 416 315 458 365 458 c 0
 430 458 470 416 470 363 c 2xf8
 470 0 l 1
 344 0 l 1
 110 226 l 1
 153 270 l 1
 369 68 l 1
 395 68 l 1
 395 276 l 1xf4
 386 272 376 269 365 269 c 0
 315 269 275 311 275 363 c 0
EndSplineSet
Fore
SplineSet
380 377 m 0
 380 389 371 394 365 394 c 0
 357 394 351 384 351 374 c 0
 351 362 359 356 365 356 c 0
 373 356 380 367 380 377 c 0
365 482 m 0
 437 482 482 435 482 375 c 2
 482 -0 l 1
 339 -0 l 1
 92 238 l 1
 153 299 l 1
 374 92 l 1
 382 92 l 1
 382 271 l 1
 377 269 371 268 365 268 c 0
 308 268 262 317 262 375 c 0
 262 434 308 482 365 482 c 0
EndSplineSet
Validated: 1
EndChar

StartChar: uni0E08
Encoding: 3592 3592 208
Width: 600
Flags: W
HStem: -0 21G<323.554 512> 134 86<256.405 290.971> 264 86<256.405 290.719> 394 88<204.893 381.896>
VStem: 170 86<220.081 263.919> 412 100<113 363.934>
LayerCount: 2
Back
SplineSet
182 230 m 0
 182 283 225 326 279 326 c 0
 323 326 354 296 365 245 c 2
 409 62 l 1
 425 62 l 1
 425 309 l 2
 425 372 357 395 297 395 c 0
 228 395 182 367 142 330 c 1
 106 369 l 1
 147 413 209 458 295 458 c 0
 410 458 500 399 500 309 c 2
 500 0 l 1
 337 0 l 1
 319 146 l 1
 308 139 294 134 279 134 c 0
 225 134 182 177 182 230 c 0
244 230 m 0
 244 211 260 196 279 196 c 0
 293 196 304 211 304 230 c 0
 304 249 293 264 279 264 c 0
 260 264 244 249 244 230 c 0
EndSplineSet
Fore
SplineSet
256 242 m 0
 256 230 267 220 279 220 c 0
 287 220 291 232 291 243 c 0
 291 253 288 264 279 264 c 3
 266 264 256 254 256 242 c 0
279 350 m 0
 329 350 364 317 377 260 c 2
 412 113 l 1
 412 321 l 2
 412 380 341 394 297 394 c 0
 238 394 194 373 150 333 c 1
 141 324 l 1
 89 381 l 1
 97 390 l 1
 150 446 216 482 295 482 c 0
 417 482 512 418 512 321 c 2
 512 -0 l 1
 326 -0 l 1
 309 139 l 1
 300 136 290 134 279 134 c 0
 218 134 170 182 170 242 c 0
 170 302 218 350 279 350 c 0
EndSplineSet
Validated: 1
EndChar

StartChar: uni0E09
Encoding: 3593 3593 209
Width: 600
Flags: W
HStem: -12 86<422.619 465.93> -0 21G<216 337.5> 258 88<192.079 228.583> 394 88<183.785 364.89>
VStem: 106 86<217.012 257.119> 230 98<216.007 256.503> 394 100<206 367.433> 466 86<74.9154 115.473>
LayerCount: 2
Back
SplineSet
180 225 m 0xfa
 180 207 194 192 210 192 c 0
 228 192 242 207 242 225 c 0
 242 244 228 259 211 259 c 0
 194 259 180 244 180 225 c 0xfa
118 225 m 0
 118 279 159 322 211 322 c 0
 275 322 316 279 316 225 c 2xfa
 316 81 l 1
 407 189 l 1
 407 310 l 2
 407 371 342 395 281 395 c 0
 213 395 153 366 114 329 c 1
 78 368 l 1
 118 413 194 458 278 458 c 0
 395 458 482 398 482 310 c 2
 482 164 l 1xfd
 516 151 540 121 540 83 c 0
 540 30 497 -12 444 -12 c 0
 404 -12 370 15 362 51 c 1
 313 0 l 1
 228 0 l 1
 228 131 l 1xfc80
 223 130 217 129 211 129 c 0
 159 129 118 172 118 225 c 0
410 83 m 0
 410 65 425 50 444 50 c 0
 463 50 478 65 478 83 c 0xf880
 478 101 463 117 444 117 c 0
 426 117 410 102 410 83 c 0
EndSplineSet
Fore
SplineSet
192 237 m 0x3c
 192 225 202 216 210 216 c 0
 221 216 230 225 230 237 c 0
 230 250 220 258 211 258 c 0
 202 258 192 250 192 237 c 0x3c
211 346 m 0
 282 346 328 298 328 237 c 2
 328 127 l 1
 394 206 l 1
 394 322 l 2
 394 380 325 394 281 394 c 0
 217 394 159 367 123 332 c 1
 113 323 l 1
 61 380 l 1
 69 388 l 1
 110 435 189 482 278 482 c 0
 401 482 494 418 494 322 c 2
 494 184 l 1x7e
 528 168 552 135 552 95 c 0
 552 35 504 -12 444 -12 c 0xbd
 406 -12 373 9 357 40 c 1
 318 -0 l 1
 216 -0 l 1x7d
 216 129 l 1
 214 129 213 128 211 128 c 0
 152 128 106 178 106 237 c 0
 106 297 152 346 211 346 c 0
422 95 m 0
 422 84 432 74 444 74 c 0
 456 74 466 84 466 95 c 0xbd
 466 106 456 116 444 116 c 0
 433 116 422 107 422 95 c 0
EndSplineSet
Validated: 1
EndChar

StartChar: uni0E0A
Encoding: 3594 3594 210
Width: 600
Flags: W
HStem: -0 86<144 198 298 412> 222 76<146.552 185.823> 394 88<234.305 283.74>
VStem: 70 76<298.585 342.917> 186 74<298.43 343.755> 198 100<86 199.98> 298 100<282.038 340> 412 100<86 339.026> 460 100<418.657 499>
LayerCount: 2
Back
SplineSet
286 159 m 2xf6
 286 62 l 25
 425 62 l 17
 425 240 l 2xf7
 425 279 430 314 396 353 c 1
 447 384 472 418 472 489 c 9
 547 482 l 17xf280
 547 409 529 370 469 350 c 1
 500 316 500 286 500 240 c 2
 500 0 l 1
 156 0 l 9
 156 62 l 25
 211 62 l 25
 211 168 l 18xf7
 211 221 311 255 311 334 c 0
 311 352 291 395 261 395 c 0
 252 395 229 393 209 384 c 1
 238 380 260 348 260 309 c 0xfa
 260 262 222 223 176 223 c 0
 131 223 95 262 95 309 c 0
 95 376 168 458 261 458 c 0
 338 458 386 399 386 334 c 0
 386 248 286 206 286 159 c 2xf6
145 309 m 0
 145 289 159 273 176 273 c 0
 195 273 210 289 210 309 c 0xfa
 210 328 195 344 178 344 c 0
 160 344 145 328 145 309 c 0
EndSplineSet
Fore
SplineSet
146 321 m 0xf8
 146 307 155 298 164 298 c 0
 176 298 186 307 186 321 c 0
 186 334 175 344 166 344 c 0
 156 344 146 333 146 321 c 0xf8
298 86 m 1xf4
 412 86 l 1
 412 278 l 2
 412 305 409 323 398 340 c 1xf3
 398 248 298 199 298 165 c 2
 298 86 l 1xf4
393 378 m 1
 437 405 460 435 460 501 c 2
 460 509 l 1
 560 499 l 1
 560 494 l 2xfa80
 560 432 548 383 489 357 c 1
 512 325 512 294 512 252 c 2
 512 -0 l 1
 144 -0 l 1
 144 86 l 1
 198 86 l 1
 198 174 l 2xf5
 198 228 298 261 298 340 c 0
 298 351 278 394 255 394 c 0
 251 394 239 394 232 393 c 1
 250 377 260 350 260 321 c 0xfa
 260 267 217 222 164 222 c 0
 111 222 70 268 70 321 c 0
 70 394 154 482 255 482 c 0
 324 482 377 435 393 378 c 1
EndSplineSet
Validated: 1
EndChar

StartChar: uni0E0B
Encoding: 3595 3595 211
Width: 600
Flags: W
HStem: -0 86<144 192 292 412> 202 76<145.833 188.124> 454 20G<153 216.857 273.814 317.381>
VStem: 70 75<279.146 320.941> 189 71<279.146 321.885> 192 100<86 189.078> 412 100<86 330.486> 460 100<426.855 496>
LayerCount: 2
Back
SplineSet
500 0 m 1xf980
 156 0 l 9
 156 62 l 25
 211 62 l 25
 211 158 l 18xfb80
 211 210 311 255 311 333 c 0
 311 347 305 380 285 388 c 1
 251 363 l 1
 205 386 l 1
 199 385 193 380 187 373 c 1
 178 373 l 1
 223 373 260 335 260 288 c 0xfd
 260 241 222 203 175 203 c 0
 131 203 95 241 95 288 c 0
 95 344 159 440 206 449 c 1
 251 423 l 1
 284 455 l 1
 328 438 386 389 386 333 c 0
 386 247 286 195 286 149 c 2
 286 62 l 25
 425 62 l 17
 425 246 l 2xfb80
 425 285 430 321 396 360 c 1
 447 392 472 425 472 496 c 9
 547 480 l 17xf940
 547 413 528 377 461 359 c 1
 500 324 500 293 500 246 c 2
 500 0 l 1xf980
145 288 m 0
 145 269 158 253 175 253 c 0
 194 253 210 269 210 288 c 0xfd
 210 307 196 323 178 323 c 0
 160 323 145 307 145 288 c 0
EndSplineSet
Fore
SplineSet
292 86 m 1xf6
 412 86 l 1
 412 284 l 2
 412 304 410 319 406 332 c 1
 400 245 292 189 292 155 c 2
 292 86 l 1xf6
145 300 m 0
 145 288 155 278 167 278 c 0
 179 278 189 288 189 300 c 0xf8
 189 312 179 322 167 322 c 0
 155 322 145 312 145 300 c 0
392 385 m 1
 436 413 460 441 460 508 c 2
 460 517 l 1
 560 496 l 1
 560 492 l 2xf9
 560 427 542 387 484 365 c 1
 512 333 512 303 512 258 c 2
 512 -0 l 1
 144 -0 l 1
 144 86 l 1
 192 86 l 1
 192 164 l 2xf6
 192 219 306 262 306 339 c 0
 306 346 302 382 289 391 c 1
 246 366 l 1
 230 372 l 1
 249 354 260 328 260 300 c 0
 260 246 218 202 166 202 c 0
 113 202 70 246 70 300 c 0
 70 357 128 451 178 474 c 1
 246 439 l 1
 298 482 l 1
 298 482 362 436 392 385 c 1
EndSplineSet
Validated: 1
EndChar

StartChar: uni0E0C
Encoding: 3596 3596 212
Width: 600
Flags: W
HStem: -12 74<126.519 165.668 311.206 332.918> 0 21G<416.429 542> 394 88<155.532 269.096> 450 20G<442 542>
VStem: 52 100<176.45 276.444> 52 74<63.7012 103.994> 166 76<62.8542 103.973> 246 65<62.1357 93.0061> 298 100<155.746 365.562> 442 100<105 470>
AnchorPoint: "AboveBase" 500 512 basechar 0
AnchorPoint: "BelowBase" 500 -40 basechar 0
LayerCount: 2
Back
SplineSet
316 94 m 0xb360
 302 94 293 80 293 66 c 0
 293 51 302 36 316 36 c 0
 330 36 339 49 339 61 c 0
 339 77 330 94 316 94 c 0xb360
126 71 m 0x7720
 126 53 140 38 158 38 c 0
 176 38 191 53 191 71 c 0
 191 90 176 105 158 105 c 0
 140 105 126 90 126 71 c 0x7720
151 155 m 1xbba0
 158 155 l 2
 204 155 241 117 241 71 c 0
 241 25 204 -12 158 -12 c 0
 113 -12 76 25 76 71 c 2x7720
 76 215 l 2
 76 239 96 264 124 277 c 1
 107 299 83 312 35 321 c 1
 87 402 131 458 222 458 c 0
 344 458 380 366 380 292 c 2
 380 125 l 1x7ba0
 454 68 l 1
 454 445 l 1
 529 445 l 1
 529 0 l 1
 449 0 l 1
 379 45 l 1x7360
 379 -6 346 -15 320 -15 c 0
 260 -15 252 35 252 66 c 0
 252 120 280 143 305 143 c 1
 305 292 l 2
 305 356 279 395 222 395 c 0
 179 395 159 370 127 338 c 1
 157 328 164 315 180 282 c 1
 164 269 151 241 151 215 c 2
 151 155 l 1xbba0
EndSplineSet
Fore
SplineSet
184 291 m 1x62c0
 165 275 152 255 152 227 c 2
 152 180 l 1x6ac0
 202 177 242 134 242 83 c 0
 242 30 199 -12 146 -12 c 0
 94 -12 52 30 52 83 c 2xa640
 52 227 l 2
 52 253 69 277 92 292 c 1
 81 302 61 315 21 321 c 2
 2 324 l 1
 12 340 l 2
 64 424 125 482 222 482 c 0
 352 482 398 384 398 304 c 2
 398 143 l 1xaac0
 442 105 l 1
 442 470 l 1
 542 470 l 1
 542 0 l 1
 445 0 l 1
 395 35 l 1
 387 -5 355 -16 326 -16 c 0
 298 -16 246 -5 246 78 c 0x5340
 246 130 270 159 298 166 c 1
 298 304 l 2
 298 370 252 394 210 394 c 0
 178 394 162 380 137 354 c 1
 158 343 167 326 184 291 c 1x62c0
126 83 m 0x8640
 126 71 135 62 146 62 c 0
 157 62 166 72 166 83 c 0
 166 95 157 104 146 104 c 0
 135 104 126 96 126 83 c 0x8640
323 61 m 0
 328 61 333 66 333 74 c 0
 333 83 327 94 321 94 c 0
 315 94 311 84 311 77 c 0x0340
 311 68 318 61 323 61 c 0
EndSplineSet
Validated: 1
EndChar

StartChar: uni0E0D
Encoding: 3597 3597 213
Width: 600
Flags: W
HStem: -184 70<356.054 448.5> -94 58<356.531 375.93> -12 74<138.519 177.668> -0 86<396 442> 394 88<168.044 277.604> 450 20G<442 542>
VStem: 64 100<175.504 276.444> 64 74<63.7012 103.994> 178 76<62.8542 103.946> 294 62<-113.15 -94.8297> 296 100<86 375.612> 442 100<86 470>
LayerCount: 2
Back
SplineSet
126 71 m 0xed90
 126 53 140 38 158 38 c 0
 176 38 191 53 191 71 c 0
 191 90 176 105 158 105 c 0
 140 105 126 90 126 71 c 0xed90
151 155 m 1xdeb8
 158 155 l 2
 204 155 241 117 241 71 c 0
 241 25 204 -12 158 -12 c 0
 113 -12 76 25 76 71 c 2xed90
 76 215 l 2
 76 239 96 264 124 277 c 1
 107 299 83 312 35 321 c 1
 87 402 131 458 222 458 c 0
 347 458 383 368 383 295 c 2
 383 62 l 1
 454 62 l 1
 454 445 l 1
 529 445 l 1
 529 0 l 1
 308 0 l 1
 308 295 l 2
 308 358 281 395 222 395 c 0
 179 395 159 370 127 338 c 1
 157 328 164 315 180 282 c 1
 164 269 151 241 151 215 c 2
 151 155 l 1xdeb8
366 -81 m 0
 352 -81 343 -95 343 -104 c 0xccd0
 343 -118 354 -127 366 -127 c 0
 375 -127 389 -119 389 -104 c 0
 389 -90 376 -81 366 -81 c 0
538 -58 m 1xccd4
 526.533 -103.87 494.529 -172 405 -172 c 0
 360 -172 306 -154 306 -104 c 0
 306 -67 340 -49 366 -49 c 0
 395 -49 426 -71 426 -104 c 0
 426 -115 425 -121 421 -127 c 1
 455.604 -121.389 463.276 -93.7711 469 -58 c 1
 538 -58 l 1xccd4
EndSplineSet
Fore
SplineSet
405 -184 m 0xc0d0
 358 -184 294 -165 294 -104 c 0
 294 -58 335 -36 366 -36 c 0
 401 -36 438 -62 438 -104 c 2
 438 -106 l 1
 450 -97 455 -79 457 -56 c 2
 458 -46 l 1
 554 -46 l 1
 550 -61 l 2
 533 -125 492 -184 405 -184 c 0xc0d0
366 -94 m 0
 360 -94 356 -99 356 -105 c 0
 356 -110 359 -114 366 -114 c 0
 369 -114 376 -111 376 -104 c 0
 376 -97 369 -94 366 -94 c 0
138 83 m 0xe190
 138 71 147 62 158 62 c 0
 169 62 178 72 178 83 c 0
 178 95 169 104 158 104 c 0
 147 104 138 96 138 83 c 0xe190
196 291 m 1
 177 275 164 255 164 227 c 2
 164 179 l 1xdab0
 214 176 254 134 254 83 c 0
 254 30 211 -12 158 -12 c 0
 106 -12 64 30 64 83 c 2xe990
 64 227 l 2
 64 253 81 277 104 292 c 1
 93 302 73 313 33 321 c 1
 14 324 l 1
 24 340 l 1
 78 423 125 482 222 482 c 0xea90
 354 482 396 387 396 307 c 2
 396 86 l 1
 442 86 l 1
 442 470 l 1
 542 470 l 1xd6b0
 542 -0 l 1
 296 -0 l 1
 296 307 l 2
 296 362 275 394 222 394 c 0xdab0
 190 394 174 380 149 354 c 1
 170 343 179 326 196 291 c 1
EndSplineSet
Validated: 1
Substitution2: "'ccmp' Pali-Sanskrit Descender Removal" uni0E0D.descless
Substitution2: "Thai Descender Removal Single Substitution" uni0E0D.descless
EndChar

StartChar: uni0E0E
Encoding: 3598 3598 214
Width: 600
Flags: W
HStem: -182 69<206.096 275.639> -76 74<205.117 278.285> -12 86<114.078 151.922> 394 88<228.858 370.915>
VStem: 28 86<74.5618 112.878> 120 85<-111.214 -79.1755> 138 100<200 265.977> 152 86<75.1171 113.993> 412 100<-70 352.853>
AnchorPoint: "BelowBase" 500 -210 basechar 0
LayerCount: 2
Back
SplineSet
151 214 m 2xfd40
 151 239 178 260 211 274 c 1
 192 297 150 309 98 318 c 1
 151 400 208 458 301 458 c 0
 419 458 500 361 500 284 c 2
 500 -169 l 1
 425 -169 l 1
 403 -158 370 -137 338 -117 c 1
 322 -147 300 -170 241 -170 c 0
 190 -170 132 -140 132 -92 c 0xfe40
 132 -43 192 -14 241 -14 c 0
 260 -14 283 -24 307 -39 c 1
 318 -11 331 16 351 29 c 1
 396 0 l 1
 382 -19 372 -39 365 -60 c 1
 389 -71 411 -83 425 -91 c 1
 425 287 l 2
 425 357 357 395 301 395 c 8
 250 395 215 373 184 336 c 1
 223 325 248 312 270 278 c 1
 247 264 226 240 226 214 c 2xfd40
 226 82 l 2xfcc0
 226 30 185 -12 133 -12 c 0
 81 -12 40 30 40 82 c 0
 40 134 81 176 133 176 c 0
 140 176 146 175 151 173 c 1
 151 214 l 2xfd40
102 82 m 0
 102 64 116 50 133 50 c 0
 150 50 164 64 164 82 c 0xfcc0
 164 100 150 114 133 114 c 0
 116 114 102 100 102 82 c 0
297 -83 m 1
 275 -72 255 -64 241 -64 c 0
 223 -64 193 -79 193 -94 c 0xfe40
 193 -113 219 -125 241 -125 c 0
 267 -125 283 -106 297 -83 c 1
EndSplineSet
Fore
SplineSet
279 -88 m 1xd980
 262 -80 249 -76 241 -76 c 0
 223 -76 205 -91 205 -94 c 0xdc80
 205 -100 220 -113 238 -113 c 0
 251 -113 265 -107 279 -88 c 1xd980
114 94 m 0
 114 83 123 74 133 74 c 0
 143 74 152 83 152 94 c 0xb980
 152 105 143 114 133 114 c 0
 123 114 114 105 114 94 c 0
422 -182 m 1
 399 -170 380 -158 342 -134 c 1
 323 -164 295 -182 241 -182 c 0
 180 -182 120 -145 120 -92 c 0xbc80
 120 -38 182 -2 241 -2 c 0
 254 -2 273 -5 301 -21 c 1
 319 23 338 35 351 44 c 1
 411 3 l 1
 403 -7 l 2
 392 -22 384 -37 378 -54 c 1
 389 -59 403 -65 412 -70 c 1
 412 299 l 2
 412 359 354 394 301 394 c 0
 261 394 232 380 206 354 c 1
 238 343 261 328 280 297 c 2
 287 286 l 1
 276 279 l 2
 258 268 238 247 238 226 c 2xda80
 238 94 l 2xd980
 238 35 192 -12 133 -12 c 0
 74 -12 28 35 28 94 c 0
 28 140 59 200 138 200 c 1
 138 226 l 2xba80
 138 257 168 278 189 289 c 1
 173 300 145 310 96 318 c 2
 77 321 l 1
 88 337 l 2
 145 419 202 482 301 482 c 0
 425 482 512 381 512 296 c 2
 512 -182 l 1
 422 -182 l 1
EndSplineSet
Validated: 1
EndChar

StartChar: uni0E0F
Encoding: 3599 3599 215
Width: 600
Flags: W
HStem: -182 69<150.225 188.376> -82 72<150.479 188.665> -37 20G<336.286 376> -12 86<114.078 151.922> 394 88<228.858 370.915>
VStem: 28 86<74.5618 112.878> 66 84<-112.471 -83.244> 138 100<200 265.977> 152 86<75.1171 113.993> 412 100<-67 353.33>
AnchorPoint: "BelowBase" 500 -210 basechar 0
LayerCount: 2
Back
SplineSet
102 82 m 0xfcc0
 102 64 116 50 133 50 c 0
 150 50 164 64 164 82 c 0
 164 100 150 114 133 114 c 0
 116 114 102 100 102 82 c 0xfcc0
151 173 m 1xfd40
 151 214 l 2
 151 239 178 260 211 274 c 1
 192 297 150 309 98 318 c 1
 151 400 208 458 301 458 c 0
 419 458 500 361 500 285 c 2
 500 -170 l 1
 425 -170 l 1
 355 -111 l 1
 330 -167 l 1
 303 -156 275 -139 254 -122 c 1
 239 -150 221 -170 166 -170 c 0
 126 -170 78 -139 78 -92 c 0
 78 -41 131 -16 162 -16 c 0
 187 -16 206 -28 223 -35 c 1
 232 -10 246 19 266 32 c 1
 310 2 l 1
 289 -11 278 -39 270 -68 c 1
 283 -75 296 -82 312 -88 c 1
 354 -35 l 1
 425 -93 l 1
 425 287 l 2
 425 357 357 395 301 395 c 8
 250 395 215 373 184 336 c 1
 223 325 248 312 270 278 c 1
 247 264 226 240 226 214 c 2xfb40
 226 82 l 2xf8c0
 226 30 185 -12 133 -12 c 0
 81 -12 40 30 40 82 c 0
 40 134 81 176 133 176 c 0
 140 176 146 175 151 173 c 1xfd40
203 -84 m 1
 190 -76 177 -63 159 -63 c 0
 145 -63 138 -72 138 -92 c 0
 138 -112 154 -125 172 -125 c 0
 181 -125 199 -114 203 -84 c 1
EndSplineSet
Fore
SplineSet
189 -93 m 1xca40
 180 -86 174 -82 164 -82 c 0
 157 -82 150 -83 150 -95 c 0
 150 -112 165 -113 173 -113 c 0
 176 -113 185 -108 189 -93 c 1xca40
138 226 m 2xbd40
 138 257 168 278 189 289 c 1
 173 300 145 310 96 318 c 2
 77 321 l 1
 88 337 l 2
 145 419 202 482 301 482 c 0
 425 482 512 381 512 297 c 2
 512 -182 l 1
 420 -182 l 1
 360 -131 l 1
 336 -183 l 1
 325 -179 l 2
 301 -170 278 -155 258 -141 c 1
 240 -167 217 -182 166 -182 c 0
 119 -182 66 -149 66 -95 c 0
 66 -37 137 -10 165 -10 c 0xca40
 187 -10 202 -16 216 -22 c 1
 234 22 253 39 266 47 c 1
 333 1 l 1
 317 -9 l 2
 303 -17 293 -36 285 -62 c 1
 292 -66 300 -69 308 -73 c 1
 352 -17 l 1
 412 -67 l 1
 412 299 l 2
 412 359 354 394 301 394 c 0
 261 394 232 380 206 354 c 1
 238 343 261 328 280 297 c 2
 287 286 l 1
 276 279 l 2
 258 268 238 247 238 226 c 2xa940
 238 94 l 2xa8c0
 238 35 192 -12 133 -12 c 0
 74 -12 28 35 28 94 c 0
 28 140 59 200 138 200 c 1
 138 226 l 2xbd40
114 94 m 0x9cc0
 114 83 123 74 133 74 c 0
 143 74 152 83 152 94 c 0
 152 105 143 114 133 114 c 0
 123 114 114 105 114 94 c 0x9cc0
EndSplineSet
Validated: 1
EndChar

StartChar: uni0E10
Encoding: 3600 3600 216
Width: 600
Flags: W
HStem: -202 62<132.25 190.221> -94 62<133.045 196.536> -56 54<424.615 457.165> 0 21G<322.471 512> 76 88<256.405 289.894> 198 88<256.548 289.894> 354 80<418.657 524.25> 394 88<256.87 393.406> 432 20G<500 524.438>
VStem: 58 74<-137.039 -94.7746> 170 86<164.72 197.609> 368 56<-75.9343 -57.0663> 412 100<107 257.936> 458 54<-93.9927 -57.6664>
AnchorPoint: "AboveBase" 500 512 basechar 0
LayerCount: 2
Back
SplineSet
471 411 m 0xff74
 494 411 498 416 508 424 c 1
 538 380 l 1
 526 368 l 2
 515 358 484 357 445 357 c 0xff74
 408 357 387 396 329 396 c 0
 310 396 267 393 226 356 c 1
 282 344 500 292 500 249 c 2xfef8
 500 0 l 1xfef4
 337 0 l 1
 320 105 l 1
 310 91 295 85 279 85 c 0
 225 85 182 115 182 177 c 0
 182 229 225 270 279 270 c 0
 320 270 351 244 365 202 c 2
 410 62 l 1
 425 62 l 1
 425 228 l 2
 425 277 185 321 137 330 c 1
 137 350 l 1
 186 423 248 459 329 459 c 0xfef8
 418 459 412 411 471 411 c 0xff74
244 177 m 0
 244 161 258 148 274 148 c 0
 290 148 303 161 303 177 c 0
 303 194 290 207 274 207 c 0
 258 207 244 194 244 177 c 0
212 -98 m 1
 197 -88 182 -82 164 -82 c 0
 136 -82 120 -92 120 -116 c 0
 120 -139 149 -152 168 -152 c 0
 191 -152 202 -128 212 -98 c 1
442 -44 m 0
 425 -44 411 -58 411 -75 c 0
 411 -92 425 -106 442 -106 c 0
 459 -106 471 -92 471 -75 c 0
 471 -58 459 -44 442 -44 c 0
500 -74 m 2
 500 -191 l 1
 401 -191 l 1
 342 -126 l 1
 305 -184 l 1
 281 -172 271 -152 252 -133 c 1
 239 -166 219 -190 172 -190 c 0
 126 -190 70 -160 70 -116 c 0
 70 -68 128 -44 168 -44 c 0
 191 -44 210 -49 225 -57 c 1
 235 -33 247 -11 268 1 c 1
 313 -22 l 1
 289 -35 277 -61 268 -88 c 1
 282 -100 287 -113 305 -124 c 1
 342 -66 l 1
 414 -146 l 1
 455 -146 l 1
 455 -132 l 1
 450 -133 445 -134 440 -134 c 0
 407 -134 380 -107 380 -74 c 0
 380 -41 407 -14 440 -14 c 0
 473 -14 500 -41 500 -74 c 2
EndSplineSet
Fore
SplineSet
219 -40 m 1xdc74
 237 -2 255 8 268 15 c 1
 340 -22 l 1
 319 -33 l 2
 300 -43 289 -66 282 -84 c 1
 290 -92 294 -99 302 -106 c 1
 340 -45 l 1
 368 -76 l 1
 368 -28 405 -2 440 -2 c 0xbc74
 480 -2 512 -34 512 -74 c 2
 512 -204 l 1
 395 -204 l 1
 344 -147 l 1
 309 -200 l 1
 299 -195 l 2
 280 -185 267 -170 255 -155 c 1
 241 -182 217 -202 172 -202 c 0
 120 -202 58 -168 58 -116 c 0
 58 -63 117 -32 168 -32 c 0
 187 -32 204 -35 219 -40 c 1xdc74
442 -56 m 0
 432 -56 424 -65 424 -75 c 0
 424 -85 432 -94 442 -94 c 0xdc74
 452 -94 458 -84 458 -75 c 0
 458 -66 452 -56 442 -56 c 0
197 -103 m 1
 186 -97 176 -94 164 -94 c 0
 140 -94 132 -102 132 -116 c 0
 132 -130 154 -140 168 -140 c 0
 179 -140 187 -130 197 -103 c 1
256 181 m 0
 256 173 265 164 274 164 c 0
 283 164 290 172 290 181 c 0
 290 191 283 198 274 198 c 0
 265 198 256 191 256 181 c 0
124 364 m 1
 148 399 206 482 329 482 c 0x9d68
 422 482 418 434 471 434 c 0x9e68
 489 434 489 435 500 444 c 2
 511 452 l 1x9ce8
 554 388 l 1
 535 369 l 2
 524 358 511 354 452 354 c 0x9e68
 396 354 387 394 329 394 c 0
 315 394 286 392 255 372 c 1
 481 320 512 282 512 259 c 2
 512 0 l 1x9d64
 326 0 l 1
 311 85 l 1
 301 79 290 76 279 76 c 0
 218 76 170 112 170 181 c 0
 170 240 219 286 279 286 c 0
 326 286 361 257 377 210 c 2
 412 107 l 1
 412 238 l 2x9d68
 412 275 151 325 124 330 c 1
 124 364 l 1
EndSplineSet
Validated: 1
Substitution2: "'ccmp' Pali-Sanskrit Descender Removal" uni0E10.descless
Substitution2: "Thai Descender Removal Single Substitution" uni0E10.descless
EndChar

StartChar: uni0E11
Encoding: 3601 3601 217
Width: 600
Flags: W
HStem: 0 21G<154 270.812 412 512> 202 76<62.3327 101.481> 462 20G<80.5 149.429 187.684 227 384 437.5>
VStem: -14 76<279.146 320.839> 102 74<279.146 321.813> 154 107<205 269.064> 221 96<315.104 381.837> 412 100<0 355.863>
DStem2: 261 205 377 261 0.403209 0.915108<0 200.079>
LayerCount: 2
Back
SplineSet
240 233 m 2xfa80
 240 177 l 1
 285 279 l 2
 316 355 341 458 395 458 c 0
 442 458 500 441 500 333 c 2
 500 0 l 1
 425 0 l 1
 425 333 l 2
 425 372 416 395 395 395 c 0
 385 395 368 310 342 254 c 2
 230 0 l 1
 155 0 l 1
 155 206 l 2xfa80
 155 233 221 332 221 354 c 0
 221 368 220 375 203 380 c 1
 164 359 l 1
 119 377 l 1
 115 376 112 375 108 373 c 1
 94 373 l 1
 139 373 176 335 176 288 c 0
 176 241 139 203 94 203 c 0
 48 203 11 241 11 288 c 0
 11 342 75 435 122 443 c 1
 165 412 l 1
 205 451 l 1
 246 435 296 405 296 354 c 0xfd80
 296 307 240 261 240 233 c 2xfa80
61 288 m 0
 61 269 76 253 94 253 c 0
 112 253 126 269 126 288 c 0xfc80
 126 307 112 323 94 323 c 0
 76 323 61 307 61 288 c 0
EndSplineSet
Fore
SplineSet
62 300 m 0xf9
 62 288 72 278 82 278 c 0
 92 278 102 287 102 300 c 0
 102 313 92 322 82 322 c 0
 72 322 62 312 62 300 c 0xf9
214 482 m 1
 240 471 317 436 317 366 c 0xfb
 317 316 261 265 261 245 c 2
 261 205 l 1
 301 296 l 2
 337 377 352 482 416 482 c 0
 459 482 512 464 512 345 c 2
 512 0 l 1
 412 0 l 1
 412 359 l 1
 402 329 389 288 377 261 c 2
 262 0 l 1
 154 0 l 1
 154 218 l 2xf5
 154 243 221 340 221 368 c 0xf3
 221 374 220 380 216 382 c 1
 165 361 l 1
 152 365 l 1
 167 348 176 325 176 300 c 0
 176 246 134 202 82 202 c 0
 29 202 -14 246 -14 300 c 0
 -14 355 48 461 113 472 c 1
 164 444 l 1
 214 482 l 1
EndSplineSet
Validated: 1
EndChar

